<?xml version="1.0" encoding="utf-8" standalone="no"?>
<!DOCTYPE svg PUBLIC "-//W3C//DTD SVG 1.1//EN"
  "http://www.w3.org/Graphics/SVG/1.1/DTD/svg11.dtd">
<svg xmlns:xlink="http://www.w3.org/1999/xlink" width="565.92pt" height="233.28pt" viewBox="0 0 565.92 233.28" xmlns="http://www.w3.org/2000/svg" version="1.1">
 <metadata>
  <rdf:RDF xmlns:dc="http://purl.org/dc/elements/1.1/" xmlns:cc="http://creativecommons.org/ns#" xmlns:rdf="http://www.w3.org/1999/02/22-rdf-syntax-ns#">
   <cc:Work>
    <dc:type rdf:resource="http://purl.org/dc/dcmitype/StillImage"/>
    <dc:date>2026-06-15T18:01:32.601033</dc:date>
    <dc:format>image/svg+xml</dc:format>
    <dc:creator>
     <cc:Agent>
      <dc:title>Matplotlib v3.9.4, https://matplotlib.org/</dc:title>
     </cc:Agent>
    </dc:creator>
   </cc:Work>
  </rdf:RDF>
 </metadata>
 <defs>
  <style type="text/css">*{stroke-linejoin: round; stroke-linecap: butt}</style>
 </defs>
 <g id="figure_1">
  <g id="patch_1">
   <path d="M 0 233.28 
L 565.92 233.28 
L 565.92 0 
L 0 0 
z
" style="fill: #ffffff"/>
  </g>
  <g id="axes_1">
   <g id="patch_2">
    <path d="M 30.708 180.396 
L 172.08 180.396 
L 172.08 72.288 
L 30.708 72.288 
z
" clip-path="url(#p613ef729e5)" style="fill: #fbfaf6; stroke: #333333; stroke-width: 1.3; stroke-linejoin: miter"/>
   </g>
   <g id="patch_3">
    <path d="M 93.55431 96.611673 
C 94.704348 96.611673 95.807438 96.154758 96.620638 95.341558 
C 97.433838 94.528358 97.890753 93.425267 97.890753 92.275229 
C 97.890753 91.125191 97.433838 90.0221 96.620638 89.2089 
C 95.807438 88.3957 94.704348 87.938785 93.55431 87.938785 
C 92.404271 87.938785 91.301181 88.3957 90.487981 89.2089 
C 89.674781 90.0221 89.217866 91.125191 89.217866 92.275229 
C 89.217866 93.425267 89.674781 94.528358 90.487981 95.341558 
C 91.301181 96.154758 92.404271 96.611673 93.55431 96.611673 
z
" clip-path="url(#p613ef729e5)" style="fill: #d6d3c8; stroke: #ffffff; stroke-width: 0.45; stroke-linejoin: miter"/>
   </g>
   <g id="patch_4">
    <path d="M 49.23821 85.24581 
C 50.354467 85.24581 51.425155 84.802317 52.214467 84.013004 
C 53.00378 83.223692 53.447273 82.153004 53.447273 81.036747 
C 53.447273 79.920491 53.00378 78.849803 52.214467 78.060491 
C 51.425155 77.271178 50.354467 76.827685 49.23821 76.827685 
C 48.121954 76.827685 47.051266 77.271178 46.261954 78.060491 
C 45.472641 78.849803 45.029148 79.920491 45.029148 81.036747 
C 45.029148 82.153004 45.472641 83.223692 46.261954 84.013004 
C 47.051266 84.802317 48.121954 85.24581 49.23821 85.24581 
z
" clip-path="url(#p613ef729e5)" style="fill: #d6d3c8; stroke: #ffffff; stroke-width: 0.45; stroke-linejoin: miter"/>
   </g>
   <g id="patch_5">
    <path d="M 138.097923 166.002154 
C 139.242308 166.002154 140.339976 165.547485 141.149179 164.738283 
C 141.958381 163.92908 142.41305 162.831412 142.41305 161.687027 
C 142.41305 160.542642 141.958381 159.444973 141.149179 158.635771 
C 140.339976 157.826568 139.242308 157.371899 138.097923 157.371899 
C 136.953537 157.371899 135.855869 157.826568 135.046667 158.635771 
C 134.237464 159.444973 133.782795 160.542642 133.782795 161.687027 
C 133.782795 162.831412 134.237464 163.92908 135.046667 164.738283 
C 135.855869 165.547485 136.953537 166.002154 138.097923 166.002154 
z
" clip-path="url(#p613ef729e5)" style="fill: #d6d3c8; stroke: #ffffff; stroke-width: 0.45; stroke-linejoin: miter"/>
   </g>
   <g id="patch_6">
    <path d="M 84.682986 89.138308 
C 85.690302 89.138308 86.656497 88.738097 87.368777 88.025817 
C 88.081057 87.313537 88.481268 86.347342 88.481268 85.340026 
C 88.481268 84.33271 88.081057 83.366515 87.368777 82.654235 
C 86.656497 81.941955 85.690302 81.541744 84.682986 81.541744 
C 83.67567 81.541744 82.709475 81.941955 81.997195 82.654235 
C 81.284915 83.366515 80.884704 84.33271 80.884704 85.340026 
C 80.884704 86.347342 81.284915 87.313537 81.997195 88.025817 
C 82.709475 88.738097 83.67567 89.138308 84.682986 89.138308 
z
" clip-path="url(#p613ef729e5)" style="fill: #d6d3c8; stroke: #ffffff; stroke-width: 0.45; stroke-linejoin: miter"/>
   </g>
   <g id="patch_7">
    <path d="M 142.932337 135.862209 
C 144.024994 135.862209 145.073046 135.428092 145.845671 134.655467 
C 146.618297 133.882842 147.052414 132.83479 147.052414 131.742133 
C 147.052414 130.649476 146.618297 129.601424 145.845671 128.828799 
C 145.073046 128.056174 144.024994 127.622056 142.932337 127.622056 
C 141.83968 127.622056 140.791629 128.056174 140.019003 128.828799 
C 139.246378 129.601424 138.812261 130.649476 138.812261 131.742133 
C 138.812261 132.83479 139.246378 133.882842 140.019003 134.655467 
C 140.791629 135.428092 141.83968 135.862209 142.932337 135.862209 
z
" clip-path="url(#p613ef729e5)" style="fill: #d6d3c8; stroke: #ffffff; stroke-width: 0.45; stroke-linejoin: miter"/>
   </g>
   <g id="patch_8">
    <path d="M 108.494526 171.999708 
C 109.403415 171.999708 110.275201 171.638603 110.917883 170.995921 
C 111.560564 170.353239 111.92167 169.481454 111.92167 168.572565 
C 111.92167 167.663676 111.560564 166.79189 110.917883 166.149208 
C 110.275201 165.506527 109.403415 165.145421 108.494526 165.145421 
C 107.585637 165.145421 106.713852 165.506527 106.07117 166.149208 
C 105.428488 166.79189 105.067383 167.663676 105.067383 168.572565 
C 105.067383 169.481454 105.428488 170.353239 106.07117 170.995921 
C 106.713852 171.638603 107.585637 171.999708 108.494526 171.999708 
z
" clip-path="url(#p613ef729e5)" style="fill: #d6d3c8; stroke: #ffffff; stroke-width: 0.45; stroke-linejoin: miter"/>
   </g>
   <g id="patch_9">
    <path d="M 118.258283 106.295484 
C 119.431997 106.295484 120.557796 105.829162 121.387737 104.999221 
C 122.217678 104.169281 122.683999 103.043481 122.683999 101.869768 
C 122.683999 100.696054 122.217678 99.570254 121.387737 98.740314 
C 120.557796 97.910373 119.431997 97.444051 118.258283 97.444051 
C 117.084569 97.444051 115.95877 97.910373 115.128829 98.740314 
C 114.298888 99.570254 113.832567 100.696054 113.832567 101.869768 
C 113.832567 103.043481 114.298888 104.169281 115.128829 104.999221 
C 115.95877 105.829162 117.084569 106.295484 118.258283 106.295484 
z
" clip-path="url(#p613ef729e5)" style="fill: #d6d3c8; stroke: #ffffff; stroke-width: 0.45; stroke-linejoin: miter"/>
   </g>
   <g id="patch_10">
    <path d="M 162.424284 92.085896 
C 163.389318 92.085896 164.314956 91.702484 164.997338 91.020102 
C 165.67972 90.33772 166.063132 89.412082 166.063132 88.447048 
C 166.063132 87.482015 165.67972 86.556376 164.997338 85.873994 
C 164.314956 85.191613 163.389318 84.808201 162.424284 84.808201 
C 161.459251 84.808201 160.533613 85.191613 159.851231 85.873994 
C 159.168849 86.556376 158.785437 87.482015 158.785437 88.447048 
C 158.785437 89.412082 159.168849 90.33772 159.851231 91.020102 
C 160.533613 91.702484 161.459251 92.085896 162.424284 92.085896 
z
" clip-path="url(#p613ef729e5)" style="fill: #d6d3c8; stroke: #ffffff; stroke-width: 0.45; stroke-linejoin: miter"/>
   </g>
   <g id="patch_11">
    <path d="M 62.231663 133.846819 
C 63.383654 133.846819 64.488618 133.389128 65.303199 132.574547 
C 66.11778 131.759967 66.575471 130.655003 66.575471 129.503012 
C 66.575471 128.35102 66.11778 127.246057 65.303199 126.431476 
C 64.488618 125.616895 63.383654 125.159204 62.231663 125.159204 
C 61.079672 125.159204 59.974708 125.616895 59.160127 126.431476 
C 58.345547 127.246057 57.887856 128.35102 57.887856 129.503012 
C 57.887856 130.655003 58.345547 131.759967 59.160127 132.574547 
C 59.974708 133.389128 61.079672 133.846819 62.231663 133.846819 
z
" clip-path="url(#p613ef729e5)" style="fill: #d6d3c8; stroke: #ffffff; stroke-width: 0.45; stroke-linejoin: miter"/>
   </g>
   <g id="patch_12">
    <path d="M 56.212163 111.629834 
C 57.040142 111.629834 57.83432 111.300875 58.419789 110.715406 
C 59.005258 110.129937 59.334218 109.335759 59.334218 108.50778 
C 59.334218 107.679802 59.005258 106.885623 58.419789 106.300154 
C 57.83432 105.714685 57.040142 105.385726 56.212163 105.385726 
C 55.384185 105.385726 54.590007 105.714685 54.004538 106.300154 
C 53.419068 106.885623 53.090109 107.679802 53.090109 108.50778 
C 53.090109 109.335759 53.419068 110.129937 54.004538 110.715406 
C 54.590007 111.300875 55.384185 111.629834 56.212163 111.629834 
z
" clip-path="url(#p613ef729e5)" style="fill: #d6d3c8; stroke: #ffffff; stroke-width: 0.45; stroke-linejoin: miter"/>
   </g>
   <g id="patch_13">
    <path d="M 161.404028 147.193378 
C 162.541189 147.193378 163.631928 146.741579 164.436023 145.937485 
C 165.240117 145.13339 165.691916 144.042651 165.691916 142.90549 
C 165.691916 141.768329 165.240117 140.677589 164.436023 139.873495 
C 163.631928 139.069401 162.541189 138.617602 161.404028 138.617602 
C 160.266866 138.617602 159.176127 139.069401 158.372033 139.873495 
C 157.567938 140.677589 157.116139 141.768329 157.116139 142.90549 
C 157.116139 144.042651 157.567938 145.13339 158.372033 145.937485 
C 159.176127 146.741579 160.266866 147.193378 161.404028 147.193378 
z
" clip-path="url(#p613ef729e5)" style="fill: #d6d3c8; stroke: #ffffff; stroke-width: 0.45; stroke-linejoin: miter"/>
   </g>
   <g id="patch_14">
    <path d="M 97.448247 159.924331 
C 98.420309 159.924331 99.352689 159.538127 100.04004 158.850775 
C 100.727392 158.163424 101.113596 157.231044 101.113596 156.258982 
C 101.113596 155.28692 100.727392 154.354541 100.04004 153.667189 
C 99.352689 152.979838 98.420309 152.593634 97.448247 152.593634 
C 96.476186 152.593634 95.543806 152.979838 94.856455 153.667189 
C 94.169103 154.354541 93.782899 155.28692 93.782899 156.258982 
C 93.782899 157.231044 94.169103 158.163424 94.856455 158.850775 
C 95.543806 159.538127 96.476186 159.924331 97.448247 159.924331 
z
" clip-path="url(#p613ef729e5)" style="fill: #d6d3c8; stroke: #ffffff; stroke-width: 0.45; stroke-linejoin: miter"/>
   </g>
   <g id="patch_15">
    <path d="M 98.225771 156.13592 
C 99.091735 156.13592 99.922348 155.791869 100.534677 155.17954 
C 101.147005 154.567211 101.491056 153.736598 101.491056 152.870635 
C 101.491056 152.004671 101.147005 151.174058 100.534677 150.561729 
C 99.922348 149.9494 99.091735 149.605349 98.225771 149.605349 
C 97.359807 149.605349 96.529194 149.9494 95.916866 150.561729 
C 95.304537 151.174058 94.960486 152.004671 94.960486 152.870635 
C 94.960486 153.736598 95.304537 154.567211 95.916866 155.17954 
C 96.529194 155.791869 97.359807 156.13592 98.225771 156.13592 
z
" clip-path="url(#p613ef729e5)" style="fill: #d6d3c8; stroke: #ffffff; stroke-width: 0.45; stroke-linejoin: miter"/>
   </g>
   <g id="patch_16">
    <path d="M 93.311088 98.785589 
C 94.41519 98.785589 95.47422 98.346925 96.254939 97.566206 
C 97.035657 96.785488 97.474322 95.726457 97.474322 94.622355 
C 97.474322 93.518252 97.035657 92.459222 96.254939 91.678503 
C 95.47422 90.897785 94.41519 90.45912 93.311088 90.45912 
C 92.206985 90.45912 91.147955 90.897785 90.367236 91.678503 
C 89.586518 92.459222 89.147853 93.518252 89.147853 94.622355 
C 89.147853 95.726457 89.586518 96.785488 90.367236 97.566206 
C 91.147955 98.346925 92.206985 98.785589 93.311088 98.785589 
z
" clip-path="url(#p613ef729e5)" style="fill: #d6d3c8; stroke: #ffffff; stroke-width: 0.45; stroke-linejoin: miter"/>
   </g>
   <g id="patch_17">
    <path d="M 77.281418 98.909783 
C 78.398952 98.909783 79.470865 98.465782 80.261081 97.675566 
C 81.051297 96.88535 81.495298 95.813437 81.495298 94.695903 
C 81.495298 93.578368 81.051297 92.506455 80.261081 91.716239 
C 79.470865 90.926023 78.398952 90.482022 77.281418 90.482022 
C 76.163883 90.482022 75.09197 90.926023 74.301754 91.716239 
C 73.511538 92.506455 73.067537 93.578368 73.067537 94.695903 
C 73.067537 95.813437 73.511538 96.88535 74.301754 97.675566 
C 75.09197 98.465782 76.163883 98.909783 77.281418 98.909783 
z
" clip-path="url(#p613ef729e5)" style="fill: #d6d3c8; stroke: #ffffff; stroke-width: 0.45; stroke-linejoin: miter"/>
   </g>
   <g id="patch_18">
    <path d="M 86.973068 150.816803 
C 88.136695 150.816803 89.25282 150.354489 90.075629 149.53168 
C 90.898438 148.708872 91.360752 147.592747 91.360752 146.429119 
C 91.360752 145.265492 90.898438 144.149367 90.075629 143.326558 
C 89.25282 142.503749 88.136695 142.041435 86.973068 142.041435 
C 85.809441 142.041435 84.693316 142.503749 83.870507 143.326558 
C 83.047698 144.149367 82.585384 145.265492 82.585384 146.429119 
C 82.585384 147.592747 83.047698 148.708872 83.870507 149.53168 
C 84.693316 150.354489 85.809441 150.816803 86.973068 150.816803 
z
" clip-path="url(#p613ef729e5)" style="fill: #d6d3c8; stroke: #ffffff; stroke-width: 0.45; stroke-linejoin: miter"/>
   </g>
   <g id="patch_19">
    <path d="M 55.077644 159.126319 
C 56.187341 159.126319 57.251736 158.685432 58.03641 157.900758 
C 58.821084 157.116085 59.261971 156.051689 59.261971 154.941993 
C 59.261971 153.832296 58.821084 152.767901 58.03641 151.983227 
C 57.251736 151.198553 56.187341 150.757666 55.077644 150.757666 
C 53.967948 150.757666 52.903553 151.198553 52.118879 151.983227 
C 51.334205 152.767901 50.893318 153.832296 50.893318 154.941993 
C 50.893318 156.051689 51.334205 157.116085 52.118879 157.900758 
C 52.903553 158.685432 53.967948 159.126319 55.077644 159.126319 
z
" clip-path="url(#p613ef729e5)" style="fill: #d6d3c8; stroke: #ffffff; stroke-width: 0.45; stroke-linejoin: miter"/>
   </g>
   <g id="patch_20">
    <path d="M 138.9277 113.322259 
C 139.739604 113.322259 140.518365 112.999686 141.092468 112.425582 
C 141.666572 111.851479 141.989145 111.072718 141.989145 110.260814 
C 141.989145 109.448909 141.666572 108.670149 141.092468 108.096045 
C 140.518365 107.521942 139.739604 107.199369 138.9277 107.199369 
C 138.115795 107.199369 137.337035 107.521942 136.762931 108.096045 
C 136.188828 108.670149 135.866255 109.448909 135.866255 110.260814 
C 135.866255 111.072718 136.188828 111.851479 136.762931 112.425582 
C 137.337035 112.999686 138.115795 113.322259 138.9277 113.322259 
z
" clip-path="url(#p613ef729e5)" style="fill: #d6d3c8; stroke: #ffffff; stroke-width: 0.45; stroke-linejoin: miter"/>
   </g>
   <g id="patch_21">
    <path d="M 137.465642 134.47643 
C 138.585338 134.47643 139.659324 134.03157 140.451069 133.239826 
C 141.242813 132.448081 141.687673 131.374095 141.687673 130.254399 
C 141.687673 129.134703 141.242813 128.060716 140.451069 127.268972 
C 139.659324 126.477228 138.585338 126.032368 137.465642 126.032368 
C 136.345946 126.032368 135.271959 126.477228 134.480215 127.268972 
C 133.688471 128.060716 133.243611 129.134703 133.243611 130.254399 
C 133.243611 131.374095 133.688471 132.448081 134.480215 133.239826 
C 135.271959 134.03157 136.345946 134.47643 137.465642 134.47643 
z
" clip-path="url(#p613ef729e5)" style="fill: #d6d3c8; stroke: #ffffff; stroke-width: 0.45; stroke-linejoin: miter"/>
   </g>
   <g id="patch_22">
    <path d="M 54.947069 167.219872 
C 56.00659 167.219872 57.022859 166.79892 57.772053 166.049725 
C 58.521248 165.300531 58.9422 164.284262 58.9422 163.224741 
C 58.9422 162.16522 58.521248 161.148952 57.772053 160.399758 
C 57.022859 159.650563 56.00659 159.229611 54.947069 159.229611 
C 53.887549 159.229611 52.87128 159.650563 52.122086 160.399758 
C 51.372891 161.148952 50.951939 162.16522 50.951939 163.224741 
C 50.951939 164.284262 51.372891 165.300531 52.122086 166.049725 
C 52.87128 166.79892 53.887549 167.219872 54.947069 167.219872 
z
" clip-path="url(#p613ef729e5)" style="fill: #d6d3c8; stroke: #ffffff; stroke-width: 0.45; stroke-linejoin: miter"/>
   </g>
   <g id="patch_23">
    <path d="M 97.676538 124.282558 
C 98.780018 124.282558 99.838451 123.844141 100.61873 123.063862 
C 101.399008 122.283584 101.837426 121.225151 101.837426 120.12167 
C 101.837426 119.01819 101.399008 117.959757 100.61873 117.179478 
C 99.838451 116.3992 98.780018 115.960783 97.676538 115.960783 
C 96.573058 115.960783 95.514624 116.3992 94.734346 117.179478 
C 93.954067 117.959757 93.51565 119.01819 93.51565 120.12167 
C 93.51565 121.225151 93.954067 122.283584 94.734346 123.063862 
C 95.514624 123.844141 96.573058 124.282558 97.676538 124.282558 
z
" clip-path="url(#p613ef729e5)" style="fill: #d6d3c8; stroke: #ffffff; stroke-width: 0.45; stroke-linejoin: miter"/>
   </g>
   <g id="patch_24">
    <path d="M 118.677513 125.571911 
C 119.8236 125.571911 120.922901 125.116566 121.733307 124.30616 
C 122.543714 123.495754 122.999059 122.396453 122.999059 121.250365 
C 122.999059 120.104278 122.543714 119.004977 121.733307 118.194571 
C 120.922901 117.384164 119.8236 116.928819 118.677513 116.928819 
C 117.531425 116.928819 116.432124 117.384164 115.621718 118.194571 
C 114.811312 119.004977 114.355967 120.104278 114.355967 121.250365 
C 114.355967 122.396453 114.811312 123.495754 115.621718 124.30616 
C 116.432124 125.116566 117.531425 125.571911 118.677513 125.571911 
z
" clip-path="url(#p613ef729e5)" style="fill: #d6d3c8; stroke: #ffffff; stroke-width: 0.45; stroke-linejoin: miter"/>
   </g>
   <g id="patch_25">
    <path d="M 76.107826 175.228694 
C 77.163142 175.228694 78.175376 174.809413 78.921597 174.063192 
C 79.667818 173.316971 80.087099 172.304736 80.087099 171.249421 
C 80.087099 170.194105 79.667818 169.18187 78.921597 168.435649 
C 78.175376 167.689429 77.163142 167.270147 76.107826 167.270147 
C 75.05251 167.270147 74.040276 167.689429 73.294055 168.435649 
C 72.547834 169.18187 72.128553 170.194105 72.128553 171.249421 
C 72.128553 172.304736 72.547834 173.316971 73.294055 174.063192 
C 74.040276 174.809413 75.05251 175.228694 76.107826 175.228694 
z
" clip-path="url(#p613ef729e5)" style="fill: #d6d3c8; stroke: #ffffff; stroke-width: 0.45; stroke-linejoin: miter"/>
   </g>
   <g id="patch_26">
    <path d="M 64.465337 138.909931 
C 65.466624 138.909931 66.427036 138.512115 67.135053 137.804098 
C 67.84307 137.096081 68.240886 136.13567 68.240886 135.134383 
C 68.240886 134.133095 67.84307 133.172684 67.135053 132.464667 
C 66.427036 131.75665 65.466624 131.358834 64.465337 131.358834 
C 63.46405 131.358834 62.503638 131.75665 61.795621 132.464667 
C 61.087604 133.172684 60.689789 134.133095 60.689789 135.134383 
C 60.689789 136.13567 61.087604 137.096081 61.795621 137.804098 
C 62.503638 138.512115 63.46405 138.909931 64.465337 138.909931 
z
" clip-path="url(#p613ef729e5)" style="fill: #d6d3c8; stroke: #ffffff; stroke-width: 0.45; stroke-linejoin: miter"/>
   </g>
   <g id="patch_27">
    <path d="M 67.33835 172.655052 
C 68.523431 172.655052 69.660134 172.184215 70.498113 171.346236 
C 71.336092 170.508257 71.80693 169.371554 71.80693 168.186472 
C 71.80693 167.001391 71.336092 165.864688 70.498113 165.026709 
C 69.660134 164.18873 68.523431 163.717892 67.33835 163.717892 
C 66.153269 163.717892 65.016566 164.18873 64.178587 165.026709 
C 63.340608 165.864688 62.86977 167.001391 62.86977 168.186472 
C 62.86977 169.371554 63.340608 170.508257 64.178587 171.346236 
C 65.016566 172.184215 66.153269 172.655052 67.33835 172.655052 
z
" clip-path="url(#p613ef729e5)" style="fill: #d6d3c8; stroke: #ffffff; stroke-width: 0.45; stroke-linejoin: miter"/>
   </g>
   <g id="patch_28">
    <path d="M 74.581333 114.211844 
C 75.514105 114.211844 76.408798 113.84125 77.068367 113.181681 
C 77.727936 112.522111 78.09853 111.627418 78.09853 110.694646 
C 78.09853 109.761875 77.727936 108.867181 77.068367 108.207612 
C 76.408798 107.548043 75.514105 107.177449 74.581333 107.177449 
C 73.648561 107.177449 72.753868 107.548043 72.094298 108.207612 
C 71.434729 108.867181 71.064135 109.761875 71.064135 110.694646 
C 71.064135 111.627418 71.434729 112.522111 72.094298 113.181681 
C 72.753868 113.84125 73.648561 114.211844 74.581333 114.211844 
z
" clip-path="url(#p613ef729e5)" style="fill: #d6d3c8; stroke: #ffffff; stroke-width: 0.45; stroke-linejoin: miter"/>
   </g>
   <g id="patch_29">
    <path d="M 138.012749 114.589319 
C 139.067105 114.589319 140.07842 114.170419 140.823962 113.424877 
C 141.569505 112.679334 141.988405 111.66802 141.988405 110.613663 
C 141.988405 109.559307 141.569505 108.547993 140.823962 107.80245 
C 140.07842 107.056908 139.067105 106.638008 138.012749 106.638008 
C 136.958393 106.638008 135.947078 107.056908 135.201536 107.80245 
C 134.455993 108.547993 134.037093 109.559307 134.037093 110.613663 
C 134.037093 111.66802 134.455993 112.679334 135.201536 113.424877 
C 135.947078 114.170419 136.958393 114.589319 138.012749 114.589319 
z
" clip-path="url(#p613ef729e5)" style="fill: #d6d3c8; stroke: #ffffff; stroke-width: 0.45; stroke-linejoin: miter"/>
   </g>
   <g id="patch_30">
    <path d="M 142.05543 162.111832 
C 143.043339 162.111832 143.990919 161.719332 144.689476 161.020775 
C 145.388033 160.322218 145.780533 159.374639 145.780533 158.38673 
C 145.780533 157.398821 145.388033 156.451241 144.689476 155.752684 
C 143.990919 155.054127 143.043339 154.661627 142.05543 154.661627 
C 141.067522 154.661627 140.119942 155.054127 139.421385 155.752684 
C 138.722828 156.451241 138.330328 157.398821 138.330328 158.38673 
C 138.330328 159.374639 138.722828 160.322218 139.421385 161.020775 
C 140.119942 161.719332 141.067522 162.111832 142.05543 162.111832 
z
" clip-path="url(#p613ef729e5)" style="fill: #d6d3c8; stroke: #ffffff; stroke-width: 0.45; stroke-linejoin: miter"/>
   </g>
   <g id="patch_31">
    <path d="M 47.78749 107.749194 
C 48.606165 107.749194 49.39142 107.42393 49.97031 106.84504 
C 50.549201 106.266149 50.874464 105.480894 50.874464 104.662219 
C 50.874464 103.843544 50.549201 103.058289 49.97031 102.479398 
C 49.39142 101.900507 48.606165 101.575244 47.78749 101.575244 
C 46.968814 101.575244 46.18356 101.900507 45.604669 102.479398 
C 45.025778 103.058289 44.700515 103.843544 44.700515 104.662219 
C 44.700515 105.480894 45.025778 106.266149 45.604669 106.84504 
C 46.18356 107.42393 46.968814 107.749194 47.78749 107.749194 
z
" clip-path="url(#p613ef729e5)" style="fill: #d6d3c8; stroke: #ffffff; stroke-width: 0.45; stroke-linejoin: miter"/>
   </g>
   <g id="patch_32">
    <path d="M 57.59576 130.059056 
C 58.608144 130.059056 59.579201 129.656831 60.295065 128.940967 
C 61.010929 128.225103 61.413154 127.254047 61.413154 126.241662 
C 61.413154 125.229277 61.010929 124.258221 60.295065 123.542357 
C 59.579201 122.826492 58.608144 122.424268 57.59576 122.424268 
C 56.583375 122.424268 55.612318 122.826492 54.896454 123.542357 
C 54.18059 124.258221 53.778365 125.229277 53.778365 126.241662 
C 53.778365 127.254047 54.18059 128.225103 54.896454 128.940967 
C 55.612318 129.656831 56.583375 130.059056 57.59576 130.059056 
z
" clip-path="url(#p613ef729e5)" style="fill: #d6d3c8; stroke: #ffffff; stroke-width: 0.45; stroke-linejoin: miter"/>
   </g>
   <g id="patch_33">
    <path d="M 126.980778 134.871015 
C 127.856618 134.871015 128.696704 134.52304 129.316016 133.903727 
C 129.935328 133.284415 130.283303 132.444329 130.283303 131.568489 
C 130.283303 130.692649 129.935328 129.852563 129.316016 129.233251 
C 128.696704 128.613939 127.856618 128.265964 126.980778 128.265964 
C 126.104938 128.265964 125.264852 128.613939 124.64554 129.233251 
C 124.026227 129.852563 123.678252 130.692649 123.678252 131.568489 
C 123.678252 132.444329 124.026227 133.284415 124.64554 133.903727 
C 125.264852 134.52304 126.104938 134.871015 126.980778 134.871015 
z
" clip-path="url(#p613ef729e5)" style="fill: #d6d3c8; stroke: #ffffff; stroke-width: 0.45; stroke-linejoin: miter"/>
   </g>
   <g id="patch_34">
    <path d="M 75.675729 117.477793 
C 76.652449 117.477793 77.589297 117.089737 78.279942 116.399092 
C 78.970588 115.708446 79.358643 114.771598 79.358643 113.794878 
C 79.358643 112.818158 78.970588 111.88131 78.279942 111.190664 
C 77.589297 110.500019 76.652449 110.111964 75.675729 110.111964 
C 74.699008 110.111964 73.76216 110.500019 73.071515 111.190664 
C 72.380869 111.88131 71.992814 112.818158 71.992814 113.794878 
C 71.992814 114.771598 72.380869 115.708446 73.071515 116.399092 
C 73.76216 117.089737 74.699008 117.477793 75.675729 117.477793 
z
" clip-path="url(#p613ef729e5)" style="fill: #d6d3c8; stroke: #ffffff; stroke-width: 0.45; stroke-linejoin: miter"/>
   </g>
   <g id="patch_35">
    <path d="M 47.939052 166.806069 
C 48.9073 166.806069 49.836021 166.42138 50.520676 165.736726 
C 51.20533 165.052071 51.590019 164.12335 51.590019 163.155102 
C 51.590019 162.186855 51.20533 161.258133 50.520676 160.573479 
C 49.836021 159.888824 48.9073 159.504135 47.939052 159.504135 
C 46.970805 159.504135 46.042084 159.888824 45.357429 160.573479 
C 44.672774 161.258133 44.288086 162.186855 44.288086 163.155102 
C 44.288086 164.12335 44.672774 165.052071 45.357429 165.736726 
C 46.042084 166.42138 46.970805 166.806069 47.939052 166.806069 
z
" clip-path="url(#p613ef729e5)" style="fill: #d6d3c8; stroke: #ffffff; stroke-width: 0.45; stroke-linejoin: miter"/>
   </g>
   <g id="patch_36">
    <path d="M 153.544726 112.143719 
C 154.777663 112.143719 155.960267 111.653868 156.832085 110.78205 
C 157.703903 109.910232 158.193754 108.727627 158.193754 107.49469 
C 158.193754 106.261754 157.703903 105.079149 156.832085 104.207331 
C 155.960267 103.335513 154.777663 102.845662 153.544726 102.845662 
C 152.311789 102.845662 151.129185 103.335513 150.257367 104.207331 
C 149.385549 105.079149 148.895698 106.261754 148.895698 107.49469 
C 148.895698 108.727627 149.385549 109.910232 150.257367 110.78205 
C 151.129185 111.653868 152.311789 112.143719 153.544726 112.143719 
z
" clip-path="url(#p613ef729e5)" style="fill: #d6d3c8; stroke: #ffffff; stroke-width: 0.45; stroke-linejoin: miter"/>
   </g>
   <g id="patch_37">
    <path d="M 162.365352 102.880967 
C 163.29128 102.880967 164.17941 102.513092 164.834141 101.858361 
C 165.488871 101.203631 165.856747 100.315501 165.856747 99.389572 
C 165.856747 98.463644 165.488871 97.575514 164.834141 96.920783 
C 164.17941 96.266053 163.29128 95.898177 162.365352 95.898177 
C 161.439423 95.898177 160.551293 96.266053 159.896563 96.920783 
C 159.241832 97.575514 158.873957 98.463644 158.873957 99.389572 
C 158.873957 100.315501 159.241832 101.203631 159.896563 101.858361 
C 160.551293 102.513092 161.439423 102.880967 162.365352 102.880967 
z
" clip-path="url(#p613ef729e5)" style="fill: #d6d3c8; stroke: #ffffff; stroke-width: 0.45; stroke-linejoin: miter"/>
   </g>
   <g id="patch_38">
    <path d="M 94.889296 152.263797 
C 96.014163 152.263797 97.09311 151.816883 97.888512 151.021482 
C 98.683913 150.22608 99.130828 149.147133 99.130828 148.022266 
C 99.130828 146.897398 98.683913 145.818451 97.888512 145.02305 
C 97.09311 144.227648 96.014163 143.780734 94.889296 143.780734 
C 93.764428 143.780734 92.685481 144.227648 91.89008 145.02305 
C 91.094679 145.818451 90.647764 146.897398 90.647764 148.022266 
C 90.647764 149.147133 91.094679 150.22608 91.89008 151.021482 
C 92.685481 151.816883 93.764428 152.263797 94.889296 152.263797 
z
" clip-path="url(#p613ef729e5)" style="fill: #d6d3c8; stroke: #ffffff; stroke-width: 0.45; stroke-linejoin: miter"/>
   </g>
   <g id="patch_39">
    <path d="M 153.940765 133.85244 
C 154.791939 133.85244 155.608366 133.514265 156.210237 132.912394 
C 156.812107 132.310523 157.150282 131.494096 157.150282 130.642922 
C 157.150282 129.791748 156.812107 128.975322 156.210237 128.373451 
C 155.608366 127.77158 154.791939 127.433405 153.940765 127.433405 
C 153.089591 127.433405 152.273164 127.77158 151.671293 128.373451 
C 151.069423 128.975322 150.731248 129.791748 150.731248 130.642922 
C 150.731248 131.494096 151.069423 132.310523 151.671293 132.912394 
C 152.273164 133.514265 153.089591 133.85244 153.940765 133.85244 
z
" clip-path="url(#p613ef729e5)" style="fill: #d6d3c8; stroke: #ffffff; stroke-width: 0.45; stroke-linejoin: miter"/>
   </g>
   <g id="patch_40">
    <path d="M 76.136294 122.051295 
C 77.034211 122.051295 77.895472 121.694549 78.530395 121.059626 
C 79.165318 120.424702 79.522065 119.563441 79.522065 118.665524 
C 79.522065 117.767607 79.165318 116.906346 78.530395 116.271423 
C 77.895472 115.636499 77.034211 115.279753 76.136294 115.279753 
C 75.238377 115.279753 74.377115 115.636499 73.742192 116.271423 
C 73.107269 116.906346 72.750523 117.767607 72.750523 118.665524 
C 72.750523 119.563441 73.107269 120.424702 73.742192 121.059626 
C 74.377115 121.694549 75.238377 122.051295 76.136294 122.051295 
z
" clip-path="url(#p613ef729e5)" style="fill: #d6d3c8; stroke: #ffffff; stroke-width: 0.45; stroke-linejoin: miter"/>
   </g>
   <g id="patch_41">
    <path d="M 147.843147 104.612334 
C 148.729776 104.612334 149.580211 104.260073 150.207152 103.633131 
C 150.834094 103.00619 151.186356 102.155755 151.186356 101.269126 
C 151.186356 100.382497 150.834094 99.532062 150.207152 98.90512 
C 149.580211 98.278179 148.729776 97.925917 147.843147 97.925917 
C 146.956518 97.925917 146.106083 98.278179 145.479142 98.90512 
C 144.8522 99.532062 144.499939 100.382497 144.499939 101.269126 
C 144.499939 102.155755 144.8522 103.00619 145.479142 103.633131 
C 146.106083 104.260073 146.956518 104.612334 147.843147 104.612334 
z
" clip-path="url(#p613ef729e5)" style="fill: #d6d3c8; stroke: #ffffff; stroke-width: 0.45; stroke-linejoin: miter"/>
   </g>
   <g id="patch_42">
    <path d="M 92.671678 118.470405 
C 93.797681 118.470405 94.877716 118.02304 95.67392 117.226836 
C 96.470124 116.430632 96.917489 115.350597 96.917489 114.224595 
C 96.917489 113.098592 96.470124 112.018557 95.67392 111.222353 
C 94.877716 110.426149 93.797681 109.978784 92.671678 109.978784 
C 91.545676 109.978784 90.465641 110.426149 89.669437 111.222353 
C 88.873233 112.018557 88.425868 113.098592 88.425868 114.224595 
C 88.425868 115.350597 88.873233 116.430632 89.669437 117.226836 
C 90.465641 118.02304 91.545676 118.470405 92.671678 118.470405 
z
" clip-path="url(#p613ef729e5)" style="fill: #d6d3c8; stroke: #ffffff; stroke-width: 0.45; stroke-linejoin: miter"/>
   </g>
   <g id="patch_43">
    <path d="M 120.708546 170.102867 
C 121.774841 170.102867 122.797606 169.679223 123.55159 168.925239 
C 124.305575 168.171255 124.729218 167.148489 124.729218 166.082195 
C 124.729218 165.0159 124.305575 163.993135 123.55159 163.239151 
C 122.797606 162.485166 121.774841 162.061523 120.708546 162.061523 
C 119.642252 162.061523 118.619486 162.485166 117.865502 163.239151 
C 117.111518 163.993135 116.687874 165.0159 116.687874 166.082195 
C 116.687874 167.148489 117.111518 168.171255 117.865502 168.925239 
C 118.619486 169.679223 119.642252 170.102867 120.708546 170.102867 
z
" clip-path="url(#p613ef729e5)" style="fill: #d6d3c8; stroke: #ffffff; stroke-width: 0.45; stroke-linejoin: miter"/>
   </g>
   <g id="patch_44">
    <path d="M 42.053544 130.660802 
C 43.045609 130.660802 43.997174 130.26665 44.698669 129.565155 
C 45.400164 128.86366 45.794315 127.912095 45.794315 126.920031 
C 45.794315 125.927967 45.400164 124.976401 44.698669 124.274906 
C 43.997174 123.573411 43.045609 123.17926 42.053544 123.17926 
C 41.06148 123.17926 40.109915 123.573411 39.40842 124.274906 
C 38.706925 124.976401 38.312774 125.927967 38.312774 126.920031 
C 38.312774 127.912095 38.706925 128.86366 39.40842 129.565155 
C 40.109915 130.26665 41.06148 130.660802 42.053544 130.660802 
z
" clip-path="url(#p613ef729e5)" style="fill: #d6d3c8; stroke: #ffffff; stroke-width: 0.45; stroke-linejoin: miter"/>
   </g>
   <g id="patch_45">
    <path d="M 55.27416 168.202376 
C 56.228314 168.202376 57.143517 167.823287 57.818206 167.148598 
C 58.492895 166.473909 58.871985 165.558706 58.871985 164.604551 
C 58.871985 163.650397 58.492895 162.735194 57.818206 162.060505 
C 57.143517 161.385816 56.228314 161.006726 55.27416 161.006726 
C 54.320005 161.006726 53.404802 161.385816 52.730113 162.060505 
C 52.055424 162.735194 51.676334 163.650397 51.676334 164.604551 
C 51.676334 165.558706 52.055424 166.473909 52.730113 167.148598 
C 53.404802 167.823287 54.320005 168.202376 55.27416 168.202376 
z
" clip-path="url(#p613ef729e5)" style="fill: #d6d3c8; stroke: #ffffff; stroke-width: 0.45; stroke-linejoin: miter"/>
   </g>
   <g id="patch_46">
    <path d="M 58.938816 89.71873 
C 60.006675 89.71873 61.030941 89.294465 61.786032 88.539374 
C 62.541122 87.784284 62.965387 86.760018 62.965387 85.692159 
C 62.965387 84.6243 62.541122 83.600034 61.786032 82.844944 
C 61.030941 82.089854 60.006675 81.665589 58.938816 81.665589 
C 57.870957 81.665589 56.846691 82.089854 56.091601 82.844944 
C 55.336511 83.600034 54.912246 84.6243 54.912246 85.692159 
C 54.912246 86.760018 55.336511 87.784284 56.091601 88.539374 
C 56.846691 89.294465 57.870957 89.71873 58.938816 89.71873 
z
" clip-path="url(#p613ef729e5)" style="fill: #d6d3c8; stroke: #ffffff; stroke-width: 0.45; stroke-linejoin: miter"/>
   </g>
   <g id="patch_47">
    <path d="M 81.654667 121.662322 
C 82.719622 121.662322 83.741102 121.23921 84.494139 120.486173 
C 85.247176 119.733137 85.670288 118.711656 85.670288 117.646701 
C 85.670288 116.581746 85.247176 115.560265 84.494139 114.807228 
C 83.741102 114.054191 82.719622 113.63108 81.654667 113.63108 
C 80.589712 113.63108 79.568231 114.054191 78.815194 114.807228 
C 78.062157 115.560265 77.639046 116.581746 77.639046 117.646701 
C 77.639046 118.711656 78.062157 119.733137 78.815194 120.486173 
C 79.568231 121.23921 80.589712 121.662322 81.654667 121.662322 
z
" clip-path="url(#p613ef729e5)" style="fill: #d6d3c8; stroke: #ffffff; stroke-width: 0.45; stroke-linejoin: miter"/>
   </g>
   <g id="patch_48">
    <path d="M 161.35637 131.154517 
C 162.175086 131.154517 162.960379 130.829237 163.539299 130.250318 
C 164.118218 129.671398 164.443497 128.886105 164.443497 128.067389 
C 164.443497 127.248673 164.118218 126.46338 163.539299 125.88446 
C 162.960379 125.305541 162.175086 124.980262 161.35637 124.980262 
C 160.537654 124.980262 159.752361 125.305541 159.173441 125.88446 
C 158.594522 126.46338 158.269242 127.248673 158.269242 128.067389 
C 158.269242 128.886105 158.594522 129.671398 159.173441 130.250318 
C 159.752361 130.829237 160.537654 131.154517 161.35637 131.154517 
z
" clip-path="url(#p613ef729e5)" style="fill: #d6d3c8; stroke: #ffffff; stroke-width: 0.45; stroke-linejoin: miter"/>
   </g>
   <g id="patch_49">
    <path d="M 47.885503 131.960113 
C 49.039413 131.960113 50.146218 131.501659 50.962156 130.685721 
C 51.778094 129.869783 52.236548 128.762978 52.236548 127.609068 
C 52.236548 126.455157 51.778094 125.348352 50.962156 124.532414 
C 50.146218 123.716476 49.039413 123.258023 47.885503 123.258023 
C 46.731592 123.258023 45.624787 123.716476 44.808849 124.532414 
C 43.992911 125.348352 43.534458 126.455157 43.534458 127.609068 
C 43.534458 128.762978 43.992911 129.869783 44.808849 130.685721 
C 45.624787 131.501659 46.731592 131.960113 47.885503 131.960113 
z
" clip-path="url(#p613ef729e5)" style="fill: #d6d3c8; stroke: #ffffff; stroke-width: 0.45; stroke-linejoin: miter"/>
   </g>
   <g id="patch_50">
    <path d="M 157.963854 123.325603 
C 158.988955 123.325603 159.972209 122.918326 160.697065 122.19347 
C 161.421921 121.468614 161.829198 120.48536 161.829198 119.460259 
C 161.829198 118.435158 161.421921 117.451904 160.697065 116.727048 
C 159.972209 116.002192 158.988955 115.594915 157.963854 115.594915 
C 156.938753 115.594915 155.955499 116.002192 155.230643 116.727048 
C 154.505787 117.451904 154.09851 118.435158 154.09851 119.460259 
C 154.09851 120.48536 154.505787 121.468614 155.230643 122.19347 
C 155.955499 122.918326 156.938753 123.325603 157.963854 123.325603 
z
" clip-path="url(#p613ef729e5)" style="fill: #d6d3c8; stroke: #ffffff; stroke-width: 0.45; stroke-linejoin: miter"/>
   </g>
   <g id="patch_51">
    <path d="M 71.272485 146.34798 
C 72.289992 146.34798 73.265961 145.943721 73.985447 145.224235 
C 74.704933 144.504749 75.109193 143.528779 75.109193 142.511273 
C 75.109193 141.493766 74.704933 140.517797 73.985447 139.798311 
C 73.265961 139.078825 72.289992 138.674565 71.272485 138.674565 
C 70.254979 138.674565 69.279009 139.078825 68.559524 139.798311 
C 67.840038 140.517797 67.435778 141.493766 67.435778 142.511273 
C 67.435778 143.528779 67.840038 144.504749 68.559524 145.224235 
C 69.279009 145.943721 70.254979 146.34798 71.272485 146.34798 
z
" clip-path="url(#p613ef729e5)" style="fill: #d6d3c8; stroke: #ffffff; stroke-width: 0.45; stroke-linejoin: miter"/>
   </g>
   <g id="patch_52">
    <path d="M 93.507076 176.107046 
C 94.545395 176.107046 95.541326 175.694517 96.275528 174.960315 
C 97.00973 174.226113 97.422259 173.230182 97.422259 172.191863 
C 97.422259 171.153545 97.00973 170.157613 96.275528 169.423411 
C 95.541326 168.689209 94.545395 168.276681 93.507076 168.276681 
C 92.468758 168.276681 91.472826 168.689209 90.738624 169.423411 
C 90.004422 170.157613 89.591894 171.153545 89.591894 172.191863 
C 89.591894 173.230182 90.004422 174.226113 90.738624 174.960315 
C 91.472826 175.694517 92.468758 176.107046 93.507076 176.107046 
z
" clip-path="url(#p613ef729e5)" style="fill: #d6d3c8; stroke: #ffffff; stroke-width: 0.45; stroke-linejoin: miter"/>
   </g>
   <g id="patch_53">
    <path d="M 152.138163 164.879165 
C 153.311286 164.879165 154.436519 164.413078 155.266042 163.583555 
C 156.095565 162.754032 156.561652 161.628799 156.561652 160.455676 
C 156.561652 159.282553 156.095565 158.15732 155.266042 157.327797 
C 154.436519 156.498274 153.311286 156.032187 152.138163 156.032187 
C 150.96504 156.032187 149.839807 156.498274 149.010284 157.327797 
C 148.180761 158.15732 147.714674 159.282553 147.714674 160.455676 
C 147.714674 161.628799 148.180761 162.754032 149.010284 163.583555 
C 149.839807 164.413078 150.96504 164.879165 152.138163 164.879165 
z
" clip-path="url(#p613ef729e5)" style="fill: #d6d3c8; stroke: #ffffff; stroke-width: 0.45; stroke-linejoin: miter"/>
   </g>
   <g id="patch_54">
    <path d="M 50.90205 113.823878 
C 51.955085 113.823878 52.965132 113.405503 53.70974 112.660895 
C 54.454348 111.916287 54.872723 110.90624 54.872723 109.853205 
C 54.872723 108.800171 54.454348 107.790124 53.70974 107.045516 
C 52.965132 106.300908 51.955085 105.882533 50.90205 105.882533 
C 49.849015 105.882533 48.838968 106.300908 48.09436 107.045516 
C 47.349752 107.790124 46.931377 108.800171 46.931377 109.853205 
C 46.931377 110.90624 47.349752 111.916287 48.09436 112.660895 
C 48.838968 113.405503 49.849015 113.823878 50.90205 113.823878 
z
" clip-path="url(#p613ef729e5)" style="fill: #d6d3c8; stroke: #ffffff; stroke-width: 0.45; stroke-linejoin: miter"/>
   </g>
   <g id="patch_55">
    <path d="M 122.103463 107.922437 
C 123.036169 107.922437 123.930799 107.551869 124.590321 106.892347 
C 125.249843 106.232825 125.620411 105.338195 125.620411 104.405489 
C 125.620411 103.472784 125.249843 102.578154 124.590321 101.918631 
C 123.930799 101.259109 123.036169 100.888541 122.103463 100.888541 
C 121.170758 100.888541 120.276128 101.259109 119.616605 101.918631 
C 118.957083 102.578154 118.586515 103.472784 118.586515 104.405489 
C 118.586515 105.338195 118.957083 106.232825 119.616605 106.892347 
C 120.276128 107.551869 121.170758 107.922437 122.103463 107.922437 
z
" clip-path="url(#p613ef729e5)" style="fill: #d6d3c8; stroke: #ffffff; stroke-width: 0.45; stroke-linejoin: miter"/>
   </g>
   <g id="patch_56">
    <path d="M 51.074392 91.141179 
C 52.222089 91.141179 53.322934 90.685195 54.134478 89.873651 
C 54.946022 89.062106 55.402007 87.961262 55.402007 86.813565 
C 55.402007 85.665868 54.946022 84.565024 54.134478 83.753479 
C 53.322934 82.941935 52.222089 82.48595 51.074392 82.48595 
C 49.926696 82.48595 48.825851 82.941935 48.014307 83.753479 
C 47.202763 84.565024 46.746778 85.665868 46.746778 86.813565 
C 46.746778 87.961262 47.202763 89.062106 48.014307 89.873651 
C 48.825851 90.685195 49.926696 91.141179 51.074392 91.141179 
z
" clip-path="url(#p613ef729e5)" style="fill: #d6d3c8; stroke: #ffffff; stroke-width: 0.45; stroke-linejoin: miter"/>
   </g>
   <g id="patch_57">
    <path d="M 41.224041 124.4639 
C 42.134242 124.4639 43.007287 124.102273 43.650896 123.458664 
C 44.294506 122.815054 44.656133 121.94201 44.656133 121.031808 
C 44.656133 120.121607 44.294506 119.248562 43.650896 118.604953 
C 43.007287 117.961343 42.134242 117.599716 41.224041 117.599716 
C 40.31384 117.599716 39.440795 117.961343 38.797186 118.604953 
C 38.153576 119.248562 37.791949 120.121607 37.791949 121.031808 
C 37.791949 121.94201 38.153576 122.815054 38.797186 123.458664 
C 39.440795 124.102273 40.31384 124.4639 41.224041 124.4639 
z
" clip-path="url(#p613ef729e5)" style="fill: #d6d3c8; stroke: #ffffff; stroke-width: 0.45; stroke-linejoin: miter"/>
   </g>
   <g id="patch_58">
    <path d="M 144.136256 100.310997 
C 145.108522 100.310997 146.041097 99.924712 146.728593 99.237216 
C 147.416089 98.54972 147.802374 97.617145 147.802374 96.644879 
C 147.802374 95.672613 147.416089 94.740038 146.728593 94.052542 
C 146.041097 93.365047 145.108522 92.978761 144.136256 92.978761 
C 143.16399 92.978761 142.231415 93.365047 141.543919 94.052542 
C 140.856423 94.740038 140.470138 95.672613 140.470138 96.644879 
C 140.470138 97.617145 140.856423 98.54972 141.543919 99.237216 
C 142.231415 99.924712 143.16399 100.310997 144.136256 100.310997 
z
" clip-path="url(#p613ef729e5)" style="fill: #d6d3c8; stroke: #ffffff; stroke-width: 0.45; stroke-linejoin: miter"/>
   </g>
   <g id="patch_59">
    <path d="M 160.172855 150.099165 
C 161.121397 150.099165 162.031218 149.722305 162.701939 149.051584 
C 163.37266 148.380863 163.74952 147.471042 163.74952 146.522499 
C 163.74952 145.573957 163.37266 144.664136 162.701939 143.993415 
C 162.031218 143.322694 161.121397 142.945834 160.172855 142.945834 
C 159.224312 142.945834 158.314491 143.322694 157.64377 143.993415 
C 156.973049 144.664136 156.596189 145.573957 156.596189 146.522499 
C 156.596189 147.471042 156.973049 148.380863 157.64377 149.051584 
C 158.314491 149.722305 159.224312 150.099165 160.172855 150.099165 
z
" clip-path="url(#p613ef729e5)" style="fill: #d6d3c8; stroke: #ffffff; stroke-width: 0.45; stroke-linejoin: miter"/>
   </g>
   <g id="patch_60">
    <path d="M 69.882965 88.448221 
C 70.918806 88.448221 71.912362 88.036676 72.644813 87.304226 
C 73.377263 86.571775 73.788808 85.578219 73.788808 84.542378 
C 73.788808 83.506536 73.377263 82.51298 72.644813 81.78053 
C 71.912362 81.048079 70.918806 80.636535 69.882965 80.636535 
C 68.847123 80.636535 67.853567 81.048079 67.121116 81.78053 
C 66.388666 82.51298 65.977121 83.506536 65.977121 84.542378 
C 65.977121 85.578219 66.388666 86.571775 67.121116 87.304226 
C 67.853567 88.036676 68.847123 88.448221 69.882965 88.448221 
z
" clip-path="url(#p613ef729e5)" style="fill: #d6d3c8; stroke: #ffffff; stroke-width: 0.45; stroke-linejoin: miter"/>
   </g>
   <g id="patch_61">
    <path d="M 42.100018 135.962303 
C 42.981282 135.962303 43.82657 135.612174 44.449717 134.989026 
C 45.072864 134.365879 45.422994 133.520591 45.422994 132.639328 
C 45.422994 131.758064 45.072864 130.912776 44.449717 130.289629 
C 43.82657 129.666482 42.981282 129.316352 42.100018 129.316352 
C 41.218755 129.316352 40.373467 129.666482 39.75032 130.289629 
C 39.127172 130.912776 38.777043 131.758064 38.777043 132.639328 
C 38.777043 133.520591 39.127172 134.365879 39.75032 134.989026 
C 40.373467 135.612174 41.218755 135.962303 42.100018 135.962303 
z
" clip-path="url(#p613ef729e5)" style="fill: #d6d3c8; stroke: #ffffff; stroke-width: 0.45; stroke-linejoin: miter"/>
   </g>
   <g id="patch_62">
    <path d="M 151.347485 107.604605 
C 152.593865 107.604605 153.789365 107.109413 154.670688 106.228089 
C 155.552012 105.346766 156.047204 104.151266 156.047204 102.904886 
C 156.047204 101.658506 155.552012 100.463007 154.670688 99.581683 
C 153.789365 98.700359 152.593865 98.205167 151.347485 98.205167 
C 150.101105 98.205167 148.905606 98.700359 148.024282 99.581683 
C 147.142958 100.463007 146.647766 101.658506 146.647766 102.904886 
C 146.647766 104.151266 147.142958 105.346766 148.024282 106.228089 
C 148.905606 107.109413 150.101105 107.604605 151.347485 107.604605 
z
" clip-path="url(#p613ef729e5)" style="fill: #d6d3c8; stroke: #ffffff; stroke-width: 0.45; stroke-linejoin: miter"/>
   </g>
   <g id="patch_63">
    <path d="M 151.706094 129.088553 
C 152.907668 129.088553 154.060189 128.611163 154.90983 127.761522 
C 155.75947 126.911881 156.236861 125.75936 156.236861 124.557787 
C 156.236861 123.356213 155.75947 122.203692 154.90983 121.354051 
C 154.060189 120.504411 152.907668 120.027021 151.706094 120.027021 
C 150.504521 120.027021 149.352 120.504411 148.502359 121.354051 
C 147.652718 122.203692 147.175328 123.356213 147.175328 124.557787 
C 147.175328 125.75936 147.652718 126.911881 148.502359 127.761522 
C 149.352 128.611163 150.504521 129.088553 151.706094 129.088553 
z
" clip-path="url(#p613ef729e5)" style="fill: #d6d3c8; stroke: #ffffff; stroke-width: 0.45; stroke-linejoin: miter"/>
   </g>
   <g id="patch_64">
    <path d="M 136.697812 114.312543 
C 137.645821 114.312543 138.55513 113.935895 139.225473 113.265552 
C 139.895817 112.595208 140.272465 111.685899 140.272465 110.73789 
C 140.272465 109.789881 139.895817 108.880572 139.225473 108.210229 
C 138.55513 107.539885 137.645821 107.163237 136.697812 107.163237 
C 135.749803 107.163237 134.840494 107.539885 134.17015 108.210229 
C 133.499807 108.880572 133.123159 109.789881 133.123159 110.73789 
C 133.123159 111.685899 133.499807 112.595208 134.17015 113.265552 
C 134.840494 113.935895 135.749803 114.312543 136.697812 114.312543 
z
" clip-path="url(#p613ef729e5)" style="fill: #d6d3c8; stroke: #ffffff; stroke-width: 0.45; stroke-linejoin: miter"/>
   </g>
   <g id="patch_65">
    <path d="M 48.838719 106.239063 
C 49.812192 106.239063 50.745924 105.852298 51.434273 105.163949 
C 52.122622 104.4756 52.509387 103.541868 52.509387 102.568395 
C 52.509387 101.594923 52.122622 100.66119 51.434273 99.972841 
C 50.745924 99.284492 49.812192 98.897728 48.838719 98.897728 
C 47.865247 98.897728 46.931514 99.284492 46.243165 99.972841 
C 45.554816 100.66119 45.168052 101.594923 45.168052 102.568395 
C 45.168052 103.541868 45.554816 104.4756 46.243165 105.163949 
C 46.931514 105.852298 47.865247 106.239063 48.838719 106.239063 
z
" clip-path="url(#p613ef729e5)" style="fill: #d6d3c8; stroke: #ffffff; stroke-width: 0.45; stroke-linejoin: miter"/>
   </g>
   <g id="patch_66">
    <path d="M 158.164575 154.87622 
C 159.088999 154.87622 159.975687 154.508942 160.629354 153.855275 
C 161.283021 153.201608 161.650299 152.31492 161.650299 151.390495 
C 161.650299 150.466071 161.283021 149.579383 160.629354 148.925716 
C 159.975687 148.272049 159.088999 147.904771 158.164575 147.904771 
C 157.24015 147.904771 156.353462 148.272049 155.699795 148.925716 
C 155.046128 149.579383 154.67885 150.466071 154.67885 151.390495 
C 154.67885 152.31492 155.046128 153.201608 155.699795 153.855275 
C 156.353462 154.508942 157.24015 154.87622 158.164575 154.87622 
z
" clip-path="url(#p613ef729e5)" style="fill: #d6d3c8; stroke: #ffffff; stroke-width: 0.45; stroke-linejoin: miter"/>
   </g>
   <g id="patch_67">
    <path d="M 144.581045 163.284367 
C 145.443849 163.284367 146.271431 162.941572 146.881526 162.331477 
C 147.49162 161.721382 147.834416 160.8938 147.834416 160.030996 
C 147.834416 159.168192 147.49162 158.34061 146.881526 157.730516 
C 146.271431 157.120421 145.443849 156.777625 144.581045 156.777625 
C 143.718241 156.777625 142.890659 157.120421 142.280564 157.730516 
C 141.67047 158.34061 141.327674 159.168192 141.327674 160.030996 
C 141.327674 160.8938 141.67047 161.721382 142.280564 162.331477 
C 142.890659 162.941572 143.718241 163.284367 144.581045 163.284367 
z
" clip-path="url(#p613ef729e5)" style="fill: #d6d3c8; stroke: #ffffff; stroke-width: 0.45; stroke-linejoin: miter"/>
   </g>
   <g id="patch_68">
    <path d="M 114.337822 93.365051 
C 115.225552 93.365051 116.077042 93.012352 116.704762 92.384632 
C 117.332482 91.756912 117.685181 90.905422 117.685181 90.017692 
C 117.685181 89.129962 117.332482 88.278471 116.704762 87.650751 
C 116.077042 87.023032 115.225552 86.670333 114.337822 86.670333 
C 113.450092 86.670333 112.598601 87.023032 111.970881 87.650751 
C 111.343161 88.278471 110.990463 89.129962 110.990463 90.017692 
C 110.990463 90.905422 111.343161 91.756912 111.970881 92.384632 
C 112.598601 93.012352 113.450092 93.365051 114.337822 93.365051 
z
" clip-path="url(#p613ef729e5)" style="fill: #d6d3c8; stroke: #ffffff; stroke-width: 0.45; stroke-linejoin: miter"/>
   </g>
   <g id="patch_69">
    <path d="M 76.700991 102.831561 
C 77.596293 102.831561 78.455046 102.475854 79.08812 101.84278 
C 79.721194 101.209706 80.076901 100.350953 80.076901 99.455651 
C 80.076901 98.560349 79.721194 97.701596 79.08812 97.068522 
C 78.455046 96.435448 77.596293 96.079741 76.700991 96.079741 
C 75.805689 96.079741 74.946936 96.435448 74.313862 97.068522 
C 73.680788 97.701596 73.325081 98.560349 73.325081 99.455651 
C 73.325081 100.350953 73.680788 101.209706 74.313862 101.84278 
C 74.946936 102.475854 75.805689 102.831561 76.700991 102.831561 
z
" clip-path="url(#p613ef729e5)" style="fill: #d6d3c8; stroke: #ffffff; stroke-width: 0.45; stroke-linejoin: miter"/>
   </g>
   <g id="patch_70">
    <path d="M 101.48858 164.602863 
C 102.725896 164.602863 103.912701 164.111272 104.787616 163.236357 
C 105.66253 162.361442 106.154121 161.174637 106.154121 159.937321 
C 106.154121 158.700005 105.66253 157.513199 104.787616 156.638285 
C 103.912701 155.76337 102.725896 155.271779 101.48858 155.271779 
C 100.251263 155.271779 99.064458 155.76337 98.189543 156.638285 
C 97.314629 157.513199 96.823038 158.700005 96.823038 159.937321 
C 96.823038 161.174637 97.314629 162.361442 98.189543 163.236357 
C 99.064458 164.111272 100.251263 164.602863 101.48858 164.602863 
z
" clip-path="url(#p613ef729e5)" style="fill: #d6d3c8; stroke: #ffffff; stroke-width: 0.45; stroke-linejoin: miter"/>
   </g>
   <g id="patch_71">
    <path d="M 66.03516 165.322037 
C 66.849964 165.322037 67.631506 164.998312 68.20766 164.422158 
C 68.783814 163.846005 69.107539 163.064463 69.107539 162.249658 
C 69.107539 161.434854 68.783814 160.653312 68.20766 160.077158 
C 67.631506 159.501005 66.849964 159.177279 66.03516 159.177279 
C 65.220356 159.177279 64.438814 159.501005 63.86266 160.077158 
C 63.286506 160.653312 62.962781 161.434854 62.962781 162.249658 
C 62.962781 163.064463 63.286506 163.846005 63.86266 164.422158 
C 64.438814 164.998312 65.220356 165.322037 66.03516 165.322037 
z
" clip-path="url(#p613ef729e5)" style="fill: #d6d3c8; stroke: #ffffff; stroke-width: 0.45; stroke-linejoin: miter"/>
   </g>
   <g id="patch_72">
    <path d="M 52.767621 129.914911 
C 53.875184 129.914911 54.937533 129.474872 55.720699 128.691707 
C 56.503864 127.908541 56.943903 126.846192 56.943903 125.738629 
C 56.943903 124.631067 56.503864 123.568717 55.720699 122.785552 
C 54.937533 122.002387 53.875184 121.562348 52.767621 121.562348 
C 51.660059 121.562348 50.597709 122.002387 49.814544 122.785552 
C 49.031379 123.568717 48.59134 124.631067 48.59134 125.738629 
C 48.59134 126.846192 49.031379 127.908541 49.814544 128.691707 
C 50.597709 129.474872 51.660059 129.914911 52.767621 129.914911 
z
" clip-path="url(#p613ef729e5)" style="fill: #d6d3c8; stroke: #ffffff; stroke-width: 0.45; stroke-linejoin: miter"/>
   </g>
   <g id="patch_73">
    <path d="M 111.819837 159.146771 
C 112.934724 159.146771 114.004098 158.703822 114.792441 157.915478 
C 115.580785 157.127135 116.023734 156.057761 116.023734 154.942874 
C 116.023734 153.827988 115.580785 152.758614 114.792441 151.97027 
C 114.004098 151.181926 112.934724 150.738977 111.819837 150.738977 
C 110.704951 150.738977 109.635577 151.181926 108.847233 151.97027 
C 108.058889 152.758614 107.61594 153.827988 107.61594 154.942874 
C 107.61594 156.057761 108.058889 157.127135 108.847233 157.915478 
C 109.635577 158.703822 110.704951 159.146771 111.819837 159.146771 
z
" clip-path="url(#p613ef729e5)" style="fill: #d6d3c8; stroke: #ffffff; stroke-width: 0.45; stroke-linejoin: miter"/>
   </g>
   <g id="patch_74">
    <path d="M 129.001345 108.049143 
C 130.16469 108.049143 131.280544 107.586941 132.103153 106.764332 
C 132.925763 105.941723 133.387965 104.825868 133.387965 103.662523 
C 133.387965 102.499178 132.925763 101.383324 132.103153 100.560714 
C 131.280544 99.738105 130.16469 99.275903 129.001345 99.275903 
C 127.837999 99.275903 126.722145 99.738105 125.899536 100.560714 
C 125.076927 101.383324 124.614725 102.499178 124.614725 103.662523 
C 124.614725 104.825868 125.076927 105.941723 125.899536 106.764332 
C 126.722145 107.586941 127.837999 108.049143 129.001345 108.049143 
z
" clip-path="url(#p613ef729e5)" style="fill: #d6d3c8; stroke: #ffffff; stroke-width: 0.45; stroke-linejoin: miter"/>
   </g>
   <g id="patch_75">
    <path d="M 15.7392 128.8368 
Q 23.2236 128.8368 28.695539 128.8368 
" clip-path="url(#p613ef729e5)" style="fill: none; stroke: #2d6fb8; stroke-width: 1.8; stroke-linecap: round"/>
    <path d="M 21.495539 125.2368 
L 28.695539 128.8368 
L 21.495539 132.4368 
z
" clip-path="url(#p613ef729e5)" style="fill: #2d6fb8; stroke: #2d6fb8; stroke-width: 1.8; stroke-linecap: round"/>
   </g>
   <g id="patch_76">
    <path d="M 172.08 128.8368 
Q 179.8416 128.8368 185.590739 128.8368 
" clip-path="url(#p613ef729e5)" style="fill: none; stroke: #2d6fb8; stroke-width: 1.8; stroke-linecap: round"/>
    <path d="M 178.390739 125.2368 
L 185.590739 128.8368 
L 178.390739 132.4368 
z
" clip-path="url(#p613ef729e5)" style="fill: #2d6fb8; stroke: #2d6fb8; stroke-width: 1.8; stroke-linecap: round"/>
   </g>
   <g id="patch_77">
    <path d="M 190.9296 127.728 
Q 202.2948 127.728 211.647539 127.728 
" clip-path="url(#p613ef729e5)" style="fill: none; stroke: #4a4a4a; stroke-width: 1.8; stroke-linecap: round"/>
    <path d="M 204.447539 124.128 
L 211.647539 127.728 
L 204.447539 131.328 
z
" clip-path="url(#p613ef729e5)" style="fill: #4a4a4a; stroke: #4a4a4a; stroke-width: 1.8; stroke-linecap: round"/>
   </g>
   <g id="patch_78">
    <path d="M 227.52 111.9276 
L 235.5588 111.9276 
L 235.5588 103.8888 
L 227.52 103.8888 
z
" clip-path="url(#p613ef729e5)" style="fill: #899596; stroke: #dadada; stroke-width: 0.65; stroke-linejoin: miter"/>
   </g>
   <g id="patch_79">
    <path d="M 235.5588 111.9276 
L 243.5976 111.9276 
L 243.5976 103.8888 
L 235.5588 103.8888 
z
" clip-path="url(#p613ef729e5)" style="fill: #ffffff; stroke: #dadada; stroke-width: 0.65; stroke-linejoin: miter"/>
   </g>
   <g id="patch_80">
    <path d="M 243.5976 111.9276 
L 251.6364 111.9276 
L 251.6364 103.8888 
L 243.5976 103.8888 
z
" clip-path="url(#p613ef729e5)" style="fill: #ffffff; stroke: #dadada; stroke-width: 0.65; stroke-linejoin: miter"/>
   </g>
   <g id="patch_81">
    <path d="M 251.6364 111.9276 
L 259.6752 111.9276 
L 259.6752 103.8888 
L 251.6364 103.8888 
z
" clip-path="url(#p613ef729e5)" style="fill: #899596; stroke: #dadada; stroke-width: 0.65; stroke-linejoin: miter"/>
   </g>
   <g id="patch_82">
    <path d="M 259.6752 111.9276 
L 267.714 111.9276 
L 267.714 103.8888 
L 259.6752 103.8888 
z
" clip-path="url(#p613ef729e5)" style="fill: #ffffff; stroke: #dadada; stroke-width: 0.65; stroke-linejoin: miter"/>
   </g>
   <g id="patch_83">
    <path d="M 267.714 111.9276 
L 275.7528 111.9276 
L 275.7528 103.8888 
L 267.714 103.8888 
z
" clip-path="url(#p613ef729e5)" style="fill: #ffffff; stroke: #dadada; stroke-width: 0.65; stroke-linejoin: miter"/>
   </g>
   <g id="patch_84">
    <path d="M 275.7528 111.9276 
L 283.7916 111.9276 
L 283.7916 103.8888 
L 275.7528 103.8888 
z
" clip-path="url(#p613ef729e5)" style="fill: #899596; stroke: #dadada; stroke-width: 0.65; stroke-linejoin: miter"/>
   </g>
   <g id="patch_85">
    <path d="M 283.7916 111.9276 
L 291.8304 111.9276 
L 291.8304 103.8888 
L 283.7916 103.8888 
z
" clip-path="url(#p613ef729e5)" style="fill: #ffffff; stroke: #dadada; stroke-width: 0.65; stroke-linejoin: miter"/>
   </g>
   <g id="patch_86">
    <path d="M 227.52 119.9664 
L 235.5588 119.9664 
L 235.5588 111.9276 
L 227.52 111.9276 
z
" clip-path="url(#p613ef729e5)" style="fill: #ffffff; stroke: #dadada; stroke-width: 0.65; stroke-linejoin: miter"/>
   </g>
   <g id="patch_87">
    <path d="M 235.5588 119.9664 
L 243.5976 119.9664 
L 243.5976 111.9276 
L 235.5588 111.9276 
z
" clip-path="url(#p613ef729e5)" style="fill: #ffffff; stroke: #dadada; stroke-width: 0.65; stroke-linejoin: miter"/>
   </g>
   <g id="patch_88">
    <path d="M 243.5976 119.9664 
L 251.6364 119.9664 
L 251.6364 111.9276 
L 243.5976 111.9276 
z
" clip-path="url(#p613ef729e5)" style="fill: #899596; stroke: #dadada; stroke-width: 0.65; stroke-linejoin: miter"/>
   </g>
   <g id="patch_89">
    <path d="M 251.6364 119.9664 
L 259.6752 119.9664 
L 259.6752 111.9276 
L 251.6364 111.9276 
z
" clip-path="url(#p613ef729e5)" style="fill: #ffffff; stroke: #dadada; stroke-width: 0.65; stroke-linejoin: miter"/>
   </g>
   <g id="patch_90">
    <path d="M 259.6752 119.9664 
L 267.714 119.9664 
L 267.714 111.9276 
L 259.6752 111.9276 
z
" clip-path="url(#p613ef729e5)" style="fill: #ffffff; stroke: #dadada; stroke-width: 0.65; stroke-linejoin: miter"/>
   </g>
   <g id="patch_91">
    <path d="M 267.714 119.9664 
L 275.7528 119.9664 
L 275.7528 111.9276 
L 267.714 111.9276 
z
" clip-path="url(#p613ef729e5)" style="fill: #899596; stroke: #dadada; stroke-width: 0.65; stroke-linejoin: miter"/>
   </g>
   <g id="patch_92">
    <path d="M 275.7528 119.9664 
L 283.7916 119.9664 
L 283.7916 111.9276 
L 275.7528 111.9276 
z
" clip-path="url(#p613ef729e5)" style="fill: #ffffff; stroke: #dadada; stroke-width: 0.65; stroke-linejoin: miter"/>
   </g>
   <g id="patch_93">
    <path d="M 283.7916 119.9664 
L 291.8304 119.9664 
L 291.8304 111.9276 
L 283.7916 111.9276 
z
" clip-path="url(#p613ef729e5)" style="fill: #ffffff; stroke: #dadada; stroke-width: 0.65; stroke-linejoin: miter"/>
   </g>
   <g id="patch_94">
    <path d="M 227.52 128.0052 
L 235.5588 128.0052 
L 235.5588 119.9664 
L 227.52 119.9664 
z
" clip-path="url(#p613ef729e5)" style="fill: #ffffff; stroke: #dadada; stroke-width: 0.65; stroke-linejoin: miter"/>
   </g>
   <g id="patch_95">
    <path d="M 235.5588 128.0052 
L 243.5976 128.0052 
L 243.5976 119.9664 
L 235.5588 119.9664 
z
" clip-path="url(#p613ef729e5)" style="fill: #899596; stroke: #dadada; stroke-width: 0.65; stroke-linejoin: miter"/>
   </g>
   <g id="patch_96">
    <path d="M 243.5976 128.0052 
L 251.6364 128.0052 
L 251.6364 119.9664 
L 243.5976 119.9664 
z
" clip-path="url(#p613ef729e5)" style="fill: #ffffff; stroke: #dadada; stroke-width: 0.65; stroke-linejoin: miter"/>
   </g>
   <g id="patch_97">
    <path d="M 251.6364 128.0052 
L 259.6752 128.0052 
L 259.6752 119.9664 
L 251.6364 119.9664 
z
" clip-path="url(#p613ef729e5)" style="fill: #ffffff; stroke: #dadada; stroke-width: 0.65; stroke-linejoin: miter"/>
   </g>
   <g id="patch_98">
    <path d="M 259.6752 128.0052 
L 267.714 128.0052 
L 267.714 119.9664 
L 259.6752 119.9664 
z
" clip-path="url(#p613ef729e5)" style="fill: #b33b35; stroke: #dadada; stroke-width: 0.65; stroke-linejoin: miter"/>
   </g>
   <g id="patch_99">
    <path d="M 267.714 128.0052 
L 275.7528 128.0052 
L 275.7528 119.9664 
L 267.714 119.9664 
z
" clip-path="url(#p613ef729e5)" style="fill: #ffffff; stroke: #dadada; stroke-width: 0.65; stroke-linejoin: miter"/>
   </g>
   <g id="patch_100">
    <path d="M 275.7528 128.0052 
L 283.7916 128.0052 
L 283.7916 119.9664 
L 275.7528 119.9664 
z
" clip-path="url(#p613ef729e5)" style="fill: #ffffff; stroke: #dadada; stroke-width: 0.65; stroke-linejoin: miter"/>
   </g>
   <g id="patch_101">
    <path d="M 283.7916 128.0052 
L 291.8304 128.0052 
L 291.8304 119.9664 
L 283.7916 119.9664 
z
" clip-path="url(#p613ef729e5)" style="fill: #899596; stroke: #dadada; stroke-width: 0.65; stroke-linejoin: miter"/>
   </g>
   <g id="patch_102">
    <path d="M 227.52 136.044 
L 235.5588 136.044 
L 235.5588 128.0052 
L 227.52 128.0052 
z
" clip-path="url(#p613ef729e5)" style="fill: #899596; stroke: #dadada; stroke-width: 0.65; stroke-linejoin: miter"/>
   </g>
   <g id="patch_103">
    <path d="M 235.5588 136.044 
L 243.5976 136.044 
L 243.5976 128.0052 
L 235.5588 128.0052 
z
" clip-path="url(#p613ef729e5)" style="fill: #ffffff; stroke: #dadada; stroke-width: 0.65; stroke-linejoin: miter"/>
   </g>
   <g id="patch_104">
    <path d="M 243.5976 136.044 
L 251.6364 136.044 
L 251.6364 128.0052 
L 243.5976 128.0052 
z
" clip-path="url(#p613ef729e5)" style="fill: #ffffff; stroke: #dadada; stroke-width: 0.65; stroke-linejoin: miter"/>
   </g>
   <g id="patch_105">
    <path d="M 251.6364 136.044 
L 259.6752 136.044 
L 259.6752 128.0052 
L 251.6364 128.0052 
z
" clip-path="url(#p613ef729e5)" style="fill: #899596; stroke: #dadada; stroke-width: 0.65; stroke-linejoin: miter"/>
   </g>
   <g id="patch_106">
    <path d="M 259.6752 136.044 
L 267.714 136.044 
L 267.714 128.0052 
L 259.6752 128.0052 
z
" clip-path="url(#p613ef729e5)" style="fill: #ffffff; stroke: #dadada; stroke-width: 0.65; stroke-linejoin: miter"/>
   </g>
   <g id="patch_107">
    <path d="M 267.714 136.044 
L 275.7528 136.044 
L 275.7528 128.0052 
L 267.714 128.0052 
z
" clip-path="url(#p613ef729e5)" style="fill: #ffffff; stroke: #dadada; stroke-width: 0.65; stroke-linejoin: miter"/>
   </g>
   <g id="patch_108">
    <path d="M 275.7528 136.044 
L 283.7916 136.044 
L 283.7916 128.0052 
L 275.7528 128.0052 
z
" clip-path="url(#p613ef729e5)" style="fill: #899596; stroke: #dadada; stroke-width: 0.65; stroke-linejoin: miter"/>
   </g>
   <g id="patch_109">
    <path d="M 283.7916 136.044 
L 291.8304 136.044 
L 291.8304 128.0052 
L 283.7916 128.0052 
z
" clip-path="url(#p613ef729e5)" style="fill: #ffffff; stroke: #dadada; stroke-width: 0.65; stroke-linejoin: miter"/>
   </g>
   <g id="patch_110">
    <path d="M 227.52 144.0828 
L 235.5588 144.0828 
L 235.5588 136.044 
L 227.52 136.044 
z
" clip-path="url(#p613ef729e5)" style="fill: #ffffff; stroke: #dadada; stroke-width: 0.65; stroke-linejoin: miter"/>
   </g>
   <g id="patch_111">
    <path d="M 235.5588 144.0828 
L 243.5976 144.0828 
L 243.5976 136.044 
L 235.5588 136.044 
z
" clip-path="url(#p613ef729e5)" style="fill: #ffffff; stroke: #dadada; stroke-width: 0.65; stroke-linejoin: miter"/>
   </g>
   <g id="patch_112">
    <path d="M 243.5976 144.0828 
L 251.6364 144.0828 
L 251.6364 136.044 
L 243.5976 136.044 
z
" clip-path="url(#p613ef729e5)" style="fill: #b33b35; stroke: #dadada; stroke-width: 0.65; stroke-linejoin: miter"/>
   </g>
   <g id="patch_113">
    <path d="M 251.6364 144.0828 
L 259.6752 144.0828 
L 259.6752 136.044 
L 251.6364 136.044 
z
" clip-path="url(#p613ef729e5)" style="fill: #ffffff; stroke: #dadada; stroke-width: 0.65; stroke-linejoin: miter"/>
   </g>
   <g id="patch_114">
    <path d="M 259.6752 144.0828 
L 267.714 144.0828 
L 267.714 136.044 
L 259.6752 136.044 
z
" clip-path="url(#p613ef729e5)" style="fill: #ffffff; stroke: #dadada; stroke-width: 0.65; stroke-linejoin: miter"/>
   </g>
   <g id="patch_115">
    <path d="M 267.714 144.0828 
L 275.7528 144.0828 
L 275.7528 136.044 
L 267.714 136.044 
z
" clip-path="url(#p613ef729e5)" style="fill: #899596; stroke: #dadada; stroke-width: 0.65; stroke-linejoin: miter"/>
   </g>
   <g id="patch_116">
    <path d="M 275.7528 144.0828 
L 283.7916 144.0828 
L 283.7916 136.044 
L 275.7528 136.044 
z
" clip-path="url(#p613ef729e5)" style="fill: #ffffff; stroke: #dadada; stroke-width: 0.65; stroke-linejoin: miter"/>
   </g>
   <g id="patch_117">
    <path d="M 283.7916 144.0828 
L 291.8304 144.0828 
L 291.8304 136.044 
L 283.7916 136.044 
z
" clip-path="url(#p613ef729e5)" style="fill: #ffffff; stroke: #dadada; stroke-width: 0.65; stroke-linejoin: miter"/>
   </g>
   <g id="patch_118">
    <path d="M 227.52 152.1216 
L 235.5588 152.1216 
L 235.5588 144.0828 
L 227.52 144.0828 
z
" clip-path="url(#p613ef729e5)" style="fill: #ffffff; stroke: #dadada; stroke-width: 0.65; stroke-linejoin: miter"/>
   </g>
   <g id="patch_119">
    <path d="M 235.5588 152.1216 
L 243.5976 152.1216 
L 243.5976 144.0828 
L 235.5588 144.0828 
z
" clip-path="url(#p613ef729e5)" style="fill: #899596; stroke: #dadada; stroke-width: 0.65; stroke-linejoin: miter"/>
   </g>
   <g id="patch_120">
    <path d="M 243.5976 152.1216 
L 251.6364 152.1216 
L 251.6364 144.0828 
L 243.5976 144.0828 
z
" clip-path="url(#p613ef729e5)" style="fill: #ffffff; stroke: #dadada; stroke-width: 0.65; stroke-linejoin: miter"/>
   </g>
   <g id="patch_121">
    <path d="M 251.6364 152.1216 
L 259.6752 152.1216 
L 259.6752 144.0828 
L 251.6364 144.0828 
z
" clip-path="url(#p613ef729e5)" style="fill: #ffffff; stroke: #dadada; stroke-width: 0.65; stroke-linejoin: miter"/>
   </g>
   <g id="patch_122">
    <path d="M 259.6752 152.1216 
L 267.714 152.1216 
L 267.714 144.0828 
L 259.6752 144.0828 
z
" clip-path="url(#p613ef729e5)" style="fill: #899596; stroke: #dadada; stroke-width: 0.65; stroke-linejoin: miter"/>
   </g>
   <g id="patch_123">
    <path d="M 267.714 152.1216 
L 275.7528 152.1216 
L 275.7528 144.0828 
L 267.714 144.0828 
z
" clip-path="url(#p613ef729e5)" style="fill: #ffffff; stroke: #dadada; stroke-width: 0.65; stroke-linejoin: miter"/>
   </g>
   <g id="patch_124">
    <path d="M 275.7528 152.1216 
L 283.7916 152.1216 
L 283.7916 144.0828 
L 275.7528 144.0828 
z
" clip-path="url(#p613ef729e5)" style="fill: #ffffff; stroke: #dadada; stroke-width: 0.65; stroke-linejoin: miter"/>
   </g>
   <g id="patch_125">
    <path d="M 283.7916 152.1216 
L 291.8304 152.1216 
L 291.8304 144.0828 
L 283.7916 144.0828 
z
" clip-path="url(#p613ef729e5)" style="fill: #899596; stroke: #dadada; stroke-width: 0.65; stroke-linejoin: miter"/>
   </g>
   <g id="patch_126">
    <path d="M 227.52 152.1216 
L 291.8304 152.1216 
L 291.8304 103.8888 
L 227.52 103.8888 
L 227.52 152.1216 
z
" clip-path="url(#p613ef729e5)" style="fill: none; stroke: #333333; stroke-width: 1.1; stroke-linejoin: miter"/>
   </g>
   <g id="patch_127">
    <path d="M 379.98 127.728 
Q 391.6224 127.728 401.252339 127.728 
" clip-path="url(#p613ef729e5)" style="fill: none; stroke: #4a4a4a; stroke-width: 1.8; stroke-linecap: round"/>
    <path d="M 394.052339 124.128 
L 401.252339 127.728 
L 394.052339 131.328 
z
" clip-path="url(#p613ef729e5)" style="fill: #4a4a4a; stroke: #4a4a4a; stroke-width: 1.8; stroke-linecap: round"/>
   </g>
   <g id="patch_128">
    <path d="M 409.3632 100.008 
L 535.7664 100.008 
L 535.7664 82.2672 
L 409.3632 82.2672 
z
" clip-path="url(#p613ef729e5)" style="fill: #edf4fb; stroke: #b7b7b7; stroke-width: 0.8; stroke-linejoin: miter"/>
   </g>
   <g id="patch_129">
    <path d="M 420.4512 94.1868 
C 421.259857 94.1868 422.035503 93.865517 422.60731 93.29371 
C 423.179117 92.721903 423.5004 91.946257 423.5004 91.1376 
C 423.5004 90.328943 423.179117 89.553297 422.60731 88.98149 
C 422.035503 88.409683 421.259857 88.0884 420.4512 88.0884 
C 419.642543 88.0884 418.866897 88.409683 418.29509 88.98149 
C 417.723283 89.553297 417.402 90.328943 417.402 91.1376 
C 417.402 91.946257 417.723283 92.721903 418.29509 93.29371 
C 418.866897 93.865517 419.642543 94.1868 420.4512 94.1868 
z
" clip-path="url(#p613ef729e5)" style="fill: #2d6fb8; stroke: #ffffff; stroke-width: 0.35; stroke-linejoin: miter"/>
   </g>
   <g id="patch_130">
    <path d="M 409.3632 121.6296 
L 535.7664 121.6296 
L 535.7664 103.8888 
L 409.3632 103.8888 
z
" clip-path="url(#p613ef729e5)" style="fill: #fff3e8; stroke: #b7b7b7; stroke-width: 0.8; stroke-linejoin: miter"/>
   </g>
   <g id="patch_131">
    <path d="M 420.4512 115.8084 
C 421.259857 115.8084 422.035503 115.487117 422.60731 114.91531 
C 423.179117 114.343503 423.5004 113.567857 423.5004 112.7592 
C 423.5004 111.950543 423.179117 111.174897 422.60731 110.60309 
C 422.035503 110.031283 421.259857 109.71 420.4512 109.71 
C 419.642543 109.71 418.866897 110.031283 418.29509 110.60309 
C 417.723283 111.174897 417.402 111.950543 417.402 112.7592 
C 417.402 113.567857 417.723283 114.343503 418.29509 114.91531 
C 418.866897 115.487117 419.642543 115.8084 420.4512 115.8084 
z
" clip-path="url(#p613ef729e5)" style="fill: #c7772e; stroke: #ffffff; stroke-width: 0.35; stroke-linejoin: miter"/>
   </g>
   <g id="patch_132">
    <path d="M 409.3632 143.2512 
L 535.7664 143.2512 
L 535.7664 125.5104 
L 409.3632 125.5104 
z
" clip-path="url(#p613ef729e5)" style="fill: #eef7ef; stroke: #b7b7b7; stroke-width: 0.8; stroke-linejoin: miter"/>
   </g>
   <g id="patch_133">
    <path d="M 420.4512 137.43 
C 421.259857 137.43 422.035503 137.108717 422.60731 136.53691 
C 423.179117 135.965103 423.5004 135.189457 423.5004 134.3808 
C 423.5004 133.572143 423.179117 132.796497 422.60731 132.22469 
C 422.035503 131.652883 421.259857 131.3316 420.4512 131.3316 
C 419.642543 131.3316 418.866897 131.652883 418.29509 132.22469 
C 417.723283 132.796497 417.402 133.572143 417.402 134.3808 
C 417.402 135.189457 417.723283 135.965103 418.29509 136.53691 
C 418.866897 137.108717 419.642543 137.43 420.4512 137.43 
z
" clip-path="url(#p613ef729e5)" style="fill: #1d7f43; stroke: #ffffff; stroke-width: 0.35; stroke-linejoin: miter"/>
   </g>
   <g id="patch_134">
    <path d="M 409.3632 164.8728 
L 535.7664 164.8728 
L 535.7664 147.132 
L 409.3632 147.132 
z
" clip-path="url(#p613ef729e5)" style="fill: #f7eeee; stroke: #b7b7b7; stroke-width: 0.8; stroke-linejoin: miter"/>
   </g>
   <g id="patch_135">
    <path d="M 420.4512 159.0516 
C 421.259857 159.0516 422.035503 158.730317 422.60731 158.15851 
C 423.179117 157.586703 423.5004 156.811057 423.5004 156.0024 
C 423.5004 155.193743 423.179117 154.418097 422.60731 153.84629 
C 422.035503 153.274483 421.259857 152.9532 420.4512 152.9532 
C 419.642543 152.9532 418.866897 153.274483 418.29509 153.84629 
C 417.723283 154.418097 417.402 155.193743 417.402 156.0024 
C 417.402 156.811057 417.723283 157.586703 418.29509 158.15851 
C 418.866897 158.730317 419.642543 159.0516 420.4512 159.0516 
z
" clip-path="url(#p613ef729e5)" style="fill: #9a2d2d; stroke: #ffffff; stroke-width: 0.35; stroke-linejoin: miter"/>
   </g>
   <g id="line2d_1">
    <path d="M 45.6768 160.992 
L 63.972 148.7952 
L 81.1584 152.1216 
L 100.008 132.1632 
L 119.412 125.5104 
L 137.7072 113.868 
L 156.5568 102.2256 
" clip-path="url(#p613ef729e5)" style="fill: none; stroke: #b33b35; stroke-width: 2.2; stroke-linecap: round"/>
   </g>
   <g id="line2d_2">
    <path d="M 321.768 134.3808 
L 339.5088 111.096 
" clip-path="url(#p613ef729e5)" style="fill: none; stroke: #2c748a; stroke-width: 1.8; stroke-linecap: square"/>
   </g>
   <g id="line2d_3">
    <path d="M 339.5088 111.096 
L 358.3584 133.272 
" clip-path="url(#p613ef729e5)" style="fill: none; stroke: #2c748a; stroke-width: 1.8; stroke-linecap: square"/>
   </g>
   <g id="line2d_4">
    <path d="M 339.5088 111.096 
L 366.12 106.6608 
" clip-path="url(#p613ef729e5)" style="fill: none; stroke: #2c748a; stroke-width: 1.8; stroke-linecap: square"/>
   </g>
   <g id="line2d_5">
    <path d="M 321.768 134.3808 
L 333.9648 156.5568 
" clip-path="url(#p613ef729e5)" style="fill: none; stroke: #2c748a; stroke-width: 1.8; stroke-linecap: square"/>
   </g>
   <g id="line2d_6">
    <path d="M 358.3584 133.272 
L 333.9648 156.5568 
" clip-path="url(#p613ef729e5)" style="fill: none; stroke: #2c748a; stroke-width: 1.8; stroke-linecap: square"/>
   </g>
   <g id="text_1">
    <text style="fill: #111111; font: 700 13.2px 'Arial', 'Helvetica', 'DejaVu Sans', sans-serif; text-anchor: middle" x="282.96" y="28.5795" transform="rotate(-0 282.96 28.5795)">Separating fines breakthrough from pore-network clogging indicators</text>
   </g>
   <g id="text_2">
    <text style="fill: #2d6fb8; font: 9.5px 'Arial', 'Helvetica', 'DejaVu Sans', sans-serif; text-anchor: middle" x="15.7392" y="145.59577" transform="rotate(-0 15.7392 145.59577)">gas</text>
   </g>
   <g id="text_3">
    <text style="fill: #333333; font: 9px 'Arial', 'Helvetica', 'DejaVu Sans', sans-serif; text-anchor: middle" x="101.6712" y="199.35675" transform="rotate(-0 101.6712 199.35675)">fines migrate through a stiff pebble bed</text>
   </g>
   <g id="text_4">
    <text style="fill: #222222; font: 700 10.5px 'Arial', 'Helvetica', 'DejaVu Sans', sans-serif; text-anchor: middle" x="101.6712" y="57.268997" transform="rotate(-0 101.6712 57.268997)">DEM transport</text>
   </g>
   <g id="text_5">
    <text style="fill: #222222; font: 700 10.5px 'Arial', 'Helvetica', 'DejaVu Sans', sans-serif; text-anchor: middle" x="282.96" y="57.268997" transform="rotate(-0 282.96 57.268997)">Pore-structure observables</text>
   </g>
   <g id="text_6">
    <text style="fill: #333333; font: 8px 'Arial', 'Helvetica', 'DejaVu Sans', sans-serif" transform="translate(241.88895 171.455644)">local void/</text>
    <text style="fill: #333333; font: 8px 'Arial', 'Helvetica', 'DejaVu Sans', sans-serif" transform="translate(242.557075 179.058206)">solid map</text>
   </g>
   <g id="text_7">
    <text style="fill: #333333; font: 8px 'Arial', 'Helvetica', 'DejaVu Sans', sans-serif" transform="translate(317.258425 171.455644)">connected-pore</text>
    <text style="fill: #333333; font: 8px 'Arial', 'Helvetica', 'DejaVu Sans', sans-serif" transform="translate(330.1553 179.058206)">skeleton</text>
   </g>
   <g id="text_8">
    <text style="fill: #222222; font: 700 10.5px 'Arial', 'Helvetica', 'DejaVu Sans', sans-serif; text-anchor: middle" x="472.5648" y="57.264075" transform="rotate(-0 472.5648 57.264075)">Staged assessment</text>
   </g>
   <g id="text_9">
    <text style="fill: #222222; font: 700 9.4px 'Arial', 'Helvetica', 'DejaVu Sans', sans-serif; text-anchor: start" x="431.5392" y="93.574256" transform="rotate(-0 431.5392 93.574256)">BTC</text>
   </g>
   <g id="text_10">
    <text style="fill: #333333; font: 7.8px 'Arial', 'Helvetica', 'DejaVu Sans', sans-serif; text-anchor: start" x="468.1296" y="93.201553" transform="rotate(-0 468.1296 93.201553)">transport / contamination</text>
   </g>
   <g id="text_11">
    <text style="fill: #222222; font: 700 9.4px 'Arial', 'Helvetica', 'DejaVu Sans', sans-serif; text-anchor: start" x="431.5392" y="115.19145" transform="rotate(-0 431.5392 115.19145)">B(z,t)</text>
   </g>
   <g id="text_12">
    <text style="fill: #333333; font: 7.8px 'Arial', 'Helvetica', 'DejaVu Sans', sans-serif; text-anchor: start" x="468.1296" y="114.775622" transform="rotate(-0 468.1296 114.775622)">deposition localization</text>
   </g>
   <g id="text_13">
    <text style="fill: #222222; font: 700 9.4px 'Arial', 'Helvetica', 'DejaVu Sans', sans-serif; text-anchor: start" x="431.5392" y="136.817456" transform="rotate(-0 431.5392 136.817456)">C loss</text>
   </g>
   <g id="text_14">
    <text style="fill: #333333; font: 7.8px 'Arial', 'Helvetica', 'DejaVu Sans', sans-serif; text-anchor: start" x="468.1296" y="136.351519" transform="rotate(-0 468.1296 136.351519)">structural degradation</text>
   </g>
   <g id="text_15">
    <text style="fill: #222222; font: 700 9.4px 'Arial', 'Helvetica', 'DejaVu Sans', sans-serif; text-anchor: start" x="431.5392" y="158.439056" transform="rotate(-0 431.5392 158.439056)">ΔP</text>
   </g>
   <g id="text_16">
    <text style="fill: #333333; font: 7.8px 'Arial', 'Helvetica', 'DejaVu Sans', sans-serif; text-anchor: start" x="468.1296" y="158.02065" transform="rotate(-0 468.1296 158.02065)">hydraulic confirmation</text>
   </g>
   <g id="text_17">
    <text style="fill: #333333; font: 8.6px 'Arial', 'Helvetica', 'DejaVu Sans', sans-serif" transform="translate(420.454847 186.532626)">breakthrough alone is not a</text>
    <text style="fill: #333333; font: 8.6px 'Arial', 'Helvetica', 'DejaVu Sans', sans-serif" transform="translate(402.062941 195.237062)">pressure-calibrated clogging criterion</text>
   </g>
   <g id="text_18">
    <text style="fill: #333333; font: 8.8px 'Arial', 'Helvetica', 'DejaVu Sans', sans-serif; text-anchor: middle" x="282.96" y="217.546575" transform="rotate(-0 282.96 217.546575)">DEM trajectories, pore reconstruction and bounded pressure checks provide complementary indicators in the sampled cases.</text>
   </g>
   <g id="patch_136">
    <path d="M 45.6768 162.9324 
C 46.1914 162.9324 46.684993 162.727947 47.04887 162.36407 
C 47.412747 162.000193 47.6172 161.5066 47.6172 160.992 
C 47.6172 160.4774 47.412747 159.983807 47.04887 159.61993 
C 46.684993 159.256053 46.1914 159.0516 45.6768 159.0516 
C 45.1622 159.0516 44.668607 159.256053 44.30473 159.61993 
C 43.940853 159.983807 43.7364 160.4774 43.7364 160.992 
C 43.7364 161.5066 43.940853 162.000193 44.30473 162.36407 
C 44.668607 162.727947 45.1622 162.9324 45.6768 162.9324 
z
" clip-path="url(#p613ef729e5)" style="fill: #b33b35; stroke: #ffffff; stroke-width: 0.35; stroke-linejoin: miter"/>
   </g>
   <g id="patch_137">
    <path d="M 63.972 150.7356 
C 64.4866 150.7356 64.980193 150.531147 65.34407 150.16727 
C 65.707947 149.803393 65.9124 149.3098 65.9124 148.7952 
C 65.9124 148.2806 65.707947 147.787007 65.34407 147.42313 
C 64.980193 147.059253 64.4866 146.8548 63.972 146.8548 
C 63.4574 146.8548 62.963807 147.059253 62.59993 147.42313 
C 62.236053 147.787007 62.0316 148.2806 62.0316 148.7952 
C 62.0316 149.3098 62.236053 149.803393 62.59993 150.16727 
C 62.963807 150.531147 63.4574 150.7356 63.972 150.7356 
z
" clip-path="url(#p613ef729e5)" style="fill: #b33b35; stroke: #ffffff; stroke-width: 0.35; stroke-linejoin: miter"/>
   </g>
   <g id="patch_138">
    <path d="M 81.1584 154.062 
C 81.673 154.062 82.166593 153.857547 82.53047 153.49367 
C 82.894347 153.129793 83.0988 152.6362 83.0988 152.1216 
C 83.0988 151.607 82.894347 151.113407 82.53047 150.74953 
C 82.166593 150.385653 81.673 150.1812 81.1584 150.1812 
C 80.6438 150.1812 80.150207 150.385653 79.78633 150.74953 
C 79.422453 151.113407 79.218 151.607 79.218 152.1216 
C 79.218 152.6362 79.422453 153.129793 79.78633 153.49367 
C 80.150207 153.857547 80.6438 154.062 81.1584 154.062 
z
" clip-path="url(#p613ef729e5)" style="fill: #b33b35; stroke: #ffffff; stroke-width: 0.35; stroke-linejoin: miter"/>
   </g>
   <g id="patch_139">
    <path d="M 100.008 134.1036 
C 100.5226 134.1036 101.016193 133.899147 101.38007 133.53527 
C 101.743947 133.171393 101.9484 132.6778 101.9484 132.1632 
C 101.9484 131.6486 101.743947 131.155007 101.38007 130.79113 
C 101.016193 130.427253 100.5226 130.2228 100.008 130.2228 
C 99.4934 130.2228 98.999807 130.427253 98.63593 130.79113 
C 98.272053 131.155007 98.0676 131.6486 98.0676 132.1632 
C 98.0676 132.6778 98.272053 133.171393 98.63593 133.53527 
C 98.999807 133.899147 99.4934 134.1036 100.008 134.1036 
z
" clip-path="url(#p613ef729e5)" style="fill: #b33b35; stroke: #ffffff; stroke-width: 0.35; stroke-linejoin: miter"/>
   </g>
   <g id="patch_140">
    <path d="M 119.412 127.4508 
C 119.9266 127.4508 120.420193 127.246347 120.78407 126.88247 
C 121.147947 126.518593 121.3524 126.025 121.3524 125.5104 
C 121.3524 124.9958 121.147947 124.502207 120.78407 124.13833 
C 120.420193 123.774453 119.9266 123.57 119.412 123.57 
C 118.8974 123.57 118.403807 123.774453 118.03993 124.13833 
C 117.676053 124.502207 117.4716 124.9958 117.4716 125.5104 
C 117.4716 126.025 117.676053 126.518593 118.03993 126.88247 
C 118.403807 127.246347 118.8974 127.4508 119.412 127.4508 
z
" clip-path="url(#p613ef729e5)" style="fill: #b33b35; stroke: #ffffff; stroke-width: 0.35; stroke-linejoin: miter"/>
   </g>
   <g id="patch_141">
    <path d="M 137.7072 115.8084 
C 138.2218 115.8084 138.715393 115.603947 139.07927 115.24007 
C 139.443147 114.876193 139.6476 114.3826 139.6476 113.868 
C 139.6476 113.3534 139.443147 112.859807 139.07927 112.49593 
C 138.715393 112.132053 138.2218 111.9276 137.7072 111.9276 
C 137.1926 111.9276 136.699007 112.132053 136.33513 112.49593 
C 135.971253 112.859807 135.7668 113.3534 135.7668 113.868 
C 135.7668 114.3826 135.971253 114.876193 136.33513 115.24007 
C 136.699007 115.603947 137.1926 115.8084 137.7072 115.8084 
z
" clip-path="url(#p613ef729e5)" style="fill: #b33b35; stroke: #ffffff; stroke-width: 0.35; stroke-linejoin: miter"/>
   </g>
   <g id="patch_142">
    <path d="M 156.5568 104.166 
C 157.0714 104.166 157.564993 103.961547 157.92887 103.59767 
C 158.292747 103.233793 158.4972 102.7402 158.4972 102.2256 
C 158.4972 101.711 158.292747 101.217407 157.92887 100.85353 
C 157.564993 100.489653 157.0714 100.2852 156.5568 100.2852 
C 156.0422 100.2852 155.548607 100.489653 155.18473 100.85353 
C 154.820853 101.217407 154.6164 101.711 154.6164 102.2256 
C 154.6164 102.7402 154.820853 103.233793 155.18473 103.59767 
C 155.548607 103.961547 156.0422 104.166 156.5568 104.166 
z
" clip-path="url(#p613ef729e5)" style="fill: #b33b35; stroke: #ffffff; stroke-width: 0.35; stroke-linejoin: miter"/>
   </g>
   <g id="PathCollection_1">
    <defs>
     <path id="m1cfd05282d" d="M 0 5.91608 
C 1.568963 5.91608 3.073876 5.292724 4.1833 4.1833 
C 5.292724 3.073876 5.91608 1.568963 5.91608 0 
C 5.91608 -1.568963 5.292724 -3.073876 4.1833 -4.1833 
C 3.073876 -5.292724 1.568963 -5.91608 0 -5.91608 
C -1.568963 -5.91608 -3.073876 -5.292724 -4.1833 -4.1833 
C -5.292724 -3.073876 -5.91608 -1.568963 -5.91608 0 
C -5.91608 1.568963 -5.292724 3.073876 -4.1833 4.1833 
C -3.073876 5.292724 -1.568963 5.91608 0 5.91608 
z
" style="stroke: #333333; stroke-width: 0.7"/>
    </defs>
    <g clip-path="url(#p613ef729e5)">
     <use xlink:href="#m1cfd05282d" x="321.768" y="134.3808" style="fill: #8ec6d9; stroke: #333333; stroke-width: 0.7"/>
     <use xlink:href="#m1cfd05282d" x="339.5088" y="111.096" style="fill: #8ec6d9; stroke: #333333; stroke-width: 0.7"/>
     <use xlink:href="#m1cfd05282d" x="358.3584" y="133.272" style="fill: #8ec6d9; stroke: #333333; stroke-width: 0.7"/>
     <use xlink:href="#m1cfd05282d" x="333.9648" y="156.5568" style="fill: #8ec6d9; stroke: #333333; stroke-width: 0.7"/>
     <use xlink:href="#m1cfd05282d" x="366.12" y="106.6608" style="fill: #8ec6d9; stroke: #333333; stroke-width: 0.7"/>
    </g>
   </g>
  </g>
 </g>
 <defs>
  <clipPath id="p613ef729e5">
   <rect x="5.76" y="5.76" width="554.4" height="221.76"/>
  </clipPath>
 </defs>
</svg>
