<?xml version="1.0" encoding="utf-8" standalone="no"?>
<!DOCTYPE svg PUBLIC "-//W3C//DTD SVG 1.1//EN"
  "http://www.w3.org/Graphics/SVG/1.1/DTD/svg11.dtd">
<svg xmlns:xlink="http://www.w3.org/1999/xlink" width="537.208072pt" height="353.99952pt" viewBox="0 0 537.208072 353.99952" xmlns="http://www.w3.org/2000/svg" version="1.1">
 <metadata>
  <rdf:RDF xmlns:dc="http://purl.org/dc/elements/1.1/" xmlns:cc="http://creativecommons.org/ns#" xmlns:rdf="http://www.w3.org/1999/02/22-rdf-syntax-ns#">
   <cc:Work>
    <dc:type rdf:resource="http://purl.org/dc/dcmitype/StillImage"/>
    <dc:date>2026-06-09T12:34:28.503600</dc:date>
    <dc:format>image/svg+xml</dc:format>
    <dc:creator>
     <cc:Agent>
      <dc:title>Matplotlib v3.9.4, https://matplotlib.org/</dc:title>
     </cc:Agent>
    </dc:creator>
   </cc:Work>
  </rdf:RDF>
 </metadata>
 <defs>
  <style type="text/css">*{stroke-linejoin: round; stroke-linecap: butt}</style>
 </defs>
 <g id="figure_1">
  <g id="patch_1">
   <path d="M 0 353.99952 
L 537.208072 353.99952 
L 537.208072 0 
L 0 0 
z
" style="fill: #ffffff"/>
  </g>
  <g id="axes_1">
   <g id="patch_2">
    <path d="M 100.850875 148.907395 
L 257.89752 148.907395 
L 257.89752 19.02375 
L 100.850875 19.02375 
z
" style="fill: #ffffff"/>
   </g>
   <g id="matplotlib.axis_1">
    <g id="xtick_1">
     <g id="line2d_1">
      <path d="M 107.989359 148.907395 
L 107.989359 19.02375 
" clip-path="url(#pb325b43258)" style="fill: none; stroke: #b0b0b0; stroke-opacity: 0.35; stroke-width: 0.35; stroke-linecap: square"/>
     </g>
     <g id="line2d_2">
      <defs>
       <path id="mc17716bd2e" d="M 0 0 
L 0 3.5 
" style="stroke: #000000; stroke-width: 0.8"/>
      </defs>
      <g>
       <use xlink:href="#mc17716bd2e" x="107.989359" y="148.907395" style="stroke: #000000; stroke-width: 0.8"/>
      </g>
     </g>
     <g id="text_1">
      <text style="font: 7.2px 'Arial', 'Helvetica', 'DejaVu Sans', sans-serif; text-anchor: middle" x="107.989359" y="161.06102" transform="rotate(-0 107.989359 161.06102)">0</text>
     </g>
    </g>
    <g id="xtick_2">
     <g id="line2d_3">
      <path d="M 136.543294 148.907395 
L 136.543294 19.02375 
" clip-path="url(#pb325b43258)" style="fill: none; stroke: #b0b0b0; stroke-opacity: 0.35; stroke-width: 0.35; stroke-linecap: square"/>
     </g>
     <g id="line2d_4">
      <g>
       <use xlink:href="#mc17716bd2e" x="136.543294" y="148.907395" style="stroke: #000000; stroke-width: 0.8"/>
      </g>
     </g>
     <g id="text_2">
      <text style="font: 7.2px 'Arial', 'Helvetica', 'DejaVu Sans', sans-serif; text-anchor: middle" x="136.543294" y="161.06102" transform="rotate(-0 136.543294 161.06102)">2</text>
     </g>
    </g>
    <g id="xtick_3">
     <g id="line2d_5">
      <path d="M 165.09723 148.907395 
L 165.09723 19.02375 
" clip-path="url(#pb325b43258)" style="fill: none; stroke: #b0b0b0; stroke-opacity: 0.35; stroke-width: 0.35; stroke-linecap: square"/>
     </g>
     <g id="line2d_6">
      <g>
       <use xlink:href="#mc17716bd2e" x="165.09723" y="148.907395" style="stroke: #000000; stroke-width: 0.8"/>
      </g>
     </g>
     <g id="text_3">
      <text style="font: 7.2px 'Arial', 'Helvetica', 'DejaVu Sans', sans-serif; text-anchor: middle" x="165.09723" y="161.06102" transform="rotate(-0 165.09723 161.06102)">4</text>
     </g>
    </g>
    <g id="xtick_4">
     <g id="line2d_7">
      <path d="M 193.651165 148.907395 
L 193.651165 19.02375 
" clip-path="url(#pb325b43258)" style="fill: none; stroke: #b0b0b0; stroke-opacity: 0.35; stroke-width: 0.35; stroke-linecap: square"/>
     </g>
     <g id="line2d_8">
      <g>
       <use xlink:href="#mc17716bd2e" x="193.651165" y="148.907395" style="stroke: #000000; stroke-width: 0.8"/>
      </g>
     </g>
     <g id="text_4">
      <text style="font: 7.2px 'Arial', 'Helvetica', 'DejaVu Sans', sans-serif; text-anchor: middle" x="193.651165" y="161.06102" transform="rotate(-0 193.651165 161.06102)">6</text>
     </g>
    </g>
    <g id="xtick_5">
     <g id="line2d_9">
      <path d="M 222.205101 148.907395 
L 222.205101 19.02375 
" clip-path="url(#pb325b43258)" style="fill: none; stroke: #b0b0b0; stroke-opacity: 0.35; stroke-width: 0.35; stroke-linecap: square"/>
     </g>
     <g id="line2d_10">
      <g>
       <use xlink:href="#mc17716bd2e" x="222.205101" y="148.907395" style="stroke: #000000; stroke-width: 0.8"/>
      </g>
     </g>
     <g id="text_5">
      <text style="font: 7.2px 'Arial', 'Helvetica', 'DejaVu Sans', sans-serif; text-anchor: middle" x="222.205101" y="161.06102" transform="rotate(-0 222.205101 161.06102)">8</text>
     </g>
    </g>
    <g id="xtick_6">
     <g id="line2d_11">
      <path d="M 250.759036 148.907395 
L 250.759036 19.02375 
" clip-path="url(#pb325b43258)" style="fill: none; stroke: #b0b0b0; stroke-opacity: 0.35; stroke-width: 0.35; stroke-linecap: square"/>
     </g>
     <g id="line2d_12">
      <g>
       <use xlink:href="#mc17716bd2e" x="250.759036" y="148.907395" style="stroke: #000000; stroke-width: 0.8"/>
      </g>
     </g>
     <g id="text_6">
      <text style="font: 7.2px 'Arial', 'Helvetica', 'DejaVu Sans', sans-serif; text-anchor: middle" x="250.759036" y="161.06102" transform="rotate(-0 250.759036 161.06102)">10</text>
     </g>
    </g>
    <g id="text_7">
     <text style="font: 8px 'Arial', 'Helvetica', 'DejaVu Sans', sans-serif; text-anchor: middle" x="179.374197" y="172.31577" transform="rotate(-0 179.374197 172.31577)">time (ms)</text>
    </g>
   </g>
   <g id="matplotlib.axis_2">
    <g id="ytick_1">
     <g id="line2d_13">
      <path d="M 100.850875 146.409633 
L 257.89752 146.409633 
" clip-path="url(#pb325b43258)" style="fill: none; stroke: #b0b0b0; stroke-opacity: 0.35; stroke-width: 0.35; stroke-linecap: square"/>
     </g>
     <g id="line2d_14">
      <defs>
       <path id="m58ed790d17" d="M 0 0 
L -3.5 0 
" style="stroke: #000000; stroke-width: 0.8"/>
      </defs>
      <g>
       <use xlink:href="#m58ed790d17" x="100.850875" y="146.409633" style="stroke: #000000; stroke-width: 0.8"/>
      </g>
     </g>
     <g id="text_8">
      <text style="font: 7.2px 'Arial', 'Helvetica', 'DejaVu Sans', sans-serif; text-anchor: end" x="93.850875" y="148.986445" transform="rotate(-0 93.850875 148.986445)">0.0</text>
     </g>
    </g>
    <g id="ytick_2">
     <g id="line2d_15">
      <path d="M 100.850875 121.432009 
L 257.89752 121.432009 
" clip-path="url(#pb325b43258)" style="fill: none; stroke: #b0b0b0; stroke-opacity: 0.35; stroke-width: 0.35; stroke-linecap: square"/>
     </g>
     <g id="line2d_16">
      <g>
       <use xlink:href="#m58ed790d17" x="100.850875" y="121.432009" style="stroke: #000000; stroke-width: 0.8"/>
      </g>
     </g>
     <g id="text_9">
      <text style="font: 7.2px 'Arial', 'Helvetica', 'DejaVu Sans', sans-serif; text-anchor: end" x="93.850875" y="124.008821" transform="rotate(-0 93.850875 124.008821)">0.2</text>
     </g>
    </g>
    <g id="ytick_3">
     <g id="line2d_17">
      <path d="M 100.850875 96.454385 
L 257.89752 96.454385 
" clip-path="url(#pb325b43258)" style="fill: none; stroke: #b0b0b0; stroke-opacity: 0.35; stroke-width: 0.35; stroke-linecap: square"/>
     </g>
     <g id="line2d_18">
      <g>
       <use xlink:href="#m58ed790d17" x="100.850875" y="96.454385" style="stroke: #000000; stroke-width: 0.8"/>
      </g>
     </g>
     <g id="text_10">
      <text style="font: 7.2px 'Arial', 'Helvetica', 'DejaVu Sans', sans-serif; text-anchor: end" x="93.850875" y="99.031197" transform="rotate(-0 93.850875 99.031197)">0.4</text>
     </g>
    </g>
    <g id="ytick_4">
     <g id="line2d_19">
      <path d="M 100.850875 71.47676 
L 257.89752 71.47676 
" clip-path="url(#pb325b43258)" style="fill: none; stroke: #b0b0b0; stroke-opacity: 0.35; stroke-width: 0.35; stroke-linecap: square"/>
     </g>
     <g id="line2d_20">
      <g>
       <use xlink:href="#m58ed790d17" x="100.850875" y="71.47676" style="stroke: #000000; stroke-width: 0.8"/>
      </g>
     </g>
     <g id="text_11">
      <text style="font: 7.2px 'Arial', 'Helvetica', 'DejaVu Sans', sans-serif; text-anchor: end" x="93.850875" y="74.053573" transform="rotate(-0 93.850875 74.053573)">0.6</text>
     </g>
    </g>
    <g id="ytick_5">
     <g id="line2d_21">
      <path d="M 100.850875 46.499136 
L 257.89752 46.499136 
" clip-path="url(#pb325b43258)" style="fill: none; stroke: #b0b0b0; stroke-opacity: 0.35; stroke-width: 0.35; stroke-linecap: square"/>
     </g>
     <g id="line2d_22">
      <g>
       <use xlink:href="#m58ed790d17" x="100.850875" y="46.499136" style="stroke: #000000; stroke-width: 0.8"/>
      </g>
     </g>
     <g id="text_12">
      <text style="font: 7.2px 'Arial', 'Helvetica', 'DejaVu Sans', sans-serif; text-anchor: end" x="93.850875" y="49.075949" transform="rotate(-0 93.850875 49.075949)">0.8</text>
     </g>
    </g>
    <g id="ytick_6">
     <g id="line2d_23">
      <path d="M 100.850875 21.521512 
L 257.89752 21.521512 
" clip-path="url(#pb325b43258)" style="fill: none; stroke: #b0b0b0; stroke-opacity: 0.35; stroke-width: 0.35; stroke-linecap: square"/>
     </g>
     <g id="line2d_24">
      <g>
       <use xlink:href="#m58ed790d17" x="100.850875" y="21.521512" style="stroke: #000000; stroke-width: 0.8"/>
      </g>
     </g>
     <g id="text_13">
      <text style="font: 7.2px 'Arial', 'Helvetica', 'DejaVu Sans', sans-serif; text-anchor: end" x="93.850875" y="24.098325" transform="rotate(-0 93.850875 24.098325)">1.0</text>
     </g>
    </g>
    <g id="text_14">
     <text style="font: 8px 'Arial', 'Helvetica', 'DejaVu Sans', sans-serif; text-anchor: middle" x="78.252875" y="83.965572" transform="rotate(-90 78.252875 83.965572)">debris fraction</text>
    </g>
   </g>
   <g id="line2d_25">
    <path d="M 107.989359 21.521512 
L 108.132129 21.588119 
L 108.274898 21.604771 
L 108.417668 21.604771 
L 108.560438 21.613097 
L 108.703207 21.646401 
L 108.845977 21.679704 
L 108.988747 21.671378 
L 109.131516 21.696356 
L 109.274286 21.68803 
L 109.417056 21.68803 
L 110.844752 21.729659 
L 112.272449 21.796266 
L 113.700146 21.896177 
L 115.127843 21.954458 
L 122.266327 22.137627 
L 129.40481 22.470662 
L 136.543294 22.953563 
L 143.681778 23.528048 
L 150.820262 24.102534 
L 157.958746 24.660367 
L 165.09723 25.276482 
L 172.235714 26.084092 
L 179.374197 26.825095 
L 193.651165 28.265471 
L 207.928133 29.68087 
L 222.205101 31.071291 
L 236.482068 32.411756 
L 250.759036 33.818829 
" clip-path="url(#pb325b43258)" style="fill: none; stroke: #4d4d4d; stroke-width: 1.2; stroke-linecap: square"/>
   </g>
   <g id="line2d_26">
    <path d="M 107.989359 146.409633 
L 108.132129 146.392981 
L 108.274898 146.376329 
L 108.417668 146.376329 
L 108.560438 146.376329 
L 108.703207 146.384655 
L 108.845977 146.359677 
L 108.988747 146.359677 
L 109.131516 146.343026 
L 109.274286 146.343026 
L 109.417056 146.343026 
L 110.844752 146.318048 
L 112.272449 146.276419 
L 113.700146 146.19316 
L 115.127843 146.15153 
L 122.266327 145.985013 
L 129.40481 145.66863 
L 136.543294 145.219033 
L 143.681778 144.644547 
L 150.820262 144.095039 
L 157.958746 143.545532 
L 165.09723 142.921091 
L 172.235714 142.130133 
L 179.374197 141.405782 
L 193.651165 139.973731 
L 207.928133 138.533355 
L 222.205101 137.134608 
L 236.482068 135.752513 
L 250.759036 134.328788 
" clip-path="url(#pb325b43258)" style="fill: none; stroke: #2166ac; stroke-width: 1.2; stroke-linecap: square"/>
   </g>
   <g id="line2d_27">
    <path d="M 107.989359 146.409633 
L 108.132129 146.409633 
L 108.274898 146.409633 
L 108.417668 146.409633 
L 108.560438 146.409633 
L 108.703207 146.409633 
L 108.845977 146.409633 
L 108.988747 146.409633 
L 109.131516 146.409633 
L 109.274286 146.409633 
L 109.417056 146.409633 
L 110.844752 146.409633 
L 112.272449 146.409633 
L 113.700146 146.409633 
L 115.127843 146.409633 
L 122.266327 146.409633 
L 129.40481 146.409633 
L 136.543294 146.409633 
L 143.681778 146.409633 
L 150.820262 146.409633 
L 157.958746 146.409633 
L 165.09723 146.409633 
L 172.235714 146.409633 
L 179.374197 146.409633 
L 193.651165 146.409633 
L 207.928133 146.409633 
L 222.205101 146.409633 
L 236.482068 146.409633 
L 250.759036 146.409633 
" clip-path="url(#pb325b43258)" style="fill: none; stroke: #b2182b; stroke-width: 1.2; stroke-linecap: square"/>
   </g>
   <g id="patch_3">
    <path d="M 100.850875 148.907395 
L 100.850875 19.02375 
" style="fill: none; stroke: #000000; stroke-width: 0.8; stroke-linejoin: miter; stroke-linecap: square"/>
   </g>
   <g id="patch_4">
    <path d="M 100.850875 148.907395 
L 257.89752 148.907395 
" style="fill: none; stroke: #000000; stroke-width: 0.8; stroke-linejoin: miter; stroke-linecap: square"/>
   </g>
   <g id="text_15">
    <text style="font: 700 9px 'Arial', 'Helvetica', 'DejaVu Sans', sans-serif; text-anchor: start" x="82.005278" y="18.971599" transform="rotate(-0 82.005278 18.971599)">a</text>
   </g>
   <g id="text_16">
    <text style="font: 8px 'Arial', 'Helvetica', 'DejaVu Sans', sans-serif; text-anchor: middle" x="179.374197" y="13.02375" transform="rotate(-0 179.374197 13.02375)">906 upstream, N=15000</text>
   </g>
   <g id="legend_1">
    <g id="line2d_28">
     <path d="M 193.872676 73.423463 
L 200.872676 73.423463 
L 207.872676 73.423463 
" style="fill: none; stroke: #4d4d4d; stroke-width: 1.2; stroke-linecap: square"/>
    </g>
    <g id="text_17">
     <text style="font: 7px 'Arial', 'Helvetica', 'DejaVu Sans', sans-serif; text-anchor: start" x="213.472676" y="75.873463" transform="rotate(-0 213.472676 75.873463)">source</text>
    </g>
    <g id="line2d_29">
     <path d="M 193.872676 83.325182 
L 200.872676 83.325182 
L 207.872676 83.325182 
" style="fill: none; stroke: #2166ac; stroke-width: 1.2; stroke-linecap: square"/>
    </g>
    <g id="text_18">
     <text style="font: 7px 'Arial', 'Helvetica', 'DejaVu Sans', sans-serif; text-anchor: start" x="213.472676" y="85.775182" transform="rotate(-0 213.472676 85.775182)">downstream</text>
    </g>
    <g id="line2d_30">
     <path d="M 193.872676 93.226901 
L 200.872676 93.226901 
L 207.872676 93.226901 
" style="fill: none; stroke: #b2182b; stroke-width: 1.2; stroke-linecap: square"/>
    </g>
    <g id="text_19">
     <text style="font: 7px 'Arial', 'Helvetica', 'DejaVu Sans', sans-serif; text-anchor: start" x="213.472676" y="95.676901" transform="rotate(-0 213.472676 95.676901)">outlet</text>
    </g>
   </g>
  </g>
  <g id="axes_2">
   <g id="patch_5">
    <path d="M 362.552875 148.907395 
L 519.59952 148.907395 
L 519.59952 19.02375 
L 362.552875 19.02375 
z
" style="fill: #ffffff"/>
   </g>
   <g id="matplotlib.axis_3">
    <g id="xtick_7">
     <g id="line2d_31">
      <path d="M 369.691359 148.907395 
L 369.691359 19.02375 
" clip-path="url(#pc64da025cf)" style="fill: none; stroke: #b0b0b0; stroke-opacity: 0.35; stroke-width: 0.35; stroke-linecap: square"/>
     </g>
     <g id="line2d_32">
      <g>
       <use xlink:href="#mc17716bd2e" x="369.691359" y="148.907395" style="stroke: #000000; stroke-width: 0.8"/>
      </g>
     </g>
     <g id="text_20">
      <text style="font: 7.2px 'Arial', 'Helvetica', 'DejaVu Sans', sans-serif; text-anchor: middle" x="369.691359" y="161.06102" transform="rotate(-0 369.691359 161.06102)">0</text>
     </g>
    </g>
    <g id="xtick_8">
     <g id="line2d_33">
      <path d="M 398.245294 148.907395 
L 398.245294 19.02375 
" clip-path="url(#pc64da025cf)" style="fill: none; stroke: #b0b0b0; stroke-opacity: 0.35; stroke-width: 0.35; stroke-linecap: square"/>
     </g>
     <g id="line2d_34">
      <g>
       <use xlink:href="#mc17716bd2e" x="398.245294" y="148.907395" style="stroke: #000000; stroke-width: 0.8"/>
      </g>
     </g>
     <g id="text_21">
      <text style="font: 7.2px 'Arial', 'Helvetica', 'DejaVu Sans', sans-serif; text-anchor: middle" x="398.245294" y="161.06102" transform="rotate(-0 398.245294 161.06102)">2</text>
     </g>
    </g>
    <g id="xtick_9">
     <g id="line2d_35">
      <path d="M 426.79923 148.907395 
L 426.79923 19.02375 
" clip-path="url(#pc64da025cf)" style="fill: none; stroke: #b0b0b0; stroke-opacity: 0.35; stroke-width: 0.35; stroke-linecap: square"/>
     </g>
     <g id="line2d_36">
      <g>
       <use xlink:href="#mc17716bd2e" x="426.79923" y="148.907395" style="stroke: #000000; stroke-width: 0.8"/>
      </g>
     </g>
     <g id="text_22">
      <text style="font: 7.2px 'Arial', 'Helvetica', 'DejaVu Sans', sans-serif; text-anchor: middle" x="426.79923" y="161.06102" transform="rotate(-0 426.79923 161.06102)">4</text>
     </g>
    </g>
    <g id="xtick_10">
     <g id="line2d_37">
      <path d="M 455.353165 148.907395 
L 455.353165 19.02375 
" clip-path="url(#pc64da025cf)" style="fill: none; stroke: #b0b0b0; stroke-opacity: 0.35; stroke-width: 0.35; stroke-linecap: square"/>
     </g>
     <g id="line2d_38">
      <g>
       <use xlink:href="#mc17716bd2e" x="455.353165" y="148.907395" style="stroke: #000000; stroke-width: 0.8"/>
      </g>
     </g>
     <g id="text_23">
      <text style="font: 7.2px 'Arial', 'Helvetica', 'DejaVu Sans', sans-serif; text-anchor: middle" x="455.353165" y="161.06102" transform="rotate(-0 455.353165 161.06102)">6</text>
     </g>
    </g>
    <g id="xtick_11">
     <g id="line2d_39">
      <path d="M 483.907101 148.907395 
L 483.907101 19.02375 
" clip-path="url(#pc64da025cf)" style="fill: none; stroke: #b0b0b0; stroke-opacity: 0.35; stroke-width: 0.35; stroke-linecap: square"/>
     </g>
     <g id="line2d_40">
      <g>
       <use xlink:href="#mc17716bd2e" x="483.907101" y="148.907395" style="stroke: #000000; stroke-width: 0.8"/>
      </g>
     </g>
     <g id="text_24">
      <text style="font: 7.2px 'Arial', 'Helvetica', 'DejaVu Sans', sans-serif; text-anchor: middle" x="483.907101" y="161.06102" transform="rotate(-0 483.907101 161.06102)">8</text>
     </g>
    </g>
    <g id="xtick_12">
     <g id="line2d_41">
      <path d="M 512.461036 148.907395 
L 512.461036 19.02375 
" clip-path="url(#pc64da025cf)" style="fill: none; stroke: #b0b0b0; stroke-opacity: 0.35; stroke-width: 0.35; stroke-linecap: square"/>
     </g>
     <g id="line2d_42">
      <g>
       <use xlink:href="#mc17716bd2e" x="512.461036" y="148.907395" style="stroke: #000000; stroke-width: 0.8"/>
      </g>
     </g>
     <g id="text_25">
      <text style="font: 7.2px 'Arial', 'Helvetica', 'DejaVu Sans', sans-serif; text-anchor: middle" x="512.461036" y="161.06102" transform="rotate(-0 512.461036 161.06102)">10</text>
     </g>
    </g>
    <g id="text_26">
     <text style="font: 8px 'Arial', 'Helvetica', 'DejaVu Sans', sans-serif; text-anchor: middle" x="441.076197" y="172.31577" transform="rotate(-0 441.076197 172.31577)">time (ms)</text>
    </g>
   </g>
   <g id="matplotlib.axis_4">
    <g id="ytick_7">
     <g id="line2d_43">
      <path d="M 362.552875 148.907395 
L 519.59952 148.907395 
" clip-path="url(#pc64da025cf)" style="fill: none; stroke: #b0b0b0; stroke-opacity: 0.35; stroke-width: 0.35; stroke-linecap: square"/>
     </g>
     <g id="line2d_44">
      <g>
       <use xlink:href="#m58ed790d17" x="362.552875" y="148.907395" style="stroke: #000000; stroke-width: 0.8"/>
      </g>
     </g>
     <g id="text_27">
      <text style="font: 7.2px 'Arial', 'Helvetica', 'DejaVu Sans', sans-serif; text-anchor: end" x="355.552875" y="151.484207" transform="rotate(-0 355.552875 151.484207)">0.0</text>
     </g>
    </g>
    <g id="ytick_8">
     <g id="line2d_45">
      <path d="M 362.552875 124.167653 
L 519.59952 124.167653 
" clip-path="url(#pc64da025cf)" style="fill: none; stroke: #b0b0b0; stroke-opacity: 0.35; stroke-width: 0.35; stroke-linecap: square"/>
     </g>
     <g id="line2d_46">
      <g>
       <use xlink:href="#m58ed790d17" x="362.552875" y="124.167653" style="stroke: #000000; stroke-width: 0.8"/>
      </g>
     </g>
     <g id="text_28">
      <text style="font: 7.2px 'Arial', 'Helvetica', 'DejaVu Sans', sans-serif; text-anchor: end" x="355.552875" y="126.744466" transform="rotate(-0 355.552875 126.744466)">0.2</text>
     </g>
    </g>
    <g id="ytick_9">
     <g id="line2d_47">
      <path d="M 362.552875 99.427911 
L 519.59952 99.427911 
" clip-path="url(#pc64da025cf)" style="fill: none; stroke: #b0b0b0; stroke-opacity: 0.35; stroke-width: 0.35; stroke-linecap: square"/>
     </g>
     <g id="line2d_48">
      <g>
       <use xlink:href="#m58ed790d17" x="362.552875" y="99.427911" style="stroke: #000000; stroke-width: 0.8"/>
      </g>
     </g>
     <g id="text_29">
      <text style="font: 7.2px 'Arial', 'Helvetica', 'DejaVu Sans', sans-serif; text-anchor: end" x="355.552875" y="102.004724" transform="rotate(-0 355.552875 102.004724)">0.4</text>
     </g>
    </g>
    <g id="ytick_10">
     <g id="line2d_49">
      <path d="M 362.552875 74.688169 
L 519.59952 74.688169 
" clip-path="url(#pc64da025cf)" style="fill: none; stroke: #b0b0b0; stroke-opacity: 0.35; stroke-width: 0.35; stroke-linecap: square"/>
     </g>
     <g id="line2d_50">
      <g>
       <use xlink:href="#m58ed790d17" x="362.552875" y="74.688169" style="stroke: #000000; stroke-width: 0.8"/>
      </g>
     </g>
     <g id="text_30">
      <text style="font: 7.2px 'Arial', 'Helvetica', 'DejaVu Sans', sans-serif; text-anchor: end" x="355.552875" y="77.264982" transform="rotate(-0 355.552875 77.264982)">0.6</text>
     </g>
    </g>
    <g id="ytick_11">
     <g id="line2d_51">
      <path d="M 362.552875 49.948427 
L 519.59952 49.948427 
" clip-path="url(#pc64da025cf)" style="fill: none; stroke: #b0b0b0; stroke-opacity: 0.35; stroke-width: 0.35; stroke-linecap: square"/>
     </g>
     <g id="line2d_52">
      <g>
       <use xlink:href="#m58ed790d17" x="362.552875" y="49.948427" style="stroke: #000000; stroke-width: 0.8"/>
      </g>
     </g>
     <g id="text_31">
      <text style="font: 7.2px 'Arial', 'Helvetica', 'DejaVu Sans', sans-serif; text-anchor: end" x="355.552875" y="52.52524" transform="rotate(-0 355.552875 52.52524)">0.8</text>
     </g>
    </g>
    <g id="ytick_12">
     <g id="line2d_53">
      <path d="M 362.552875 25.208685 
L 519.59952 25.208685 
" clip-path="url(#pc64da025cf)" style="fill: none; stroke: #b0b0b0; stroke-opacity: 0.35; stroke-width: 0.35; stroke-linecap: square"/>
     </g>
     <g id="line2d_54">
      <g>
       <use xlink:href="#m58ed790d17" x="362.552875" y="25.208685" style="stroke: #000000; stroke-width: 0.8"/>
      </g>
     </g>
     <g id="text_32">
      <text style="font: 7.2px 'Arial', 'Helvetica', 'DejaVu Sans', sans-serif; text-anchor: end" x="355.552875" y="27.785498" transform="rotate(-0 355.552875 27.785498)">1.0</text>
     </g>
    </g>
    <g id="text_33">
     <text style="font: 8px 'Arial', 'Helvetica', 'DejaVu Sans', sans-serif; text-anchor: middle" x="339.954875" y="83.965572" transform="rotate(-90 339.954875 83.965572)">x / L</text>
    </g>
   </g>
   <g id="line2d_55">
    <path d="M 369.691359 107.742138 
L 369.834129 107.742146 
L 369.976898 107.741442 
L 370.119668 107.740658 
L 370.262438 107.74031 
L 370.405207 107.740197 
L 370.547977 107.740144 
L 370.690747 107.739948 
L 370.833516 107.739694 
L 370.976286 107.739437 
L 371.119056 107.739202 
L 372.546752 107.736538 
L 373.974449 107.734199 
L 375.402146 107.730972 
L 376.829843 107.727064 
L 383.968327 107.698012 
L 391.10681 107.653332 
L 398.245294 107.594467 
L 405.383778 107.523888 
L 412.522262 107.443474 
L 419.660746 107.356196 
L 426.79923 107.264274 
L 433.937714 107.169164 
L 441.076197 107.071802 
L 455.353165 106.873409 
L 469.630133 106.675143 
L 483.907101 106.480114 
L 498.184068 106.288155 
L 512.461036 106.098236 
" clip-path="url(#pc64da025cf)" style="fill: none; stroke: #4d4d4d; stroke-width: 1.1; stroke-linecap: square"/>
   </g>
   <g id="line2d_56">
    <path d="M 369.691359 99.604916 
L 369.834129 99.597508 
L 369.976898 99.597508 
L 370.119668 99.597788 
L 370.262438 99.597508 
L 370.405207 99.595545 
L 370.547977 99.596408 
L 370.690747 99.596408 
L 370.833516 99.595592 
L 370.976286 99.596408 
L 371.119056 99.59723 
L 372.546752 99.589528 
L 373.974449 99.584871 
L 375.402146 99.582944 
L 376.829843 99.579093 
L 383.968327 99.548014 
L 391.10681 99.500465 
L 398.245294 99.442989 
L 405.383778 99.363299 
L 412.522262 99.264332 
L 419.660746 99.152745 
L 426.79923 99.036144 
L 433.937714 98.904253 
L 441.076197 98.790418 
L 455.353165 98.54603 
L 469.630133 98.249989 
L 483.907101 97.942133 
L 498.184068 97.616618 
L 512.461036 97.326402 
" clip-path="url(#pc64da025cf)" style="fill: none; stroke: #2166ac; stroke-width: 1.1; stroke-linecap: square"/>
   </g>
   <g id="line2d_57">
    <path d="M 369.691359 99.428186 
L 369.834129 98.538105 
L 369.976898 98.920197 
L 370.119668 98.41743 
L 370.262438 98.444094 
L 370.405207 98.445194 
L 370.547977 98.446018 
L 370.690747 98.447118 
L 370.833516 98.448217 
L 370.976286 98.449042 
L 371.119056 98.450142 
L 372.546752 97.183742 
L 373.974449 95.685063 
L 375.402146 94.187759 
L 376.829843 92.692104 
L 383.968327 93.608299 
L 391.10681 86.139371 
L 398.245294 82.468818 
L 405.383778 82.502629 
L 412.522262 82.516099 
L 419.660746 82.508951 
L 426.79923 82.482013 
L 433.937714 82.434732 
L 441.076197 79.155892 
L 455.353165 70.949445 
L 469.630133 62.782856 
L 483.907101 54.655301 
L 498.184068 48.332647 
L 512.461036 43.449297 
" clip-path="url(#pc64da025cf)" style="fill: none; stroke: #b2182b; stroke-width: 1.1; stroke-linecap: square"/>
   </g>
   <g id="line2d_58">
    <path d="M 362.552875 25.208685 
L 519.59952 25.208685 
" clip-path="url(#pc64da025cf)" style="fill: none; stroke-dasharray: 0.9,1.485; stroke-dashoffset: 0; stroke: #777777; stroke-width: 0.9"/>
   </g>
   <g id="patch_6">
    <path d="M 362.552875 148.907395 
L 362.552875 19.02375 
" style="fill: none; stroke: #000000; stroke-width: 0.8; stroke-linejoin: miter; stroke-linecap: square"/>
   </g>
   <g id="patch_7">
    <path d="M 362.552875 148.907395 
L 519.59952 148.907395 
" style="fill: none; stroke: #000000; stroke-width: 0.8; stroke-linejoin: miter; stroke-linecap: square"/>
   </g>
   <g id="text_34">
    <text style="font: 700 9px 'Arial', 'Helvetica', 'DejaVu Sans', sans-serif; text-anchor: start" x="343.707278" y="18.971599" transform="rotate(-0 343.707278 18.971599)">b</text>
   </g>
   <g id="text_35">
    <text style="font: 8px 'Arial', 'Helvetica', 'DejaVu Sans', sans-serif; text-anchor: middle" x="441.076197" y="13.02375" transform="rotate(-0 441.076197 13.02375)">Migration front</text>
   </g>
   <g id="legend_2">
    <g id="line2d_59">
     <path d="M 476.19077 109.040207 
L 483.19077 109.040207 
L 490.19077 109.040207 
" style="fill: none; stroke: #4d4d4d; stroke-width: 1.1; stroke-linecap: square"/>
    </g>
    <g id="text_36">
     <text style="font: 7px 'Arial', 'Helvetica', 'DejaVu Sans', sans-serif; text-anchor: start" x="495.79077" y="111.490207" transform="rotate(-0 495.79077 111.490207)">mean</text>
    </g>
    <g id="line2d_60">
     <path d="M 476.19077 118.962707 
L 483.19077 118.962707 
L 490.19077 118.962707 
" style="fill: none; stroke: #2166ac; stroke-width: 1.1; stroke-linecap: square"/>
    </g>
    <g id="text_37">
     <text style="font: 7px 'Arial', 'Helvetica', 'DejaVu Sans', sans-serif; text-anchor: start" x="495.79077" y="121.412707" transform="rotate(-0 495.79077 121.412707)">q99</text>
    </g>
    <g id="line2d_61">
     <path d="M 476.19077 128.864426 
L 483.19077 128.864426 
L 490.19077 128.864426 
" style="fill: none; stroke: #b2182b; stroke-width: 1.1; stroke-linecap: square"/>
    </g>
    <g id="text_38">
     <text style="font: 7px 'Arial', 'Helvetica', 'DejaVu Sans', sans-serif; text-anchor: start" x="495.79077" y="131.314426" transform="rotate(-0 495.79077 131.314426)">max</text>
    </g>
    <g id="line2d_62">
     <path d="M 476.19077 138.766145 
L 483.19077 138.766145 
L 490.19077 138.766145 
" style="fill: none; stroke-dasharray: 0.9,1.485; stroke-dashoffset: 0; stroke: #777777; stroke-width: 0.9"/>
    </g>
    <g id="text_39">
     <text style="font: 7px 'Arial', 'Helvetica', 'DejaVu Sans', sans-serif; text-anchor: start" x="495.79077" y="141.216145" transform="rotate(-0 495.79077 141.216145)">outlet</text>
    </g>
   </g>
  </g>
  <g id="axes_3">
   <g id="patch_8">
    <path d="M 100.850875 321.707395 
L 257.89752 321.707395 
L 257.89752 191.82375 
L 100.850875 191.82375 
z
" style="fill: #ffffff"/>
   </g>
   <g id="patch_9">
    <path d="M 100.850875 315.803593 
L 242.43366 315.803593 
L 242.43366 282.067581 
L 100.850875 282.067581 
z
" clip-path="url(#p2da3a2554e)" style="fill: #4d4d4d; stroke: #222222; stroke-width: 0.35; stroke-linejoin: miter"/>
   </g>
   <g id="patch_10">
    <path d="M 100.850875 273.633578 
L 257.122757 273.633578 
L 257.122757 239.897567 
L 100.850875 239.897567 
z
" clip-path="url(#p2da3a2554e)" style="fill: #4d4d4d; stroke: #222222; stroke-width: 0.35; stroke-linejoin: miter"/>
   </g>
   <g id="patch_11">
    <path d="M 100.850875 231.463564 
L 257.635776 231.463564 
L 257.635776 197.727552 
L 100.850875 197.727552 
z
" clip-path="url(#p2da3a2554e)" style="fill: #4d4d4d; stroke: #222222; stroke-width: 0.35; stroke-linejoin: miter"/>
   </g>
   <g id="patch_12">
    <path d="M 242.43366 315.803593 
L 257.625306 315.803593 
L 257.625306 282.067581 
L 242.43366 282.067581 
z
" clip-path="url(#p2da3a2554e)" style="fill: #2166ac; stroke: #222222; stroke-width: 0.35; stroke-linejoin: miter"/>
   </g>
   <g id="patch_13">
    <path d="M 257.122757 273.633578 
L 257.604366 273.633578 
L 257.604366 239.897567 
L 257.122757 239.897567 
z
" clip-path="url(#p2da3a2554e)" style="fill: #2166ac; stroke: #222222; stroke-width: 0.35; stroke-linejoin: miter"/>
   </g>
   <g id="patch_14">
    <path d="M 257.635776 231.463564 
L 257.777118 231.463564 
L 257.777118 197.727552 
L 257.635776 197.727552 
z
" clip-path="url(#p2da3a2554e)" style="fill: #2166ac; stroke: #222222; stroke-width: 0.35; stroke-linejoin: miter"/>
   </g>
   <g id="patch_15">
    <path d="M 257.625306 315.803593 
L 257.625306 315.803593 
L 257.625306 282.067581 
L 257.625306 282.067581 
z
" clip-path="url(#p2da3a2554e)" style="fill: #b2182b; stroke: #222222; stroke-width: 0.35; stroke-linejoin: miter"/>
   </g>
   <g id="patch_16">
    <path d="M 257.604366 273.633578 
L 257.604366 273.633578 
L 257.604366 239.897567 
L 257.604366 239.897567 
z
" clip-path="url(#p2da3a2554e)" style="fill: #b2182b; stroke: #222222; stroke-width: 0.35; stroke-linejoin: miter"/>
   </g>
   <g id="patch_17">
    <path d="M 257.777118 231.463564 
L 257.777118 231.463564 
L 257.777118 197.727552 
L 257.777118 197.727552 
z
" clip-path="url(#p2da3a2554e)" style="fill: #b2182b; stroke: #222222; stroke-width: 0.35; stroke-linejoin: miter"/>
   </g>
   <g id="matplotlib.axis_5">
    <g id="xtick_13">
     <g id="line2d_63">
      <g>
       <use xlink:href="#mc17716bd2e" x="100.850875" y="321.707395" style="stroke: #000000; stroke-width: 0.8"/>
      </g>
     </g>
     <g id="text_40">
      <text style="font: 7.2px 'Arial', 'Helvetica', 'DejaVu Sans', sans-serif; text-anchor: middle" x="100.850875" y="333.86102" transform="rotate(-0 100.850875 333.86102)">0.0</text>
     </g>
    </g>
    <g id="xtick_14">
     <g id="line2d_64">
      <g>
       <use xlink:href="#mc17716bd2e" x="132.260204" y="321.707395" style="stroke: #000000; stroke-width: 0.8"/>
      </g>
     </g>
     <g id="text_41">
      <text style="font: 7.2px 'Arial', 'Helvetica', 'DejaVu Sans', sans-serif; text-anchor: middle" x="132.260204" y="333.86102" transform="rotate(-0 132.260204 333.86102)">0.2</text>
     </g>
    </g>
    <g id="xtick_15">
     <g id="line2d_65">
      <g>
       <use xlink:href="#mc17716bd2e" x="163.669533" y="321.707395" style="stroke: #000000; stroke-width: 0.8"/>
      </g>
     </g>
     <g id="text_42">
      <text style="font: 7.2px 'Arial', 'Helvetica', 'DejaVu Sans', sans-serif; text-anchor: middle" x="163.669533" y="333.86102" transform="rotate(-0 163.669533 333.86102)">0.4</text>
     </g>
    </g>
    <g id="xtick_16">
     <g id="line2d_66">
      <g>
       <use xlink:href="#mc17716bd2e" x="195.078862" y="321.707395" style="stroke: #000000; stroke-width: 0.8"/>
      </g>
     </g>
     <g id="text_43">
      <text style="font: 7.2px 'Arial', 'Helvetica', 'DejaVu Sans', sans-serif; text-anchor: middle" x="195.078862" y="333.86102" transform="rotate(-0 195.078862 333.86102)">0.6</text>
     </g>
    </g>
    <g id="xtick_17">
     <g id="line2d_67">
      <g>
       <use xlink:href="#mc17716bd2e" x="226.488191" y="321.707395" style="stroke: #000000; stroke-width: 0.8"/>
      </g>
     </g>
     <g id="text_44">
      <text style="font: 7.2px 'Arial', 'Helvetica', 'DejaVu Sans', sans-serif; text-anchor: middle" x="226.488191" y="333.86102" transform="rotate(-0 226.488191 333.86102)">0.8</text>
     </g>
    </g>
    <g id="xtick_18">
     <g id="line2d_68">
      <g>
       <use xlink:href="#mc17716bd2e" x="257.89752" y="321.707395" style="stroke: #000000; stroke-width: 0.8"/>
      </g>
     </g>
     <g id="text_45">
      <text style="font: 7.2px 'Arial', 'Helvetica', 'DejaVu Sans', sans-serif; text-anchor: middle" x="257.89752" y="333.86102" transform="rotate(-0 257.89752 333.86102)">1.0</text>
     </g>
    </g>
    <g id="text_46">
     <text style="font: 8px 'Arial', 'Helvetica', 'DejaVu Sans', sans-serif; text-anchor: middle" x="179.374197" y="345.01827" transform="rotate(-0 179.374197 345.01827)">final debris fraction</text>
    </g>
   </g>
   <g id="matplotlib.axis_6">
    <g id="ytick_13">
     <g id="line2d_69">
      <g>
       <use xlink:href="#m58ed790d17" x="100.850875" y="298.935587" style="stroke: #000000; stroke-width: 0.8"/>
      </g>
     </g>
     <g id="text_47">
      <text style="font: 7.2px 'Arial', 'Helvetica', 'DejaVu Sans', sans-serif; text-anchor: end" x="93.850875" y="301.523087" transform="rotate(-0 93.850875 301.523087)">906 upstream, N=15000</text>
     </g>
    </g>
    <g id="ytick_14">
     <g id="line2d_70">
      <g>
       <use xlink:href="#m58ed790d17" x="100.850875" y="256.765572" style="stroke: #000000; stroke-width: 0.8"/>
      </g>
     </g>
     <g id="text_48">
      <text style="font: 7.2px 'Arial', 'Helvetica', 'DejaVu Sans', sans-serif; text-anchor: end" x="93.850875" y="259.342385" transform="rotate(-0 93.850875 259.342385)">907 downstream, N=15000</text>
     </g>
    </g>
    <g id="ytick_15">
     <g id="line2d_71">
      <g>
       <use xlink:href="#m58ed790d17" x="100.850875" y="214.595558" style="stroke: #000000; stroke-width: 0.8"/>
      </g>
     </g>
     <g id="text_49">
      <text style="font: 7.2px 'Arial', 'Helvetica', 'DejaVu Sans', sans-serif; text-anchor: end" x="93.850875" y="217.183058" transform="rotate(-0 93.850875 217.183058)">908 upstream, N=30000</text>
     </g>
    </g>
   </g>
   <g id="patch_18">
    <path d="M 100.850875 321.707395 
L 100.850875 191.82375 
" style="fill: none; stroke: #000000; stroke-width: 0.8; stroke-linejoin: miter; stroke-linecap: square"/>
   </g>
   <g id="patch_19">
    <path d="M 100.850875 321.707395 
L 257.89752 321.707395 
" style="fill: none; stroke: #000000; stroke-width: 0.8; stroke-linejoin: miter; stroke-linecap: square"/>
   </g>
   <g id="text_50">
    <text style="font: 700 9px 'Arial', 'Helvetica', 'DejaVu Sans', sans-serif; text-anchor: start" x="82.005278" y="191.771599" transform="rotate(-0 82.005278 191.771599)">c</text>
   </g>
   <g id="text_51">
    <text style="font: 8px 'Arial', 'Helvetica', 'DejaVu Sans', sans-serif; text-anchor: middle" x="179.374197" y="185.82375" transform="rotate(-0 179.374197 185.82375)">Final partition</text>
   </g>
   <g id="legend_3">
    <g id="patch_20">
     <path d="M 193.872676 294.212707 
L 207.872676 294.212707 
L 207.872676 289.312707 
L 193.872676 289.312707 
z
" style="fill: #4d4d4d; stroke: #222222; stroke-width: 0.35; stroke-linejoin: miter"/>
    </g>
    <g id="text_52">
     <text style="font: 7px 'Arial', 'Helvetica', 'DejaVu Sans', sans-serif; text-anchor: start" x="213.472676" y="294.212707" transform="rotate(-0 213.472676 294.212707)">source</text>
    </g>
    <g id="patch_21">
     <path d="M 193.872676 304.114426 
L 207.872676 304.114426 
L 207.872676 299.214426 
L 193.872676 299.214426 
z
" style="fill: #2166ac; stroke: #222222; stroke-width: 0.35; stroke-linejoin: miter"/>
    </g>
    <g id="text_53">
     <text style="font: 7px 'Arial', 'Helvetica', 'DejaVu Sans', sans-serif; text-anchor: start" x="213.472676" y="304.114426" transform="rotate(-0 213.472676 304.114426)">downstream</text>
    </g>
    <g id="patch_22">
     <path d="M 193.872676 314.016145 
L 207.872676 314.016145 
L 207.872676 309.116145 
L 193.872676 309.116145 
z
" style="fill: #b2182b; stroke: #222222; stroke-width: 0.35; stroke-linejoin: miter"/>
    </g>
    <g id="text_54">
     <text style="font: 7px 'Arial', 'Helvetica', 'DejaVu Sans', sans-serif; text-anchor: start" x="213.472676" y="314.016145" transform="rotate(-0 213.472676 314.016145)">outlet</text>
    </g>
   </g>
  </g>
  <g id="axes_4">
   <g id="patch_23">
    <path d="M 362.552875 321.707395 
L 519.59952 321.707395 
L 519.59952 191.82375 
L 362.552875 191.82375 
z
" style="fill: #ffffff"/>
   </g>
   <g id="patch_24">
    <path d="M 362.552875 315.803593 
L 399.944933 315.803593 
L 399.944933 282.067581 
L 362.552875 282.067581 
z
" clip-path="url(#pe57b1066e4)" style="fill: #2166ac; stroke: #222222; stroke-width: 0.35; stroke-linejoin: miter"/>
   </g>
   <g id="patch_25">
    <path d="M 362.552875 273.633578 
L 370.779128 273.633578 
L 370.779128 239.897567 
L 362.552875 239.897567 
z
" clip-path="url(#pe57b1066e4)" style="fill: #2166ac; stroke: #222222; stroke-width: 0.35; stroke-linejoin: miter"/>
   </g>
   <g id="patch_26">
    <path d="M 362.552875 231.463564 
L 364.048557 231.463564 
L 364.048557 197.727552 
L 362.552875 197.727552 
z
" clip-path="url(#pe57b1066e4)" style="fill: #2166ac; stroke: #222222; stroke-width: 0.35; stroke-linejoin: miter"/>
   </g>
   <g id="matplotlib.axis_7">
    <g id="xtick_19">
     <g id="line2d_72">
      <path d="M 362.552875 321.707395 
L 362.552875 191.82375 
" clip-path="url(#pe57b1066e4)" style="fill: none; stroke: #b0b0b0; stroke-opacity: 0.35; stroke-width: 0.35; stroke-linecap: square"/>
     </g>
     <g id="line2d_73">
      <g>
       <use xlink:href="#mc17716bd2e" x="362.552875" y="321.707395" style="stroke: #000000; stroke-width: 0.8"/>
      </g>
     </g>
     <g id="text_55">
      <text style="font: 7.2px 'Arial', 'Helvetica', 'DejaVu Sans', sans-serif; text-anchor: middle" x="362.552875" y="333.86102" transform="rotate(-0 362.552875 333.86102)">0.0</text>
     </g>
    </g>
    <g id="xtick_20">
     <g id="line2d_74">
      <path d="M 392.466522 321.707395 
L 392.466522 191.82375 
" clip-path="url(#pe57b1066e4)" style="fill: none; stroke: #b0b0b0; stroke-opacity: 0.35; stroke-width: 0.35; stroke-linecap: square"/>
     </g>
     <g id="line2d_75">
      <g>
       <use xlink:href="#mc17716bd2e" x="392.466522" y="321.707395" style="stroke: #000000; stroke-width: 0.8"/>
      </g>
     </g>
     <g id="text_56">
      <text style="font: 7.2px 'Arial', 'Helvetica', 'DejaVu Sans', sans-serif; text-anchor: middle" x="392.466522" y="333.86102" transform="rotate(-0 392.466522 333.86102)">0.2</text>
     </g>
    </g>
    <g id="xtick_21">
     <g id="line2d_76">
      <path d="M 422.380168 321.707395 
L 422.380168 191.82375 
" clip-path="url(#pe57b1066e4)" style="fill: none; stroke: #b0b0b0; stroke-opacity: 0.35; stroke-width: 0.35; stroke-linecap: square"/>
     </g>
     <g id="line2d_77">
      <g>
       <use xlink:href="#mc17716bd2e" x="422.380168" y="321.707395" style="stroke: #000000; stroke-width: 0.8"/>
      </g>
     </g>
     <g id="text_57">
      <text style="font: 7.2px 'Arial', 'Helvetica', 'DejaVu Sans', sans-serif; text-anchor: middle" x="422.380168" y="333.86102" transform="rotate(-0 422.380168 333.86102)">0.4</text>
     </g>
    </g>
    <g id="xtick_22">
     <g id="line2d_78">
      <path d="M 452.293815 321.707395 
L 452.293815 191.82375 
" clip-path="url(#pe57b1066e4)" style="fill: none; stroke: #b0b0b0; stroke-opacity: 0.35; stroke-width: 0.35; stroke-linecap: square"/>
     </g>
     <g id="line2d_79">
      <g>
       <use xlink:href="#mc17716bd2e" x="452.293815" y="321.707395" style="stroke: #000000; stroke-width: 0.8"/>
      </g>
     </g>
     <g id="text_58">
      <text style="font: 7.2px 'Arial', 'Helvetica', 'DejaVu Sans', sans-serif; text-anchor: middle" x="452.293815" y="333.86102" transform="rotate(-0 452.293815 333.86102)">0.6</text>
     </g>
    </g>
    <g id="xtick_23">
     <g id="line2d_80">
      <path d="M 482.207462 321.707395 
L 482.207462 191.82375 
" clip-path="url(#pe57b1066e4)" style="fill: none; stroke: #b0b0b0; stroke-opacity: 0.35; stroke-width: 0.35; stroke-linecap: square"/>
     </g>
     <g id="line2d_81">
      <g>
       <use xlink:href="#mc17716bd2e" x="482.207462" y="321.707395" style="stroke: #000000; stroke-width: 0.8"/>
      </g>
     </g>
     <g id="text_59">
      <text style="font: 7.2px 'Arial', 'Helvetica', 'DejaVu Sans', sans-serif; text-anchor: middle" x="482.207462" y="333.86102" transform="rotate(-0 482.207462 333.86102)">0.8</text>
     </g>
    </g>
    <g id="xtick_24">
     <g id="line2d_82">
      <path d="M 512.121108 321.707395 
L 512.121108 191.82375 
" clip-path="url(#pe57b1066e4)" style="fill: none; stroke: #b0b0b0; stroke-opacity: 0.35; stroke-width: 0.35; stroke-linecap: square"/>
     </g>
     <g id="line2d_83">
      <g>
       <use xlink:href="#mc17716bd2e" x="512.121108" y="321.707395" style="stroke: #000000; stroke-width: 0.8"/>
      </g>
     </g>
     <g id="text_60">
      <text style="font: 7.2px 'Arial', 'Helvetica', 'DejaVu Sans', sans-serif; text-anchor: middle" x="512.121108" y="333.86102" transform="rotate(-0 512.121108 333.86102)">1.0</text>
     </g>
    </g>
    <g id="text_61">
     <text style="font: 8px 'Arial', 'Helvetica', 'DejaVu Sans', sans-serif; text-anchor: middle" x="441.076197" y="345.11577" transform="rotate(-0 441.076197 345.11577)">fraction of target time</text>
    </g>
   </g>
   <g id="matplotlib.axis_8">
    <g id="ytick_16">
     <g id="line2d_84">
      <g>
       <use xlink:href="#m58ed790d17" x="362.552875" y="298.935587" style="stroke: #000000; stroke-width: 0.8"/>
      </g>
     </g>
     <g id="text_62">
      <text style="font: 7.2px 'Arial', 'Helvetica', 'DejaVu Sans', sans-serif; text-anchor: end" x="355.552875" y="301.523087" transform="rotate(-0 355.552875 301.523087)">906 upstream, N=15000</text>
     </g>
    </g>
    <g id="ytick_17">
     <g id="line2d_85">
      <g>
       <use xlink:href="#m58ed790d17" x="362.552875" y="256.765572" style="stroke: #000000; stroke-width: 0.8"/>
      </g>
     </g>
     <g id="text_63">
      <text style="font: 7.2px 'Arial', 'Helvetica', 'DejaVu Sans', sans-serif; text-anchor: end" x="355.552875" y="259.342385" transform="rotate(-0 355.552875 259.342385)">907 downstream, N=15000</text>
     </g>
    </g>
    <g id="ytick_18">
     <g id="line2d_86">
      <g>
       <use xlink:href="#m58ed790d17" x="362.552875" y="214.595558" style="stroke: #000000; stroke-width: 0.8"/>
      </g>
     </g>
     <g id="text_64">
      <text style="font: 7.2px 'Arial', 'Helvetica', 'DejaVu Sans', sans-serif; text-anchor: end" x="355.552875" y="217.183058" transform="rotate(-0 355.552875 217.183058)">908 upstream, N=30000</text>
     </g>
    </g>
   </g>
   <g id="line2d_87">
    <path d="M 512.121108 321.707395 
L 512.121108 191.82375 
" clip-path="url(#pe57b1066e4)" style="fill: none; stroke-dasharray: 0.9,1.485; stroke-dashoffset: 0; stroke: #4d4d4d; stroke-width: 0.9"/>
   </g>
   <g id="patch_27">
    <path d="M 362.552875 321.707395 
L 362.552875 191.82375 
" style="fill: none; stroke: #000000; stroke-width: 0.8; stroke-linejoin: miter; stroke-linecap: square"/>
   </g>
   <g id="patch_28">
    <path d="M 362.552875 321.707395 
L 519.59952 321.707395 
" style="fill: none; stroke: #000000; stroke-width: 0.8; stroke-linejoin: miter; stroke-linecap: square"/>
   </g>
   <g id="text_65">
    <text style="font: 6.8px 'Arial', 'Helvetica', 'DejaVu Sans', sans-serif; text-anchor: start" x="403.684139" y="300.693493" transform="rotate(-0 403.684139 300.693493)">10 ms</text>
   </g>
   <g id="text_66">
    <text style="font: 6.8px 'Arial', 'Helvetica', 'DejaVu Sans', sans-serif; text-anchor: start" x="374.518334" y="258.523479" transform="rotate(-0 374.518334 258.523479)">0.55 ms</text>
   </g>
   <g id="text_67">
    <text style="font: 6.8px 'Arial', 'Helvetica', 'DejaVu Sans', sans-serif; text-anchor: start" x="367.787763" y="216.353464" transform="rotate(-0 367.787763 216.353464)">0.1 ms</text>
   </g>
   <g id="text_68">
    <text style="font: 700 9px 'Arial', 'Helvetica', 'DejaVu Sans', sans-serif; text-anchor: start" x="343.707278" y="191.771599" transform="rotate(-0 343.707278 191.771599)">d</text>
   </g>
   <g id="text_69">
    <text style="font: 8px 'Arial', 'Helvetica', 'DejaVu Sans', sans-serif; text-anchor: middle" x="441.076197" y="185.82375" transform="rotate(-0 441.076197 185.82375)">diagnostic view: 3/3 jobs, not manuscript evidence</text>
   </g>
  </g>
 </g>
 <defs>
  <clipPath id="pb325b43258">
   <rect x="100.850875" y="19.02375" width="157.046645" height="129.883645"/>
  </clipPath>
  <clipPath id="pc64da025cf">
   <rect x="362.552875" y="19.02375" width="157.046645" height="129.883645"/>
  </clipPath>
  <clipPath id="p2da3a2554e">
   <rect x="100.850875" y="191.82375" width="157.046645" height="129.883645"/>
  </clipPath>
  <clipPath id="pe57b1066e4">
   <rect x="362.552875" y="191.82375" width="157.046645" height="129.883645"/>
  </clipPath>
 </defs>
</svg>
