<?xml version="1.0" encoding="utf-8" standalone="no"?>
<!DOCTYPE svg PUBLIC "-//W3C//DTD SVG 1.1//EN"
  "http://www.w3.org/Graphics/SVG/1.1/DTD/svg11.dtd">
<svg xmlns:xlink="http://www.w3.org/1999/xlink" width="475.92pt" height="187.38pt" viewBox="0 0 475.92 187.38" xmlns="http://www.w3.org/2000/svg" version="1.1">
 <metadata>
  <rdf:RDF xmlns:dc="http://purl.org/dc/elements/1.1/" xmlns:cc="http://creativecommons.org/ns#" xmlns:rdf="http://www.w3.org/1999/02/22-rdf-syntax-ns#">
   <cc:Work>
    <dc:type rdf:resource="http://purl.org/dc/dcmitype/StillImage"/>
    <dc:date>2026-06-13T08:25:46.263542</dc:date>
    <dc:format>image/svg+xml</dc:format>
    <dc:creator>
     <cc:Agent>
      <dc:title>Matplotlib v3.9.4, https://matplotlib.org/</dc:title>
     </cc:Agent>
    </dc:creator>
   </cc:Work>
  </rdf:RDF>
 </metadata>
 <defs>
  <style type="text/css">*{stroke-linejoin: round; stroke-linecap: butt}</style>
 </defs>
 <g id="figure_1">
  <g id="patch_1">
   <path d="M 0 187.38 
L 475.92 187.38 
L 475.92 0 
L 0 0 
z
" style="fill: #ffffff"/>
  </g>
  <g id="axes_1">
   <g id="patch_2">
    <path d="M 29.3796 138.735 
L 198.1188 138.735 
L 198.1188 52.2486 
L 29.3796 52.2486 
z
" clip-path="url(#p7a54478328)" style="fill: #f7f7f3; stroke: #3f3f3f; stroke-width: 1.15; stroke-linejoin: miter"/>
   </g>
   <g id="patch_3">
    <path d="M 88.291155 105.468665 
C 90.105762 105.468665 91.846291 105.191525 93.129412 104.698283 
C 94.412533 104.20504 95.133484 103.535966 95.133484 102.838415 
C 95.133484 102.140865 94.412533 101.47179 93.129412 100.978547 
C 91.846291 100.485305 90.105762 100.208165 88.291155 100.208165 
C 86.476548 100.208165 84.736019 100.485305 83.452898 100.978547 
C 82.169777 101.47179 81.448826 102.140865 81.448826 102.838415 
C 81.448826 103.535966 82.169777 104.20504 83.452898 104.698283 
C 84.736019 105.191525 86.476548 105.468665 88.291155 105.468665 
z
" clip-path="url(#p7a54478328)" style="fill: #d7d5ca; opacity: 0.95; stroke: #ffffff; stroke-width: 0.35; stroke-linejoin: miter"/>
   </g>
   <g id="patch_4">
    <path d="M 114.709104 93.139752 
C 116.518688 93.139752 118.2544 92.863379 119.533969 92.371502 
C 120.813539 91.879624 121.532494 91.212402 121.532494 90.516782 
C 121.532494 89.821162 120.813539 89.153939 119.533969 88.662062 
C 118.2544 88.170184 116.518688 87.893812 114.709104 87.893812 
C 112.899519 87.893812 111.163807 88.170184 109.884238 88.662062 
C 108.604668 89.153939 107.885713 89.821162 107.885713 90.516782 
C 107.885713 91.212402 108.604668 91.879624 109.884238 92.371502 
C 111.163807 92.863379 112.899519 93.139752 114.709104 93.139752 
z
" clip-path="url(#p7a54478328)" style="fill: #d7d5ca; opacity: 0.95; stroke: #ffffff; stroke-width: 0.35; stroke-linejoin: miter"/>
   </g>
   <g id="patch_5">
    <path d="M 169.863088 130.406126 
C 171.844501 130.406126 173.745027 130.103511 175.146098 129.564927 
C 176.547169 129.026343 177.334392 128.295765 177.334392 127.534093 
C 177.334392 126.77242 176.547169 126.041842 175.146098 125.503258 
C 173.745027 124.964675 171.844501 124.662059 169.863088 124.662059 
C 167.881675 124.662059 165.981149 124.964675 164.580078 125.503258 
C 163.179008 126.041842 162.391784 126.77242 162.391784 127.534093 
C 162.391784 128.295765 163.179008 129.026343 164.580078 129.564927 
C 165.981149 130.103511 167.881675 130.406126 169.863088 130.406126 
z
" clip-path="url(#p7a54478328)" style="fill: #d7d5ca; opacity: 0.95; stroke: #ffffff; stroke-width: 0.35; stroke-linejoin: miter"/>
   </g>
   <g id="patch_6">
    <path d="M 161.801214 81.446873 
C 163.451924 81.446873 165.035247 81.194764 166.202475 80.746072 
C 167.369703 80.297379 168.025537 79.688736 168.025537 79.054189 
C 168.025537 78.419642 167.369703 77.810999 166.202475 77.362307 
C 165.035247 76.913614 163.451924 76.661506 161.801214 76.661506 
C 160.150504 76.661506 158.567181 76.913614 157.399953 77.362307 
C 156.232725 77.810999 155.576891 78.419642 155.576891 79.054189 
C 155.576891 79.688736 156.232725 80.297379 157.399953 80.746072 
C 158.567181 81.194764 160.150504 81.446873 161.801214 81.446873 
z
" clip-path="url(#p7a54478328)" style="fill: #d7d5ca; opacity: 0.95; stroke: #ffffff; stroke-width: 0.35; stroke-linejoin: miter"/>
   </g>
   <g id="patch_7">
    <path d="M 180.188014 134.791831 
C 182.229556 134.791831 184.187756 134.480032 185.631345 133.925105 
C 187.074933 133.370177 187.886046 132.617428 187.886046 131.832641 
C 187.886046 131.047855 187.074933 130.295106 185.631345 129.740178 
C 184.187756 129.185251 182.229556 128.873452 180.188014 128.873452 
C 178.146472 128.873452 176.188271 129.185251 174.744683 129.740178 
C 173.301095 130.295106 172.489982 131.047855 172.489982 131.832641 
C 172.489982 132.617428 173.301095 133.370177 174.744683 133.925105 
C 176.188271 134.480032 178.146472 134.791831 180.188014 134.791831 
z
" clip-path="url(#p7a54478328)" style="fill: #d7d5ca; opacity: 0.95; stroke: #ffffff; stroke-width: 0.35; stroke-linejoin: miter"/>
   </g>
   <g id="patch_8">
    <path d="M 129.055514 133.32508 
C 130.629128 133.32508 132.138503 133.084747 133.251216 132.65701 
C 134.363929 132.229274 134.989132 131.649057 134.989132 131.044147 
C 134.989132 130.439236 134.363929 129.859019 133.251216 129.431283 
C 132.138503 129.003546 130.629128 128.763213 129.055514 128.763213 
C 127.4819 128.763213 125.972526 129.003546 124.859813 129.431283 
C 123.7471 129.859019 123.121896 130.439236 123.121896 131.044147 
C 123.121896 131.649057 123.7471 132.229274 124.859813 132.65701 
C 125.972526 133.084747 127.4819 133.32508 129.055514 133.32508 
z
" clip-path="url(#p7a54478328)" style="fill: #d7d5ca; opacity: 0.95; stroke: #ffffff; stroke-width: 0.35; stroke-linejoin: miter"/>
   </g>
   <g id="patch_9">
    <path d="M 95.491265 123.319036 
C 97.373358 123.319036 99.178619 123.03159 100.50946 122.520003 
C 101.840301 122.008416 102.588064 121.314458 102.588064 120.590966 
C 102.588064 119.867473 101.840301 119.173515 100.50946 118.661929 
C 99.178619 118.150342 97.373358 117.862895 95.491265 117.862895 
C 93.609172 117.862895 91.803911 118.150342 90.473071 118.661929 
C 89.14223 119.173515 88.394466 119.867473 88.394466 120.590966 
C 88.394466 121.314458 89.14223 122.008416 90.473071 122.520003 
C 91.803911 123.03159 93.609172 123.319036 95.491265 123.319036 
z
" clip-path="url(#p7a54478328)" style="fill: #d7d5ca; opacity: 0.95; stroke: #ffffff; stroke-width: 0.35; stroke-linejoin: miter"/>
   </g>
   <g id="patch_10">
    <path d="M 104.635917 81.109007 
C 106.248352 81.109007 107.794963 80.862744 108.935126 80.424455 
C 110.07529 79.986167 110.715917 79.391636 110.715917 78.771803 
C 110.715917 78.151969 110.07529 77.557438 108.935126 77.11915 
C 107.794963 76.680861 106.248352 76.434598 104.635917 76.434598 
C 103.023482 76.434598 101.476872 76.680861 100.336708 77.11915 
C 99.196544 77.557438 98.555917 78.151969 98.555917 78.771803 
C 98.555917 79.391636 99.196544 79.986167 100.336708 80.424455 
C 101.476872 80.862744 103.023482 81.109007 104.635917 81.109007 
z
" clip-path="url(#p7a54478328)" style="fill: #d7d5ca; opacity: 0.95; stroke: #ffffff; stroke-width: 0.35; stroke-linejoin: miter"/>
   </g>
   <g id="patch_11">
    <path d="M 46.88058 81.638373 
C 48.852615 81.638373 50.744147 81.33719 52.138586 80.801155 
C 53.533026 80.265121 54.316524 79.538 54.316524 78.779932 
C 54.316524 78.021865 53.533026 77.294744 52.138586 76.758709 
C 50.744147 76.222675 48.852615 75.921491 46.88058 75.921491 
C 44.908544 75.921491 43.017013 76.222675 41.622573 76.758709 
C 40.228134 77.294744 39.444636 78.021865 39.444636 78.779932 
C 39.444636 79.538 40.228134 80.265121 41.622573 80.801155 
C 43.017013 81.33719 44.908544 81.638373 46.88058 81.638373 
z
" clip-path="url(#p7a54478328)" style="fill: #d7d5ca; opacity: 0.95; stroke: #ffffff; stroke-width: 0.35; stroke-linejoin: miter"/>
   </g>
   <g id="patch_12">
    <path d="M 51.074932 100.625634 
C 52.77067 100.625634 54.397184 100.366648 55.596253 99.905716 
C 56.795321 99.444784 57.469045 98.819538 57.469045 98.167682 
C 57.469045 97.515825 56.795321 96.890579 55.596253 96.429647 
C 54.397184 95.968715 52.77067 95.709729 51.074932 95.709729 
C 49.379193 95.709729 47.752679 95.968715 46.553611 96.429647 
C 45.354542 96.890579 44.680818 97.515825 44.680818 98.167682 
C 44.680818 98.819538 45.354542 99.444784 46.553611 99.905716 
C 47.752679 100.366648 49.379193 100.625634 51.074932 100.625634 
z
" clip-path="url(#p7a54478328)" style="fill: #d7d5ca; opacity: 0.95; stroke: #ffffff; stroke-width: 0.35; stroke-linejoin: miter"/>
   </g>
   <g id="patch_13">
    <path d="M 175.976614 90.164069 
C 177.52541 90.164069 179.010979 89.927526 180.106143 89.506536 
C 181.201306 89.085545 181.816649 88.51448 181.816649 87.91911 
C 181.816649 87.323739 181.201306 86.752674 180.106143 86.331683 
C 179.010979 85.910693 177.52541 85.67415 175.976614 85.67415 
C 174.427819 85.67415 172.94225 85.910693 171.847086 86.331683 
C 170.751922 86.752674 170.136579 87.323739 170.136579 87.91911 
C 170.136579 88.51448 170.751922 89.085545 171.847086 89.506536 
C 172.94225 89.927526 174.427819 90.164069 175.976614 90.164069 
z
" clip-path="url(#p7a54478328)" style="fill: #d7d5ca; opacity: 0.95; stroke: #ffffff; stroke-width: 0.35; stroke-linejoin: miter"/>
   </g>
   <g id="patch_14">
    <path d="M 170.840454 112.003396 
C 172.805853 112.003396 174.691018 111.703226 176.080765 111.168996 
C 177.470511 110.634765 178.251373 109.910091 178.251373 109.154575 
C 178.251373 108.399059 177.470511 107.674385 176.080765 107.140155 
C 174.691018 106.605924 172.805853 106.305754 170.840454 106.305754 
C 168.875055 106.305754 166.98989 106.605924 165.600143 107.140155 
C 164.210397 107.674385 163.429535 108.399059 163.429535 109.154575 
C 163.429535 109.910091 164.210397 110.634765 165.600143 111.168996 
C 166.98989 111.703226 168.875055 112.003396 170.840454 112.003396 
z
" clip-path="url(#p7a54478328)" style="fill: #d7d5ca; opacity: 0.95; stroke: #ffffff; stroke-width: 0.35; stroke-linejoin: miter"/>
   </g>
   <g id="patch_15">
    <path d="M 67.045916 119.575552 
C 68.433901 119.575552 69.765224 119.363569 70.746678 118.98629 
C 71.728131 118.609011 72.279583 118.097239 72.279583 117.563685 
C 72.279583 117.030132 71.728131 116.51836 70.746678 116.141081 
C 69.765224 115.763801 68.433901 115.551818 67.045916 115.551818 
C 65.657931 115.551818 64.326607 115.763801 63.345154 116.141081 
C 62.3637 116.51836 61.812248 117.030132 61.812248 117.563685 
C 61.812248 118.097239 62.3637 118.609011 63.345154 118.98629 
C 64.326607 119.363569 65.657931 119.575552 67.045916 119.575552 
z
" clip-path="url(#p7a54478328)" style="fill: #d7d5ca; opacity: 0.95; stroke: #ffffff; stroke-width: 0.35; stroke-linejoin: miter"/>
   </g>
   <g id="patch_16">
    <path d="M 161.870375 121.561049 
C 163.376851 121.561049 164.821829 121.330969 165.887068 120.921482 
C 166.952308 120.511995 167.550837 119.956533 167.550837 119.377431 
C 167.550837 118.798328 166.952308 118.242866 165.887068 117.833379 
C 164.821829 117.423892 163.376851 117.193812 161.870375 117.193812 
C 160.363899 117.193812 158.918922 117.423892 157.853682 117.833379 
C 156.788443 118.242866 156.189913 118.798328 156.189913 119.377431 
C 156.189913 119.956533 156.788443 120.511995 157.853682 120.921482 
C 158.918922 121.330969 160.363899 121.561049 161.870375 121.561049 
z
" clip-path="url(#p7a54478328)" style="fill: #d7d5ca; opacity: 0.95; stroke: #ffffff; stroke-width: 0.35; stroke-linejoin: miter"/>
   </g>
   <g id="patch_17">
    <path d="M 69.14279 74.552292 
C 70.885041 74.552292 72.55617 74.286203 73.788127 73.812627 
C 75.020085 73.339052 75.712289 72.696656 75.712289 72.02692 
C 75.712289 71.357183 75.020085 70.714787 73.788127 70.241212 
C 72.55617 69.767637 70.885041 69.501547 69.14279 69.501547 
C 67.400538 69.501547 65.72941 69.767637 64.497452 70.241212 
C 63.265494 70.714787 62.57329 71.357183 62.57329 72.02692 
C 62.57329 72.696656 63.265494 73.339052 64.497452 73.812627 
C 65.72941 74.286203 67.400538 74.552292 69.14279 74.552292 
z
" clip-path="url(#p7a54478328)" style="fill: #d7d5ca; opacity: 0.95; stroke: #ffffff; stroke-width: 0.35; stroke-linejoin: miter"/>
   </g>
   <g id="patch_18">
    <path d="M 70.003563 67.04164 
C 72.057304 67.04164 74.027206 66.727978 75.479421 66.169735 
C 76.931635 65.611491 77.747595 64.854244 77.747595 64.064768 
C 77.747595 63.275292 76.931635 62.518045 75.479421 61.959801 
C 74.027206 61.401557 72.057304 61.087895 70.003563 61.087895 
C 67.949821 61.087895 65.979919 61.401557 64.527704 61.959801 
C 63.07549 62.518045 62.25953 63.275292 62.25953 64.064768 
C 62.25953 64.854244 63.07549 65.611491 64.527704 66.169735 
C 65.979919 66.727978 67.949821 67.04164 70.003563 67.04164 
z
" clip-path="url(#p7a54478328)" style="fill: #d7d5ca; opacity: 0.95; stroke: #ffffff; stroke-width: 0.35; stroke-linejoin: miter"/>
   </g>
   <g id="patch_19">
    <path d="M 85.343457 110.402843 
C 86.688317 110.402843 87.978276 110.197446 88.929236 109.831889 
C 89.880195 109.466332 90.414514 108.970461 90.414514 108.453485 
C 90.414514 107.93651 89.880195 107.440638 88.929236 107.075081 
C 87.978276 106.709524 86.688317 106.504128 85.343457 106.504128 
C 83.998597 106.504128 82.708638 106.709524 81.757679 107.075081 
C 80.806719 107.440638 80.272401 107.93651 80.272401 108.453485 
C 80.272401 108.970461 80.806719 109.466332 81.757679 109.831889 
C 82.708638 110.197446 83.998597 110.402843 85.343457 110.402843 
z
" clip-path="url(#p7a54478328)" style="fill: #d7d5ca; opacity: 0.95; stroke: #ffffff; stroke-width: 0.35; stroke-linejoin: miter"/>
   </g>
   <g id="patch_20">
    <path d="M 53.166527 81.577794 
C 55.232307 81.577794 57.213756 81.262294 58.674484 80.700777 
C 60.135211 80.139261 60.955954 79.377575 60.955954 78.583471 
C 60.955954 77.789368 60.135211 77.027681 58.674484 76.466165 
C 57.213756 75.904649 55.232307 75.589148 53.166527 75.589148 
C 51.100746 75.589148 49.119297 75.904649 47.65857 76.466165 
C 46.197842 77.027681 45.377099 77.789368 45.377099 78.583471 
C 45.377099 79.377575 46.197842 80.139261 47.65857 80.700777 
C 49.119297 81.262294 51.100746 81.577794 53.166527 81.577794 
z
" clip-path="url(#p7a54478328)" style="fill: #d7d5ca; opacity: 0.95; stroke: #ffffff; stroke-width: 0.35; stroke-linejoin: miter"/>
   </g>
   <g id="patch_21">
    <path d="M 141.858327 117.784425 
C 143.946304 117.784425 145.949044 117.465535 147.425467 116.897985 
C 148.90189 116.330435 149.731452 115.560565 149.731452 114.757928 
C 149.731452 113.955292 148.90189 113.185421 147.425467 112.617872 
C 145.949044 112.050322 143.946304 111.731431 141.858327 111.731431 
C 139.77035 111.731431 137.767609 112.050322 136.291187 112.617872 
C 134.814764 113.185421 133.985202 113.955292 133.985202 114.757928 
C 133.985202 115.560565 134.814764 116.330435 136.291187 116.897985 
C 137.767609 117.465535 139.77035 117.784425 141.858327 117.784425 
z
" clip-path="url(#p7a54478328)" style="fill: #d7d5ca; opacity: 0.95; stroke: #ffffff; stroke-width: 0.35; stroke-linejoin: miter"/>
   </g>
   <g id="patch_22">
    <path d="M 75.239048 117.156221 
C 77.140513 117.156221 78.964355 116.865815 80.308893 116.348963 
C 81.653432 115.832111 82.408892 115.13101 82.408892 114.400071 
C 82.408892 113.669132 81.653432 112.968031 80.308893 112.451179 
C 78.964355 111.934327 77.140513 111.643921 75.239048 111.643921 
C 73.337584 111.643921 71.513742 111.934327 70.169203 112.451179 
C 68.824665 112.968031 68.069205 113.669132 68.069205 114.400071 
C 68.069205 115.13101 68.824665 115.832111 70.169203 116.348963 
C 71.513742 116.865815 73.337584 117.156221 75.239048 117.156221 
z
" clip-path="url(#p7a54478328)" style="fill: #d7d5ca; opacity: 0.95; stroke: #ffffff; stroke-width: 0.35; stroke-linejoin: miter"/>
   </g>
   <g id="patch_23">
    <path d="M 75.7056 75.331981 
C 77.271936 75.331981 78.774329 75.092759 79.881896 74.667001 
C 80.989463 74.241242 81.611775 73.663709 81.611775 73.061596 
C 81.611775 72.459483 80.989463 71.88195 79.881896 71.456192 
C 78.774329 71.030434 77.271936 70.791212 75.7056 70.791212 
C 74.139264 70.791212 72.63687 71.030434 71.529303 71.456192 
C 70.421736 71.88195 69.799424 72.459483 69.799424 73.061596 
C 69.799424 73.663709 70.421736 74.241242 71.529303 74.667001 
C 72.63687 75.092759 74.139264 75.331981 75.7056 75.331981 
z
" clip-path="url(#p7a54478328)" style="fill: #d7d5ca; opacity: 0.95; stroke: #ffffff; stroke-width: 0.35; stroke-linejoin: miter"/>
   </g>
   <g id="patch_24">
    <path d="M 166.253857 70.774532 
C 168.083667 70.774532 169.838779 70.495071 171.132649 69.997696 
C 172.42652 69.500321 173.153511 68.825641 173.153511 68.122246 
C 173.153511 67.418851 172.42652 66.744171 171.132649 66.246796 
C 169.838779 65.749421 168.083667 65.46996 166.253857 65.46996 
C 164.424048 65.46996 162.668936 65.749421 161.375065 66.246796 
C 160.081195 66.744171 159.354203 67.418851 159.354203 68.122246 
C 159.354203 68.825641 160.081195 69.500321 161.375065 69.997696 
C 162.668936 70.495071 164.424048 70.774532 166.253857 70.774532 
z
" clip-path="url(#p7a54478328)" style="fill: #d7d5ca; opacity: 0.95; stroke: #ffffff; stroke-width: 0.35; stroke-linejoin: miter"/>
   </g>
   <g id="patch_25">
    <path d="M 170.209586 86.661094 
C 171.793337 86.661094 173.312434 86.419212 174.432315 85.98872 
C 175.552196 85.558228 176.181427 84.974274 176.181427 84.365467 
C 176.181427 83.756659 175.552196 83.172705 174.432315 82.742213 
C 173.312434 82.311721 171.793337 82.069839 170.209586 82.069839 
C 168.625835 82.069839 167.106737 82.311721 165.986856 82.742213 
C 164.866975 83.172705 164.237745 83.756659 164.237745 84.365467 
C 164.237745 84.974274 164.866975 85.558228 165.986856 85.98872 
C 167.106737 86.419212 168.625835 86.661094 170.209586 86.661094 
z
" clip-path="url(#p7a54478328)" style="fill: #d7d5ca; opacity: 0.95; stroke: #ffffff; stroke-width: 0.35; stroke-linejoin: miter"/>
   </g>
   <g id="patch_26">
    <path d="M 81.138363 75.748584 
C 82.522347 75.748584 83.849833 75.537212 84.828458 75.161021 
C 85.807082 74.784829 86.356945 74.274532 86.356945 73.742517 
C 86.356945 73.210501 85.807082 72.700204 84.828458 72.324013 
C 83.849833 71.947821 82.522347 71.736449 81.138363 71.736449 
C 79.754379 71.736449 78.426893 71.947821 77.448269 72.324013 
C 76.469644 72.700204 75.919782 73.210501 75.919782 73.742517 
C 75.919782 74.274532 76.469644 74.784829 77.448269 75.161021 
C 78.426893 75.537212 79.754379 75.748584 81.138363 75.748584 
z
" clip-path="url(#p7a54478328)" style="fill: #d7d5ca; opacity: 0.95; stroke: #ffffff; stroke-width: 0.35; stroke-linejoin: miter"/>
   </g>
   <g id="patch_27">
    <path d="M 148.331365 93.630459 
C 149.610784 93.630459 150.837974 93.435057 151.74266 93.087288 
C 152.647346 92.739518 153.155665 92.267776 153.155665 91.775956 
C 153.155665 91.284137 152.647346 90.812394 151.74266 90.464625 
C 150.837974 90.116856 149.610784 89.921454 148.331365 89.921454 
C 147.051946 89.921454 145.824756 90.116856 144.92007 90.464625 
C 144.015384 90.812394 143.507065 91.284137 143.507065 91.775956 
C 143.507065 92.267776 144.015384 92.739518 144.92007 93.087288 
C 145.824756 93.435057 147.051946 93.630459 148.331365 93.630459 
z
" clip-path="url(#p7a54478328)" style="fill: #d7d5ca; opacity: 0.95; stroke: #ffffff; stroke-width: 0.35; stroke-linejoin: miter"/>
   </g>
   <g id="patch_28">
    <path d="M 70.614296 97.866465 
C 72.087433 97.866465 73.500433 97.641477 74.542098 97.241052 
C 75.583763 96.840627 76.169047 96.297458 76.169047 95.731171 
C 76.169047 95.164885 75.583763 94.621715 74.542098 94.22129 
C 73.500433 93.820865 72.087433 93.595877 70.614296 93.595877 
C 69.141159 93.595877 67.72816 93.820865 66.686494 94.22129 
C 65.644829 94.621715 65.059546 95.164885 65.059546 95.731171 
C 65.059546 96.297458 65.644829 96.840627 66.686494 97.241052 
C 67.72816 97.641477 69.141159 97.866465 70.614296 97.866465 
z
" clip-path="url(#p7a54478328)" style="fill: #d7d5ca; opacity: 0.95; stroke: #ffffff; stroke-width: 0.35; stroke-linejoin: miter"/>
   </g>
   <g id="patch_29">
    <path d="M 141.527204 80.494218 
C 143.737253 80.494218 145.857083 80.156683 147.419824 79.555952 
C 148.982565 78.955221 149.860627 78.14034 149.860627 77.290778 
C 149.860627 76.441216 148.982565 75.626335 147.419824 75.025604 
C 145.857083 74.424873 143.737253 74.087338 141.527204 74.087338 
C 139.317154 74.087338 137.197325 74.424873 135.634583 75.025604 
C 134.071842 75.626335 133.19378 76.441216 133.19378 77.290778 
C 133.19378 78.14034 134.071842 78.955221 135.634583 79.555952 
C 137.197325 80.156683 139.317154 80.494218 141.527204 80.494218 
z
" clip-path="url(#p7a54478328)" style="fill: #d7d5ca; opacity: 0.95; stroke: #ffffff; stroke-width: 0.35; stroke-linejoin: miter"/>
   </g>
   <g id="patch_30">
    <path d="M 172.836222 88.725322 
C 174.738988 88.725322 176.564077 88.434718 177.909535 87.917512 
C 179.254993 87.400306 180.01097 86.698727 180.01097 85.967287 
C 180.01097 85.235848 179.254993 84.534268 177.909535 84.017062 
C 176.564077 83.499856 174.738988 83.209252 172.836222 83.209252 
C 170.933457 83.209252 169.108368 83.499856 167.76291 84.017062 
C 166.417451 84.534268 165.661475 85.235848 165.661475 85.967287 
C 165.661475 86.698727 166.417451 87.400306 167.76291 87.917512 
C 169.108368 88.434718 170.933457 88.725322 172.836222 88.725322 
z
" clip-path="url(#p7a54478328)" style="fill: #d7d5ca; opacity: 0.95; stroke: #ffffff; stroke-width: 0.35; stroke-linejoin: miter"/>
   </g>
   <g id="patch_31">
    <path d="M 145.225488 127.358265 
C 146.552106 127.358265 147.824569 127.155654 148.76263 126.795056 
C 149.700691 126.434457 150.227762 125.945312 150.227762 125.435348 
C 150.227762 124.925384 149.700691 124.436239 148.76263 124.07564 
C 147.824569 123.715041 146.552106 123.512431 145.225488 123.512431 
C 143.898869 123.512431 142.626407 123.715041 141.688346 124.07564 
C 140.750285 124.436239 140.223214 124.925384 140.223214 125.435348 
C 140.223214 125.945312 140.750285 126.434457 141.688346 126.795056 
C 142.626407 127.155654 143.898869 127.358265 145.225488 127.358265 
z
" clip-path="url(#p7a54478328)" style="fill: #d7d5ca; opacity: 0.95; stroke: #ffffff; stroke-width: 0.35; stroke-linejoin: miter"/>
   </g>
   <g id="patch_32">
    <path d="M 171.864678 72.285632 
C 173.552409 72.285632 175.171242 72.02787 176.364648 71.569114 
C 177.558054 71.110358 178.228596 70.488065 178.228596 69.839287 
C 178.228596 69.190508 177.558054 68.568215 176.364648 68.10946 
C 175.171242 67.650704 173.552409 67.392942 171.864678 67.392942 
C 170.176947 67.392942 168.558114 67.650704 167.364708 68.10946 
C 166.171302 68.568215 165.500759 69.190508 165.500759 69.839287 
C 165.500759 70.488065 166.171302 71.110358 167.364708 71.569114 
C 168.558114 72.02787 170.176947 72.285632 171.864678 72.285632 
z
" clip-path="url(#p7a54478328)" style="fill: #d7d5ca; opacity: 0.95; stroke: #ffffff; stroke-width: 0.35; stroke-linejoin: miter"/>
   </g>
   <g id="patch_33">
    <path d="M 72.662532 130.211572 
C 74.665406 130.211572 76.586518 129.905678 78.002765 129.361261 
C 79.419011 128.816844 80.214762 128.078352 80.214762 127.30843 
C 80.214762 126.538507 79.419011 125.800015 78.002765 125.255598 
C 76.586518 124.711181 74.665406 124.405287 72.662532 124.405287 
C 70.659657 124.405287 68.738545 124.711181 67.322298 125.255598 
C 65.906052 125.800015 65.110301 126.538507 65.110301 127.30843 
C 65.110301 128.078352 65.906052 128.816844 67.322298 129.361261 
C 68.738545 129.905678 70.659657 130.211572 72.662532 130.211572 
z
" clip-path="url(#p7a54478328)" style="fill: #d7d5ca; opacity: 0.95; stroke: #ffffff; stroke-width: 0.35; stroke-linejoin: miter"/>
   </g>
   <g id="patch_34">
    <path d="M 85.511642 89.071096 
C 87.155001 89.071096 88.731273 88.820111 89.893304 88.373416 
C 91.055334 87.926722 91.708247 87.320789 91.708247 86.689068 
C 91.708247 86.057347 91.055334 85.451414 89.893304 85.00472 
C 88.731273 84.558025 87.155001 84.30704 85.511642 84.30704 
C 83.868283 84.30704 82.292011 84.558025 81.12998 85.00472 
C 79.96795 85.451414 79.315037 86.057347 79.315037 86.689068 
C 79.315037 87.320789 79.96795 87.926722 81.12998 88.373416 
C 82.292011 88.820111 83.868283 89.071096 85.511642 89.071096 
z
" clip-path="url(#p7a54478328)" style="fill: #d7d5ca; opacity: 0.95; stroke: #ffffff; stroke-width: 0.35; stroke-linejoin: miter"/>
   </g>
   <g id="patch_35">
    <path d="M 104.69996 103.225797 
C 106.236247 103.225797 107.709818 102.991164 108.796137 102.573574 
C 109.882456 102.155984 110.492829 101.58953 110.492829 100.998968 
C 110.492829 100.408406 109.882456 99.841953 108.796137 99.424363 
C 107.709818 99.006772 106.236247 98.772139 104.69996 98.772139 
C 103.163673 98.772139 101.690102 99.006772 100.603783 99.424363 
C 99.517464 99.841953 98.90709 100.408406 98.90709 100.998968 
C 98.90709 101.58953 99.517464 102.155984 100.603783 102.573574 
C 101.690102 102.991164 103.163673 103.225797 104.69996 103.225797 
z
" clip-path="url(#p7a54478328)" style="fill: #d7d5ca; opacity: 0.95; stroke: #ffffff; stroke-width: 0.35; stroke-linejoin: miter"/>
   </g>
   <g id="patch_36">
    <path d="M 130.924344 95.585301 
C 132.310376 95.585301 133.639826 95.373616 134.619898 94.996868 
C 135.59997 94.62012 136.150646 94.109068 136.150646 93.576265 
C 136.150646 93.043463 135.59997 92.532411 134.619898 92.155663 
C 133.639826 91.778915 132.310376 91.56723 130.924344 91.56723 
C 129.538313 91.56723 128.208863 91.778915 127.22879 92.155663 
C 126.248718 92.532411 125.698042 93.043463 125.698042 93.576265 
C 125.698042 94.109068 126.248718 94.62012 127.22879 94.996868 
C 128.208863 95.373616 129.538313 95.585301 130.924344 95.585301 
z
" clip-path="url(#p7a54478328)" style="fill: #d7d5ca; opacity: 0.95; stroke: #ffffff; stroke-width: 0.35; stroke-linejoin: miter"/>
   </g>
   <g id="patch_37">
    <path d="M 151.59371 73.334487 
C 153.369129 73.334487 155.07207 73.063333 156.327481 72.580742 
C 157.582892 72.098151 158.288273 71.443526 158.288273 70.761039 
C 158.288273 70.078553 157.582892 69.423928 156.327481 68.941337 
C 155.07207 68.458746 153.369129 68.187591 151.59371 68.187591 
C 149.81829 68.187591 148.115349 68.458746 146.859938 68.941337 
C 145.604527 69.423928 144.899146 70.078553 144.899146 70.761039 
C 144.899146 71.443526 145.604527 72.098151 146.859938 72.580742 
C 148.115349 73.063333 149.81829 73.334487 151.59371 73.334487 
z
" clip-path="url(#p7a54478328)" style="fill: #d7d5ca; opacity: 0.95; stroke: #ffffff; stroke-width: 0.35; stroke-linejoin: miter"/>
   </g>
   <g id="patch_38">
    <path d="M 144.554659 83.528717 
C 146.395185 83.528717 148.160577 83.247619 149.462026 82.747331 
C 150.763475 82.247042 151.494724 81.568411 151.494724 80.860896 
C 151.494724 80.153382 150.763475 79.47475 149.462026 78.974462 
C 148.160577 78.474174 146.395185 78.193075 144.554659 78.193075 
C 142.714132 78.193075 140.94874 78.474174 139.647291 78.974462 
C 138.345842 79.47475 137.614593 80.153382 137.614593 80.860896 
C 137.614593 81.568411 138.345842 82.247042 139.647291 82.747331 
C 140.94874 83.247619 142.714132 83.528717 144.554659 83.528717 
z
" clip-path="url(#p7a54478328)" style="fill: #d7d5ca; opacity: 0.95; stroke: #ffffff; stroke-width: 0.35; stroke-linejoin: miter"/>
   </g>
   <g id="patch_39">
    <path d="M 81.314435 105.827714 
C 82.907076 105.827714 84.434702 105.584474 85.560869 105.151566 
C 86.687037 104.718657 87.3198 104.131425 87.3198 103.5192 
C 87.3198 102.906975 86.687037 102.319742 85.560869 101.886834 
C 84.434702 101.453925 82.907076 101.210686 81.314435 101.210686 
C 79.721794 101.210686 78.194168 101.453925 77.068001 101.886834 
C 75.941833 102.319742 75.30907 102.906975 75.30907 103.5192 
C 75.30907 104.131425 75.941833 104.718657 77.068001 105.151566 
C 78.194168 105.584474 79.721794 105.827714 81.314435 105.827714 
z
" clip-path="url(#p7a54478328)" style="fill: #d7d5ca; opacity: 0.95; stroke: #ffffff; stroke-width: 0.35; stroke-linejoin: miter"/>
   </g>
   <g id="patch_40">
    <path d="M 94.296459 103.068151 
C 95.870111 103.068151 97.379521 102.827811 98.492261 102.400065 
C 99.605001 101.972318 100.23022 101.392087 100.23022 100.787162 
C 100.23022 100.182237 99.605001 99.602006 98.492261 99.174259 
C 97.379521 98.746513 95.870111 98.506173 94.296459 98.506173 
C 92.722807 98.506173 91.213396 98.746513 90.100656 99.174259 
C 88.987916 99.602006 88.362698 100.182237 88.362698 100.787162 
C 88.362698 101.392087 88.987916 101.972318 90.100656 102.400065 
C 91.213396 102.827811 92.722807 103.068151 94.296459 103.068151 
z
" clip-path="url(#p7a54478328)" style="fill: #d7d5ca; opacity: 0.95; stroke: #ffffff; stroke-width: 0.35; stroke-linejoin: miter"/>
   </g>
   <g id="patch_41">
    <path d="M 49.950487 115.453595 
C 51.847817 115.453595 53.667693 115.163821 55.009308 114.648093 
C 56.350923 114.132365 57.10474 113.432789 57.10474 112.703439 
C 57.10474 111.974089 56.350923 111.274513 55.009308 110.758784 
C 53.667693 110.243056 51.847817 109.953282 49.950487 109.953282 
C 48.053157 109.953282 46.233281 110.243056 44.891666 110.758784 
C 43.550051 111.274513 42.796234 111.974089 42.796234 112.703439 
C 42.796234 113.432789 43.550051 114.132365 44.891666 114.648093 
C 46.233281 115.163821 48.053157 115.453595 49.950487 115.453595 
z
" clip-path="url(#p7a54478328)" style="fill: #d7d5ca; opacity: 0.95; stroke: #ffffff; stroke-width: 0.35; stroke-linejoin: miter"/>
   </g>
   <g id="patch_42">
    <path d="M 94.257557 78.798174 
C 96.383139 78.798174 98.421949 78.47354 99.924962 77.895769 
C 101.427976 77.317997 102.272478 76.534261 102.272478 75.717169 
C 102.272478 74.900077 101.427976 74.116341 99.924962 73.53857 
C 98.421949 72.960799 96.383139 72.636165 94.257557 72.636165 
C 92.131975 72.636165 90.093165 72.960799 88.590152 73.53857 
C 87.087139 74.116341 86.242636 74.900077 86.242636 75.717169 
C 86.242636 76.534261 87.087139 77.317997 88.590152 77.895769 
C 90.093165 78.47354 92.131975 78.798174 94.257557 78.798174 
z
" clip-path="url(#p7a54478328)" style="fill: #d7d5ca; opacity: 0.95; stroke: #ffffff; stroke-width: 0.35; stroke-linejoin: miter"/>
   </g>
   <g id="patch_43">
    <path d="M 95.806383 104.934533 
C 97.283451 104.934533 98.700221 104.708945 99.744666 104.307451 
C 100.789111 103.905957 101.375956 103.361339 101.375956 102.793541 
C 101.375956 102.225744 100.789111 101.681125 99.744666 101.279631 
C 98.700221 100.878138 97.283451 100.65255 95.806383 100.65255 
C 94.329315 100.65255 92.912545 100.878138 91.8681 101.279631 
C 90.823656 101.681125 90.23681 102.225744 90.23681 102.793541 
C 90.23681 103.361339 90.823656 103.905957 91.8681 104.307451 
C 92.912545 104.708945 94.329315 104.934533 95.806383 104.934533 
z
" clip-path="url(#p7a54478328)" style="fill: #d7d5ca; opacity: 0.95; stroke: #ffffff; stroke-width: 0.35; stroke-linejoin: miter"/>
   </g>
   <g id="patch_44">
    <path d="M 57.022489 95.096929 
C 59.126997 95.096929 61.145593 94.775514 62.633705 94.203471 
C 64.121817 93.631428 64.957947 92.855462 64.957947 92.046471 
C 64.957947 91.23748 64.121817 90.461515 62.633705 89.889472 
C 61.145593 89.317429 59.126997 88.996013 57.022489 88.996013 
C 54.917981 88.996013 52.899385 89.317429 51.411273 89.889472 
C 49.923161 90.461515 49.087031 91.23748 49.087031 92.046471 
C 49.087031 92.855462 49.923161 93.631428 51.411273 94.203471 
C 52.899385 94.775514 54.917981 95.096929 57.022489 95.096929 
z
" clip-path="url(#p7a54478328)" style="fill: #d7d5ca; opacity: 0.95; stroke: #ffffff; stroke-width: 0.35; stroke-linejoin: miter"/>
   </g>
   <g id="patch_45">
    <path d="M 155.868168 103.877548 
C 157.581638 103.877548 159.22516 103.615854 160.436766 103.150102 
C 161.648372 102.68435 162.329141 102.052567 162.329141 101.393894 
C 162.329141 100.735222 161.648372 100.103438 160.436766 99.637686 
C 159.22516 99.171934 157.581638 98.910241 155.868168 98.910241 
C 154.154698 98.910241 152.511177 99.171934 151.299571 99.637686 
C 150.087965 100.103438 149.407196 100.735222 149.407196 101.393894 
C 149.407196 102.052567 150.087965 102.68435 151.299571 103.150102 
C 152.511177 103.615854 154.154698 103.877548 155.868168 103.877548 
z
" clip-path="url(#p7a54478328)" style="fill: #d7d5ca; opacity: 0.95; stroke: #ffffff; stroke-width: 0.35; stroke-linejoin: miter"/>
   </g>
   <g id="patch_46">
    <path d="M 107.252636 93.96868 
C 108.518705 93.96868 109.733089 93.775317 110.628335 93.431177 
C 111.523581 93.087037 112.026595 92.620217 112.026595 92.133529 
C 112.026595 91.646841 111.523581 91.180022 110.628335 90.835881 
C 109.733089 90.491741 108.518705 90.298378 107.252636 90.298378 
C 105.986567 90.298378 104.772182 90.491741 103.876936 90.835881 
C 102.98169 91.180022 102.478676 91.646841 102.478676 92.133529 
C 102.478676 92.620217 102.98169 93.087037 103.876936 93.431177 
C 104.772182 93.775317 105.986567 93.96868 107.252636 93.96868 
z
" clip-path="url(#p7a54478328)" style="fill: #d7d5ca; opacity: 0.95; stroke: #ffffff; stroke-width: 0.35; stroke-linejoin: miter"/>
   </g>
   <g id="patch_47">
    <path d="M 125.624202 117.920862 
C 127.023398 117.920862 128.365474 117.707166 129.354854 117.32684 
C 130.344235 116.946514 130.900141 116.430608 130.900141 115.892745 
C 130.900141 115.354883 130.344235 114.838977 129.354854 114.458651 
C 128.365474 114.078324 127.023398 113.864629 125.624202 113.864629 
C 124.225007 113.864629 122.882931 114.078324 121.89355 114.458651 
C 120.90417 114.838977 120.348263 115.354883 120.348263 115.892745 
C 120.348263 116.430608 120.90417 116.946514 121.89355 117.32684 
C 122.882931 117.707166 124.225007 117.920862 125.624202 117.920862 
z
" clip-path="url(#p7a54478328)" style="fill: #d7d5ca; opacity: 0.95; stroke: #ffffff; stroke-width: 0.35; stroke-linejoin: miter"/>
   </g>
   <g id="patch_48">
    <path d="M 51.300462 61.141298 
C 53.397823 61.141298 55.409564 60.820974 56.892622 60.250874 
C 58.37568 59.680774 59.208971 58.907443 59.208971 58.1012 
C 59.208971 57.294956 58.37568 56.521625 56.892622 55.951525 
C 55.409564 55.381425 53.397823 55.061101 51.300462 55.061101 
C 49.203101 55.061101 47.19136 55.381425 45.708302 55.951525 
C 44.225244 56.521625 43.391954 57.294956 43.391954 58.1012 
C 43.391954 58.907443 44.225244 59.680774 45.708302 60.250874 
C 47.19136 60.820974 49.203101 61.141298 51.300462 61.141298 
z
" clip-path="url(#p7a54478328)" style="fill: #d7d5ca; opacity: 0.95; stroke: #ffffff; stroke-width: 0.35; stroke-linejoin: miter"/>
   </g>
   <g id="patch_49">
    <path d="M 133.428705 134.631145 
C 135.045941 134.631145 136.597156 134.384149 137.740714 133.944556 
C 138.884273 133.504962 139.526807 132.908662 139.526807 132.286982 
C 139.526807 131.665303 138.884273 131.069002 137.740714 130.629409 
C 136.597156 130.189815 135.045941 129.942819 133.428705 129.942819 
C 131.811469 129.942819 130.260254 130.189815 129.116696 130.629409 
C 127.973137 131.069002 127.330603 131.665303 127.330603 132.286982 
C 127.330603 132.908662 127.973137 133.504962 129.116696 133.944556 
C 130.260254 134.384149 131.811469 134.631145 133.428705 134.631145 
z
" clip-path="url(#p7a54478328)" style="fill: #d7d5ca; opacity: 0.95; stroke: #ffffff; stroke-width: 0.35; stroke-linejoin: miter"/>
   </g>
   <g id="patch_50">
    <path d="M 134.943478 127.949899 
C 136.782797 127.949899 138.547031 127.668985 139.847626 127.169025 
C 141.148221 126.669065 141.87899 125.990878 141.87899 125.283828 
C 141.87899 124.576778 141.148221 123.898591 139.847626 123.398631 
C 138.547031 122.898671 136.782797 122.617757 134.943478 122.617757 
C 133.104159 122.617757 131.339925 122.898671 130.03933 123.398631 
C 128.738735 123.898591 128.007966 124.576778 128.007966 125.283828 
C 128.007966 125.990878 128.738735 126.669065 130.03933 127.169025 
C 131.339925 127.668985 133.104159 127.949899 134.943478 127.949899 
z
" clip-path="url(#p7a54478328)" style="fill: #d7d5ca; opacity: 0.95; stroke: #ffffff; stroke-width: 0.35; stroke-linejoin: miter"/>
   </g>
   <g id="patch_51">
    <path d="M 71.725938 63.922047 
C 73.301306 63.922047 74.812363 63.681445 75.926317 63.253232 
C 77.04027 62.825019 77.66617 62.244155 77.66617 61.63857 
C 77.66617 61.032985 77.04027 60.452122 75.926317 60.023909 
C 74.812363 59.595696 73.301306 59.355094 71.725938 59.355094 
C 70.15057 59.355094 68.639513 59.595696 67.52556 60.023909 
C 66.411607 60.452122 65.785706 61.032985 65.785706 61.63857 
C 65.785706 62.244155 66.411607 62.825019 67.52556 63.253232 
C 68.639513 63.681445 70.15057 63.922047 71.725938 63.922047 
z
" clip-path="url(#p7a54478328)" style="fill: #d7d5ca; opacity: 0.95; stroke: #ffffff; stroke-width: 0.35; stroke-linejoin: miter"/>
   </g>
   <g id="patch_52">
    <path d="M 56.932126 133.854148 
C 58.353176 133.854148 59.716214 133.637115 60.721047 133.250849 
C 61.725881 132.864582 62.29047 132.340618 62.29047 131.794355 
C 62.29047 131.248091 61.725881 130.724128 60.721047 130.337861 
C 59.716214 129.951594 58.353176 129.734562 56.932126 129.734562 
C 55.511077 129.734562 54.148039 129.951594 53.143205 130.337861 
C 52.138372 130.724128 51.573783 131.248091 51.573783 131.794355 
C 51.573783 132.340618 52.138372 132.864582 53.143205 133.250849 
C 54.148039 133.637115 55.511077 133.854148 56.932126 133.854148 
z
" clip-path="url(#p7a54478328)" style="fill: #d7d5ca; opacity: 0.95; stroke: #ffffff; stroke-width: 0.35; stroke-linejoin: miter"/>
   </g>
   <g id="patch_53">
    <path d="M 144.914306 124.637528 
C 146.583088 124.637528 148.183745 124.38266 149.363752 123.929055 
C 150.543759 123.47545 151.206773 122.860144 151.206773 122.21865 
C 151.206773 121.577156 150.543759 120.961849 149.363752 120.508245 
C 148.183745 120.05464 146.583088 119.799771 144.914306 119.799771 
C 143.245524 119.799771 141.644867 120.05464 140.46486 120.508245 
C 139.284853 120.961849 138.621839 121.577156 138.621839 122.21865 
C 138.621839 122.860144 139.284853 123.47545 140.46486 123.929055 
C 141.644867 124.38266 143.245524 124.637528 144.914306 124.637528 
z
" clip-path="url(#p7a54478328)" style="fill: #d7d5ca; opacity: 0.95; stroke: #ffffff; stroke-width: 0.35; stroke-linejoin: miter"/>
   </g>
   <g id="patch_54">
    <path d="M 89.639155 65.562291 
C 91.776074 65.562291 93.825757 65.235925 95.336786 64.655072 
C 96.847816 64.07422 97.696822 63.286304 97.696822 62.464854 
C 97.696822 61.643404 96.847816 60.855488 95.336786 60.274636 
C 93.825757 59.693783 91.776074 59.367418 89.639155 59.367418 
C 87.502237 59.367418 85.452554 59.693783 83.941525 60.274636 
C 82.430495 60.855488 81.581489 61.643404 81.581489 62.464854 
C 81.581489 63.286304 82.430495 64.07422 83.941525 64.655072 
C 85.452554 65.235925 87.502237 65.562291 89.639155 65.562291 
z
" clip-path="url(#p7a54478328)" style="fill: #d7d5ca; opacity: 0.95; stroke: #ffffff; stroke-width: 0.35; stroke-linejoin: miter"/>
   </g>
   <g id="patch_55">
    <path d="M 95.688409 109.255107 
C 97.458899 109.255107 99.157113 108.984705 100.409038 108.503454 
C 101.660964 108.022203 102.364387 107.369395 102.364387 106.688804 
C 102.364387 106.008212 101.660964 105.355404 100.409038 104.874153 
C 99.157113 104.392902 97.458899 104.1225 95.688409 104.1225 
C 93.917919 104.1225 92.219705 104.392902 90.967779 104.874153 
C 89.715854 105.355404 89.012431 106.008212 89.012431 106.688804 
C 89.012431 107.369395 89.715854 108.022203 90.967779 108.503454 
C 92.219705 108.984705 93.917919 109.255107 95.688409 109.255107 
z
" clip-path="url(#p7a54478328)" style="fill: #d7d5ca; opacity: 0.95; stroke: #ffffff; stroke-width: 0.35; stroke-linejoin: miter"/>
   </g>
   <g id="patch_56">
    <path d="M 176.913075 67.709452 
C 178.306161 67.709452 179.642378 67.49669 180.627439 67.118025 
C 181.612499 66.739359 182.165978 66.225706 182.165978 65.690191 
C 182.165978 65.154677 181.612499 64.641024 180.627439 64.262358 
C 179.642378 63.883692 178.306161 63.67093 176.913075 63.67093 
C 175.519989 63.67093 174.183772 63.883692 173.198712 64.262358 
C 172.213651 64.641024 171.660172 65.154677 171.660172 65.690191 
C 171.660172 66.225706 172.213651 66.739359 173.198712 67.118025 
C 174.183772 67.49669 175.519989 67.709452 176.913075 67.709452 
z
" clip-path="url(#p7a54478328)" style="fill: #d7d5ca; opacity: 0.95; stroke: #ffffff; stroke-width: 0.35; stroke-linejoin: miter"/>
   </g>
   <g id="patch_57">
    <path d="M 164.940802 77.537089 
C 166.809297 77.537089 168.601515 77.251719 169.922741 76.743829 
C 171.243967 76.235938 171.986328 75.546994 171.986328 74.828728 
C 171.986328 74.110463 171.243967 73.421518 169.922741 72.913628 
C 168.601515 72.405737 166.809297 72.120367 164.940802 72.120367 
C 163.072306 72.120367 161.280088 72.405737 159.958862 72.913628 
C 158.637637 73.421518 157.895275 74.110463 157.895275 74.828728 
C 157.895275 75.546994 158.637637 76.235938 159.958862 76.743829 
C 161.280088 77.251719 163.072306 77.537089 164.940802 77.537089 
z
" clip-path="url(#p7a54478328)" style="fill: #d7d5ca; opacity: 0.95; stroke: #ffffff; stroke-width: 0.35; stroke-linejoin: miter"/>
   </g>
   <g id="patch_58">
    <path d="M 145.617357 97.738401 
C 147.53447 97.738401 149.373321 97.445606 150.728924 96.9245 
C 152.084528 96.403395 152.846205 95.696525 152.846205 94.95957 
C 152.846205 94.222615 152.084528 93.515745 150.728924 92.994639 
C 149.373321 92.473534 147.53447 92.180738 145.617357 92.180738 
C 143.700244 92.180738 141.861393 92.473534 140.505789 92.994639 
C 139.150185 93.515745 138.388508 94.222615 138.388508 94.95957 
C 138.388508 95.696525 139.150185 96.403395 140.505789 96.9245 
C 141.861393 97.445606 143.700244 97.738401 145.617357 97.738401 
z
" clip-path="url(#p7a54478328)" style="fill: #d7d5ca; opacity: 0.95; stroke: #ffffff; stroke-width: 0.35; stroke-linejoin: miter"/>
   </g>
   <g id="patch_59">
    <path d="M 126.759284 90.403265 
C 128.740977 90.403265 130.641772 90.100607 132.043041 89.561947 
C 133.444309 89.023288 134.231644 88.292606 134.231644 87.530826 
C 134.231644 86.769046 133.444309 86.038364 132.043041 85.499704 
C 130.641772 84.961045 128.740977 84.658386 126.759284 84.658386 
C 124.777591 84.658386 122.876796 84.961045 121.475528 85.499704 
C 120.074259 86.038364 119.286924 86.769046 119.286924 87.530826 
C 119.286924 88.292606 120.074259 89.023288 121.475528 89.561947 
C 122.876796 90.100607 124.777591 90.403265 126.759284 90.403265 
z
" clip-path="url(#p7a54478328)" style="fill: #d7d5ca; opacity: 0.95; stroke: #ffffff; stroke-width: 0.35; stroke-linejoin: miter"/>
   </g>
   <g id="patch_60">
    <path d="M 136.530311 120.664113 
C 138.188234 120.664113 139.778476 120.410903 140.950804 119.96025 
C 142.123133 119.509597 142.781833 118.898294 142.781833 118.260974 
C 142.781833 117.623654 142.123133 117.012351 140.950804 116.561698 
C 139.778476 116.111045 138.188234 115.857835 136.530311 115.857835 
C 134.872388 115.857835 133.282146 116.111045 132.109817 116.561698 
C 130.937489 117.012351 130.278789 117.623654 130.278789 118.260974 
C 130.278789 118.898294 130.937489 119.509597 132.109817 119.96025 
C 133.282146 120.410903 134.872388 120.664113 136.530311 120.664113 
z
" clip-path="url(#p7a54478328)" style="fill: #d7d5ca; opacity: 0.95; stroke: #ffffff; stroke-width: 0.35; stroke-linejoin: miter"/>
   </g>
   <g id="patch_61">
    <path d="M 155.261085 111.249673 
C 156.882035 111.249673 158.436814 111.002109 159.582999 110.561506 
C 160.729184 110.120903 161.373194 109.523232 161.373194 108.900125 
C 161.373194 108.277018 160.729184 107.679348 159.582999 107.238744 
C 158.436814 106.798141 156.882035 106.550578 155.261085 106.550578 
C 153.640135 106.550578 152.085356 106.798141 150.939171 107.238744 
C 149.792986 107.679348 149.148976 108.277018 149.148976 108.900125 
C 149.148976 109.523232 149.792986 110.120903 150.939171 110.561506 
C 152.085356 111.002109 153.640135 111.249673 155.261085 111.249673 
z
" clip-path="url(#p7a54478328)" style="fill: #d7d5ca; opacity: 0.95; stroke: #ffffff; stroke-width: 0.35; stroke-linejoin: miter"/>
   </g>
   <g id="patch_62">
    <path d="M 97.251018 132.060767 
C 98.960683 132.060767 100.600555 131.799654 101.809471 131.334937 
C 103.018387 130.870219 103.697644 130.239838 103.697644 129.582628 
C 103.697644 128.925418 103.018387 128.295037 101.809471 127.83032 
C 100.600555 127.365602 98.960683 127.10449 97.251018 127.10449 
C 95.541353 127.10449 93.901481 127.365602 92.692566 127.83032 
C 91.48365 128.295037 90.804393 128.925418 90.804393 129.582628 
C 90.804393 130.239838 91.48365 130.870219 92.692566 131.334937 
C 93.901481 131.799654 95.541353 132.060767 97.251018 132.060767 
z
" clip-path="url(#p7a54478328)" style="fill: #d7d5ca; opacity: 0.95; stroke: #ffffff; stroke-width: 0.35; stroke-linejoin: miter"/>
   </g>
   <g id="patch_63">
    <path d="M 168.320109 115.840108 
C 170.489622 115.840108 172.570569 115.508764 174.104647 114.919052 
C 175.638724 114.329339 176.500681 113.529405 176.500681 112.695426 
C 176.500681 111.861446 175.638724 111.061512 174.104647 110.471799 
C 172.570569 109.882087 170.489622 109.550743 168.320109 109.550743 
C 166.150596 109.550743 164.069648 109.882087 162.535571 110.471799 
C 161.001493 111.061512 160.139537 111.861446 160.139537 112.695426 
C 160.139537 113.529405 161.001493 114.329339 162.535571 114.919052 
C 164.069648 115.508764 166.150596 115.840108 168.320109 115.840108 
z
" clip-path="url(#p7a54478328)" style="fill: #d7d5ca; opacity: 0.95; stroke: #ffffff; stroke-width: 0.35; stroke-linejoin: miter"/>
   </g>
   <g id="patch_64">
    <path d="M 92.484278 110.505183 
C 93.830517 110.505183 95.121799 110.299575 96.073734 109.933643 
C 97.025668 109.567712 97.560535 109.071332 97.560535 108.553826 
C 97.560535 108.03632 97.025668 107.53994 96.073734 107.174008 
C 95.121799 106.808076 93.830517 106.602469 92.484278 106.602469 
C 91.138039 106.602469 89.846757 106.808076 88.894823 107.174008 
C 87.942888 107.53994 87.408021 108.03632 87.408021 108.553826 
C 87.408021 109.071332 87.942888 109.567712 88.894823 109.933643 
C 89.846757 110.299575 91.138039 110.505183 92.484278 110.505183 
z
" clip-path="url(#p7a54478328)" style="fill: #d7d5ca; opacity: 0.95; stroke: #ffffff; stroke-width: 0.35; stroke-linejoin: miter"/>
   </g>
   <g id="patch_65">
    <path d="M 62.07935 125.835718 
C 63.678987 125.835718 65.213322 125.59141 66.344436 125.1566 
C 67.47555 124.72179 68.111092 124.131979 68.111092 123.517065 
C 68.111092 122.90215 67.47555 122.312339 66.344436 121.877529 
C 65.213322 121.442719 63.678987 121.198411 62.07935 121.198411 
C 60.479713 121.198411 58.945378 121.442719 57.814264 121.877529 
C 56.68315 122.312339 56.047608 122.90215 56.047608 123.517065 
C 56.047608 124.131979 56.68315 124.72179 57.814264 125.1566 
C 58.945378 125.59141 60.479713 125.835718 62.07935 125.835718 
z
" clip-path="url(#p7a54478328)" style="fill: #d7d5ca; opacity: 0.95; stroke: #ffffff; stroke-width: 0.35; stroke-linejoin: miter"/>
   </g>
   <g id="patch_66">
    <path d="M 143.653297 116.484456 
C 145.182691 116.484456 146.649651 116.250876 147.731096 115.83516 
C 148.812541 115.419443 149.420176 114.855531 149.420176 114.267619 
C 149.420176 113.679706 148.812541 113.115794 147.731096 112.700078 
C 146.649651 112.284361 145.182691 112.050781 143.653297 112.050781 
C 142.123903 112.050781 140.656943 112.284361 139.575498 112.700078 
C 138.494053 113.115794 137.886419 113.679706 137.886419 114.267619 
C 137.886419 114.855531 138.494053 115.419443 139.575498 115.83516 
C 140.656943 116.250876 142.123903 116.484456 143.653297 116.484456 
z
" clip-path="url(#p7a54478328)" style="fill: #d7d5ca; opacity: 0.95; stroke: #ffffff; stroke-width: 0.35; stroke-linejoin: miter"/>
   </g>
   <g id="patch_67">
    <path d="M 42.11099 101.092094 
C 43.369514 101.092094 44.576662 100.899883 45.466573 100.557794 
C 46.356484 100.215704 46.856501 99.751666 46.856501 99.267879 
C 46.856501 98.784091 46.356484 98.320053 45.466573 97.977964 
C 44.576662 97.635874 43.369514 97.443664 42.11099 97.443664 
C 40.852466 97.443664 39.645318 97.635874 38.755407 97.977964 
C 37.865496 98.320053 37.36548 98.784091 37.36548 99.267879 
C 37.36548 99.751666 37.865496 100.215704 38.755407 100.557794 
C 39.645318 100.899883 40.852466 101.092094 42.11099 101.092094 
z
" clip-path="url(#p7a54478328)" style="fill: #d7d5ca; opacity: 0.95; stroke: #ffffff; stroke-width: 0.35; stroke-linejoin: miter"/>
   </g>
   <g id="patch_68">
    <path d="M 41.466307 78.033481 
C 43.526288 78.033481 45.502175 77.718866 46.958801 77.158926 
C 48.415428 76.598986 49.233867 75.839439 49.233867 75.047564 
C 49.233867 74.25569 48.415428 73.496142 46.958801 72.936202 
C 45.502175 72.376262 43.526288 72.061647 41.466307 72.061647 
C 39.406326 72.061647 37.430439 72.376262 35.973813 72.936202 
C 34.517186 73.496142 33.698747 74.25569 33.698747 75.047564 
C 33.698747 75.839439 34.517186 76.598986 35.973813 77.158926 
C 37.430439 77.718866 39.406326 78.033481 41.466307 78.033481 
z
" clip-path="url(#p7a54478328)" style="fill: #d7d5ca; opacity: 0.95; stroke: #ffffff; stroke-width: 0.35; stroke-linejoin: miter"/>
   </g>
   <g id="patch_69">
    <path d="M 84.113844 92.214702 
C 85.500229 92.214702 86.830017 92.002963 87.810339 91.626119 
C 88.790661 91.249275 89.341477 90.738093 89.341477 90.205155 
C 89.341477 89.672217 88.790661 89.161035 87.810339 88.78419 
C 86.830017 88.407346 85.500229 88.195608 84.113844 88.195608 
C 82.72746 88.195608 81.397671 88.407346 80.41735 88.78419 
C 79.437028 89.161035 78.886211 89.672217 78.886211 90.205155 
C 78.886211 90.738093 79.437028 91.249275 80.41735 91.626119 
C 81.397671 92.002963 82.72746 92.214702 84.113844 92.214702 
z
" clip-path="url(#p7a54478328)" style="fill: #d7d5ca; opacity: 0.95; stroke: #ffffff; stroke-width: 0.35; stroke-linejoin: miter"/>
   </g>
   <g id="patch_70">
    <path d="M 168.706239 71.450826 
C 170.658304 71.450826 172.53068 71.152693 173.910998 70.622086 
C 175.291317 70.09148 176.06688 69.371723 176.06688 68.621332 
C 176.06688 67.870942 175.291317 67.151184 173.910998 66.620578 
C 172.53068 66.089971 170.658304 65.791838 168.706239 65.791838 
C 166.754174 65.791838 164.881798 66.089971 163.501479 66.620578 
C 162.121161 67.151184 161.345597 67.870942 161.345597 68.621332 
C 161.345597 69.371723 162.121161 70.09148 163.501479 70.622086 
C 164.881798 71.152693 166.754174 71.450826 168.706239 71.450826 
z
" clip-path="url(#p7a54478328)" style="fill: #d7d5ca; opacity: 0.95; stroke: #ffffff; stroke-width: 0.35; stroke-linejoin: miter"/>
   </g>
   <g id="patch_71">
    <path d="M 84.826383 92.168287 
C 86.709733 92.168287 88.516199 91.880648 89.847929 91.36872 
C 91.179659 90.856791 91.927922 90.16237 91.927922 89.438394 
C 91.927922 88.714418 91.179659 88.019997 89.847929 87.508069 
C 88.516199 86.99614 86.709733 86.708501 84.826383 86.708501 
C 82.943033 86.708501 81.136566 86.99614 79.804836 87.508069 
C 78.473107 88.019997 77.724844 88.714418 77.724844 89.438394 
C 77.724844 90.16237 78.473107 90.856791 79.804836 91.36872 
C 81.136566 91.880648 82.943033 92.168287 84.826383 92.168287 
z
" clip-path="url(#p7a54478328)" style="fill: #d7d5ca; opacity: 0.95; stroke: #ffffff; stroke-width: 0.35; stroke-linejoin: miter"/>
   </g>
   <g id="patch_72">
    <path d="M 182.457957 128.644611 
C 184.629969 128.644611 186.713314 128.312886 188.249159 127.722494 
C 189.785004 127.132102 190.647953 126.331246 190.647953 125.496306 
C 190.647953 124.661366 189.785004 123.86051 188.249159 123.270118 
C 186.713314 122.679726 184.629969 122.348001 182.457957 122.348001 
C 180.285944 122.348001 178.202599 122.679726 176.666754 123.270118 
C 175.13091 123.86051 174.26796 124.661366 174.26796 125.496306 
C 174.26796 126.331246 175.13091 127.132102 176.666754 127.722494 
C 178.202599 128.312886 180.285944 128.644611 182.457957 128.644611 
z
" clip-path="url(#p7a54478328)" style="fill: #d7d5ca; opacity: 0.95; stroke: #ffffff; stroke-width: 0.35; stroke-linejoin: miter"/>
   </g>
   <g id="patch_73">
    <path d="M 96.210622 83.008058 
C 97.55467 83.008058 98.843851 82.802785 99.794236 82.437449 
C 100.744622 82.072113 101.278618 81.57654 101.278618 81.059877 
C 101.278618 80.543213 100.744622 80.047641 99.794236 79.682305 
C 98.843851 79.316968 97.55467 79.111695 96.210622 79.111695 
C 94.866574 79.111695 93.577393 79.316968 92.627007 79.682305 
C 91.676622 80.047641 91.142626 80.543213 91.142626 81.059877 
C 91.142626 81.57654 91.676622 82.072113 92.627007 82.437449 
C 93.577393 82.802785 94.866574 83.008058 96.210622 83.008058 
z
" clip-path="url(#p7a54478328)" style="fill: #d7d5ca; opacity: 0.95; stroke: #ffffff; stroke-width: 0.35; stroke-linejoin: miter"/>
   </g>
   <g id="patch_74">
    <path d="M 99.330619 108.399043 
C 101.564517 108.399043 103.707221 108.057866 105.286826 107.450652 
C 106.86643 106.843439 107.753967 106.019765 107.753967 105.161035 
C 107.753967 104.302306 106.86643 103.478632 105.286826 102.871418 
C 103.707221 102.264205 101.564517 101.923028 99.330619 101.923028 
C 97.096722 101.923028 94.954018 102.264205 93.374413 102.871418 
C 91.794809 103.478632 90.907272 104.302306 90.907272 105.161035 
C 90.907272 106.019765 91.794809 106.843439 93.374413 107.450652 
C 94.954018 108.057866 97.096722 108.399043 99.330619 108.399043 
z
" clip-path="url(#p7a54478328)" style="fill: #d7d5ca; opacity: 0.95; stroke: #ffffff; stroke-width: 0.35; stroke-linejoin: miter"/>
   </g>
   <g id="patch_75">
    <path d="M 45.471378 118.988852 
C 47.661007 118.988852 49.761249 118.654436 51.309551 118.059256 
C 52.857852 117.464075 53.727801 116.656724 53.727801 115.815012 
C 53.727801 114.9733 52.857852 114.165948 51.309551 113.570768 
C 49.761249 112.975587 47.661007 112.641172 45.471378 112.641172 
C 43.281748 112.641172 41.181506 112.975587 39.633204 113.570768 
C 38.084903 114.165948 37.214954 114.9733 37.214954 115.815012 
C 37.214954 116.656724 38.084903 117.464075 39.633204 118.059256 
C 41.181506 118.654436 43.281748 118.988852 45.471378 118.988852 
z
" clip-path="url(#p7a54478328)" style="fill: #d7d5ca; opacity: 0.95; stroke: #ffffff; stroke-width: 0.35; stroke-linejoin: miter"/>
   </g>
   <g id="patch_76">
    <path d="M 170.169703 125.529875 
C 172.362155 125.529875 174.465105 125.195028 176.015402 124.599081 
C 177.5657 124.003133 178.43677 123.194741 178.43677 122.351944 
C 178.43677 121.509146 177.5657 120.700754 176.015402 120.104807 
C 174.465105 119.508859 172.362155 119.174012 170.169703 119.174012 
C 167.977252 119.174012 165.874302 119.508859 164.324004 120.104807 
C 162.773707 120.700754 161.902636 121.509146 161.902636 122.351944 
C 161.902636 123.194741 162.773707 124.003133 164.324004 124.599081 
C 165.874302 125.195028 167.977252 125.529875 170.169703 125.529875 
z
" clip-path="url(#p7a54478328)" style="fill: #d7d5ca; opacity: 0.95; stroke: #ffffff; stroke-width: 0.35; stroke-linejoin: miter"/>
   </g>
   <g id="patch_77">
    <path d="M 125.838037 69.946915 
C 127.98706 69.946915 130.048354 69.618701 131.567943 69.034558 
C 133.087532 68.450415 133.941348 67.658036 133.941348 66.831933 
C 133.941348 66.00583 133.087532 65.213451 131.567943 64.629308 
C 130.048354 64.045165 127.98706 63.71695 125.838037 63.71695 
C 123.689014 63.71695 121.62772 64.045165 120.108131 64.629308 
C 118.588542 65.213451 117.734726 66.00583 117.734726 66.831933 
C 117.734726 67.658036 118.588542 68.450415 120.108131 69.034558 
C 121.62772 69.618701 123.689014 69.946915 125.838037 69.946915 
z
" clip-path="url(#p7a54478328)" style="fill: #d7d5ca; opacity: 0.95; stroke: #ffffff; stroke-width: 0.35; stroke-linejoin: miter"/>
   </g>
   <g id="patch_78">
    <path d="M 164.350818 96.693115 
C 165.68829 96.693115 166.971163 96.488846 167.916899 96.125297 
C 168.862635 95.761748 169.394018 95.268601 169.394018 94.754465 
C 169.394018 94.240329 168.862635 93.747182 167.916899 93.383633 
C 166.971163 93.020084 165.68829 92.815815 164.350818 92.815815 
C 163.013346 92.815815 161.730473 93.020084 160.784737 93.383633 
C 159.839001 93.747182 159.307618 94.240329 159.307618 94.754465 
C 159.307618 95.268601 159.839001 95.761748 160.784737 96.125297 
C 161.730473 96.488846 163.013346 96.693115 164.350818 96.693115 
z
" clip-path="url(#p7a54478328)" style="fill: #d7d5ca; opacity: 0.95; stroke: #ffffff; stroke-width: 0.35; stroke-linejoin: miter"/>
   </g>
   <g id="patch_79">
    <path d="M 49.114985 84.567649 
C 50.864625 84.567649 52.54284 84.300432 53.780022 83.824848 
C 55.017204 83.349265 55.712343 82.704145 55.712343 82.031568 
C 55.712343 81.358991 55.017204 80.713871 53.780022 80.238288 
C 52.54284 79.762704 50.864625 79.495487 49.114985 79.495487 
C 47.365345 79.495487 45.68713 79.762704 44.449948 80.238288 
C 43.212766 80.713871 42.517626 81.358991 42.517626 82.031568 
C 42.517626 82.704145 43.212766 83.349265 44.449948 83.824848 
C 45.68713 84.300432 47.365345 84.567649 49.114985 84.567649 
z
" clip-path="url(#p7a54478328)" style="fill: #d7d5ca; opacity: 0.95; stroke: #ffffff; stroke-width: 0.35; stroke-linejoin: miter"/>
   </g>
   <g id="patch_80">
    <path d="M 74.637042 132.629361 
C 76.08436 132.629361 77.472594 132.408316 78.496003 132.014909 
C 79.519411 131.621502 80.094437 131.087853 80.094437 130.531491 
C 80.094437 129.97513 79.519411 129.441481 78.496003 129.048074 
C 77.472594 128.654667 76.08436 128.433622 74.637042 128.433622 
C 73.189724 128.433622 71.80149 128.654667 70.778081 129.048074 
C 69.754673 129.441481 69.179647 129.97513 69.179647 130.531491 
C 69.179647 131.087853 69.754673 131.621502 70.778081 132.014909 
C 71.80149 132.408316 73.189724 132.629361 74.637042 132.629361 
z
" clip-path="url(#p7a54478328)" style="fill: #d7d5ca; opacity: 0.95; stroke: #ffffff; stroke-width: 0.35; stroke-linejoin: miter"/>
   </g>
   <g id="patch_81">
    <path d="M 114.236567 120.259867 
C 116.07126 120.259867 117.831055 119.979659 119.128379 119.480957 
C 120.425702 118.982255 121.154633 118.305774 121.154633 117.600502 
C 121.154633 116.895231 120.425702 116.21875 119.128379 115.720048 
C 117.831055 115.221346 116.07126 114.941138 114.236567 114.941138 
C 112.401874 114.941138 110.642079 115.221346 109.344755 115.720048 
C 108.047431 116.21875 107.3185 116.895231 107.3185 117.600502 
C 107.3185 118.305774 108.047431 118.982255 109.344755 119.480957 
C 110.642079 119.979659 112.401874 120.259867 114.236567 120.259867 
z
" clip-path="url(#p7a54478328)" style="fill: #d7d5ca; opacity: 0.95; stroke: #ffffff; stroke-width: 0.35; stroke-linejoin: miter"/>
   </g>
   <g id="patch_82">
    <path d="M 135.202844 127.926475 
C 137.298085 127.926475 139.307793 127.606475 140.789352 127.036951 
C 142.270912 126.467427 143.10336 125.694878 143.10336 124.889449 
C 143.10336 124.08402 142.270912 123.311471 140.789352 122.741947 
C 139.307793 122.172423 137.298085 121.852422 135.202844 121.852422 
C 133.107602 121.852422 131.097894 122.172423 129.616335 122.741947 
C 128.134775 123.311471 127.302327 124.08402 127.302327 124.889449 
C 127.302327 125.694878 128.134775 126.467427 129.616335 127.036951 
C 131.097894 127.606475 133.107602 127.926475 135.202844 127.926475 
z
" clip-path="url(#p7a54478328)" style="fill: #d7d5ca; opacity: 0.95; stroke: #ffffff; stroke-width: 0.35; stroke-linejoin: miter"/>
   </g>
   <g id="patch_83">
    <path d="M 167.595719 66.959404 
C 169.789898 66.959404 171.894504 66.624294 173.446022 66.027876 
C 174.997541 65.431459 175.869297 64.622431 175.869297 63.77897 
C 175.869297 62.935508 174.997541 62.12648 173.446022 61.530063 
C 171.894504 60.933646 169.789898 60.598535 167.595719 60.598535 
C 165.401541 60.598535 163.296934 60.933646 161.745416 61.530063 
C 160.193897 62.12648 159.322141 62.935508 159.322141 63.77897 
C 159.322141 64.622431 160.193897 65.431459 161.745416 66.027876 
C 163.296934 66.624294 165.401541 66.959404 167.595719 66.959404 
z
" clip-path="url(#p7a54478328)" style="fill: #d7d5ca; opacity: 0.95; stroke: #ffffff; stroke-width: 0.35; stroke-linejoin: miter"/>
   </g>
   <g id="patch_84">
    <path d="M 130.64794 121.610294 
C 132.715158 121.610294 134.697986 121.294573 136.15973 120.732666 
C 137.621474 120.17076 138.442788 119.408543 138.442788 118.613887 
C 138.442788 117.819231 137.621474 117.057015 136.15973 116.495108 
C 134.697986 115.933201 132.715158 115.617481 130.64794 115.617481 
C 128.580722 115.617481 126.597894 115.933201 125.13615 116.495108 
C 123.674407 117.057015 122.853092 117.819231 122.853092 118.613887 
C 122.853092 119.408543 123.674407 120.17076 125.13615 120.732666 
C 126.597894 121.294573 128.580722 121.610294 130.64794 121.610294 
z
" clip-path="url(#p7a54478328)" style="fill: #d7d5ca; opacity: 0.95; stroke: #ffffff; stroke-width: 0.35; stroke-linejoin: miter"/>
   </g>
   <g id="patch_85">
    <path d="M 45.7848 114.68097 
C 46.592789 114.68097 47.367794 114.557568 47.939128 114.337942 
C 48.510463 114.118316 48.83148 113.820398 48.83148 113.5098 
C 48.83148 113.199202 48.510463 112.901284 47.939128 112.681658 
C 47.367794 112.462032 46.592789 112.33863 45.7848 112.33863 
C 44.976811 112.33863 44.201806 112.462032 43.630472 112.681658 
C 43.059137 112.901284 42.73812 113.199202 42.73812 113.5098 
C 42.73812 113.820398 43.059137 114.118316 43.630472 114.337942 
C 44.201806 114.557568 44.976811 114.68097 45.7848 114.68097 
z
" clip-path="url(#p7a54478328)" style="fill: #b23b35; stroke: #ffffff; stroke-width: 0.25; stroke-linejoin: miter"/>
   </g>
   <g id="patch_86">
    <path d="M 71.5644 102.06837 
C 72.372389 102.06837 73.147394 101.944968 73.718728 101.725342 
C 74.290063 101.505716 74.61108 101.207798 74.61108 100.8972 
C 74.61108 100.586602 74.290063 100.288684 73.718728 100.069058 
C 73.147394 99.849432 72.372389 99.72603 71.5644 99.72603 
C 70.756411 99.72603 69.981406 99.849432 69.410072 100.069058 
C 68.838737 100.288684 68.51772 100.586602 68.51772 100.8972 
C 68.51772 101.207798 68.838737 101.505716 69.410072 101.725342 
C 69.981406 101.944968 70.756411 102.06837 71.5644 102.06837 
z
" clip-path="url(#p7a54478328)" style="fill: #b23b35; stroke: #ffffff; stroke-width: 0.25; stroke-linejoin: miter"/>
   </g>
   <g id="patch_87">
    <path d="M 99.6876 105.67197 
C 100.495589 105.67197 101.270594 105.548568 101.841928 105.328942 
C 102.413263 105.109316 102.73428 104.811398 102.73428 104.5008 
C 102.73428 104.190202 102.413263 103.892284 101.841928 103.672658 
C 101.270594 103.453032 100.495589 103.32963 99.6876 103.32963 
C 98.879611 103.32963 98.104606 103.453032 97.533272 103.672658 
C 96.961937 103.892284 96.64092 104.190202 96.64092 104.5008 
C 96.64092 104.811398 96.961937 105.109316 97.533272 105.328942 
C 98.104606 105.548568 98.879611 105.67197 99.6876 105.67197 
z
" clip-path="url(#p7a54478328)" style="fill: #b23b35; stroke: #ffffff; stroke-width: 0.25; stroke-linejoin: miter"/>
   </g>
   <g id="patch_88">
    <path d="M 125.4672 89.45577 
C 126.275189 89.45577 127.050194 89.332368 127.621528 89.112742 
C 128.192863 88.893116 128.51388 88.595198 128.51388 88.2846 
C 128.51388 87.974002 128.192863 87.676084 127.621528 87.456458 
C 127.050194 87.236832 126.275189 87.11343 125.4672 87.11343 
C 124.659211 87.11343 123.884206 87.236832 123.312872 87.456458 
C 122.741537 87.676084 122.42052 87.974002 122.42052 88.2846 
C 122.42052 88.595198 122.741537 88.893116 123.312872 89.112742 
C 123.884206 89.332368 124.659211 89.45577 125.4672 89.45577 
z
" clip-path="url(#p7a54478328)" style="fill: #b23b35; stroke: #ffffff; stroke-width: 0.25; stroke-linejoin: miter"/>
   </g>
   <g id="patch_89">
    <path d="M 155.934 80.44677 
C 156.741989 80.44677 157.516994 80.323368 158.088328 80.103742 
C 158.659663 79.884116 158.98068 79.586198 158.98068 79.2756 
C 158.98068 78.965002 158.659663 78.667084 158.088328 78.447458 
C 157.516994 78.227832 156.741989 78.10443 155.934 78.10443 
C 155.126011 78.10443 154.351006 78.227832 153.779672 78.447458 
C 153.208337 78.667084 152.88732 78.965002 152.88732 79.2756 
C 152.88732 79.586198 153.208337 79.884116 153.779672 80.103742 
C 154.351006 80.323368 155.126011 80.44677 155.934 80.44677 
z
" clip-path="url(#p7a54478328)" style="fill: #b23b35; stroke: #ffffff; stroke-width: 0.25; stroke-linejoin: miter"/>
   </g>
   <g id="patch_90">
    <path d="M 184.0572 69.63597 
C 184.865189 69.63597 185.640194 69.512568 186.211528 69.292942 
C 186.782863 69.073316 187.10388 68.775398 187.10388 68.4648 
C 187.10388 68.154202 186.782863 67.856284 186.211528 67.636658 
C 185.640194 67.417032 184.865189 67.29363 184.0572 67.29363 
C 183.249211 67.29363 182.474206 67.417032 181.902872 67.636658 
C 181.331537 67.856284 181.01052 68.154202 181.01052 68.4648 
C 181.01052 68.775398 181.331537 69.073316 181.902872 69.292942 
C 182.474206 69.512568 183.249211 69.63597 184.0572 69.63597 
z
" clip-path="url(#p7a54478328)" style="fill: #b23b35; stroke: #ffffff; stroke-width: 0.25; stroke-linejoin: miter"/>
   </g>
   <g id="patch_91">
    <path d="M 10.285783 95.4918 
Q 24.693091 95.4918 36.86433 95.4918 
" clip-path="url(#p7a54478328)" style="fill: none; stroke: #2c6fb7; stroke-width: 2; stroke-linecap: round"/>
    <path d="M 30.06433 92.0918 
L 36.86433 95.4918 
L 30.06433 98.8918 
z
" clip-path="url(#p7a54478328)" style="fill: #2c6fb7; stroke: #2c6fb7; stroke-width: 2; stroke-linecap: round"/>
   </g>
   <g id="patch_92">
    <path d="M 188.404818 95.4918 
Q 203.978269 95.4918 217.315651 95.4918 
" clip-path="url(#p7a54478328)" style="fill: none; stroke: #2c6fb7; stroke-width: 2; stroke-linecap: round"/>
    <path d="M 210.515651 92.0918 
L 217.315651 95.4918 
L 210.515651 98.8918 
z
" clip-path="url(#p7a54478328)" style="fill: #2c6fb7; stroke: #2c6fb7; stroke-width: 2; stroke-linecap: round"/>
   </g>
   <g id="patch_93">
    <path d="M 223.553097 95.4918 
Q 234.443668 95.4918 243.321778 95.4918 
" clip-path="url(#p7a54478328)" style="fill: none; stroke: #555555; stroke-width: 1.8; stroke-linecap: round"/>
    <path d="M 237.321778 92.4918 
L 243.321778 95.4918 
L 237.321778 98.4918 
z
" clip-path="url(#p7a54478328)" style="fill: #555555; stroke: #555555; stroke-width: 1.8; stroke-linecap: round"/>
   </g>
   <g id="patch_94">
    <path d="M 254.3652 109.0053 
L 263.7396 109.0053 
L 263.7396 105.4017 
L 254.3652 105.4017 
z
" clip-path="url(#p7a54478328)" style="fill: #7f8c8d; stroke: #d4d4d4; stroke-width: 0.55; stroke-linejoin: miter"/>
   </g>
   <g id="patch_95">
    <path d="M 263.7396 109.0053 
L 273.114 109.0053 
L 273.114 105.4017 
L 263.7396 105.4017 
z
" clip-path="url(#p7a54478328)" style="fill: #ffffff; stroke: #d4d4d4; stroke-width: 0.55; stroke-linejoin: miter"/>
   </g>
   <g id="patch_96">
    <path d="M 273.114 109.0053 
L 282.4884 109.0053 
L 282.4884 105.4017 
L 273.114 105.4017 
z
" clip-path="url(#p7a54478328)" style="fill: #ffffff; stroke: #d4d4d4; stroke-width: 0.55; stroke-linejoin: miter"/>
   </g>
   <g id="patch_97">
    <path d="M 282.4884 109.0053 
L 291.8628 109.0053 
L 291.8628 105.4017 
L 282.4884 105.4017 
z
" clip-path="url(#p7a54478328)" style="fill: #7f8c8d; stroke: #d4d4d4; stroke-width: 0.55; stroke-linejoin: miter"/>
   </g>
   <g id="patch_98">
    <path d="M 291.8628 109.0053 
L 301.2372 109.0053 
L 301.2372 105.4017 
L 291.8628 105.4017 
z
" clip-path="url(#p7a54478328)" style="fill: #ffffff; stroke: #d4d4d4; stroke-width: 0.55; stroke-linejoin: miter"/>
   </g>
   <g id="patch_99">
    <path d="M 301.2372 109.0053 
L 310.6116 109.0053 
L 310.6116 105.4017 
L 301.2372 105.4017 
z
" clip-path="url(#p7a54478328)" style="fill: #ffffff; stroke: #d4d4d4; stroke-width: 0.55; stroke-linejoin: miter"/>
   </g>
   <g id="patch_100">
    <path d="M 310.6116 109.0053 
L 319.986 109.0053 
L 319.986 105.4017 
L 310.6116 105.4017 
z
" clip-path="url(#p7a54478328)" style="fill: #7f8c8d; stroke: #d4d4d4; stroke-width: 0.55; stroke-linejoin: miter"/>
   </g>
   <g id="patch_101">
    <path d="M 319.986 109.0053 
L 329.3604 109.0053 
L 329.3604 105.4017 
L 319.986 105.4017 
z
" clip-path="url(#p7a54478328)" style="fill: #ffffff; stroke: #d4d4d4; stroke-width: 0.55; stroke-linejoin: miter"/>
   </g>
   <g id="patch_102">
    <path d="M 254.3652 112.6089 
L 263.7396 112.6089 
L 263.7396 109.0053 
L 254.3652 109.0053 
z
" clip-path="url(#p7a54478328)" style="fill: #ffffff; stroke: #d4d4d4; stroke-width: 0.55; stroke-linejoin: miter"/>
   </g>
   <g id="patch_103">
    <path d="M 263.7396 112.6089 
L 273.114 112.6089 
L 273.114 109.0053 
L 263.7396 109.0053 
z
" clip-path="url(#p7a54478328)" style="fill: #ffffff; stroke: #d4d4d4; stroke-width: 0.55; stroke-linejoin: miter"/>
   </g>
   <g id="patch_104">
    <path d="M 273.114 112.6089 
L 282.4884 112.6089 
L 282.4884 109.0053 
L 273.114 109.0053 
z
" clip-path="url(#p7a54478328)" style="fill: #7f8c8d; stroke: #d4d4d4; stroke-width: 0.55; stroke-linejoin: miter"/>
   </g>
   <g id="patch_105">
    <path d="M 282.4884 112.6089 
L 291.8628 112.6089 
L 291.8628 109.0053 
L 282.4884 109.0053 
z
" clip-path="url(#p7a54478328)" style="fill: #ffffff; stroke: #d4d4d4; stroke-width: 0.55; stroke-linejoin: miter"/>
   </g>
   <g id="patch_106">
    <path d="M 291.8628 112.6089 
L 301.2372 112.6089 
L 301.2372 109.0053 
L 291.8628 109.0053 
z
" clip-path="url(#p7a54478328)" style="fill: #ffffff; stroke: #d4d4d4; stroke-width: 0.55; stroke-linejoin: miter"/>
   </g>
   <g id="patch_107">
    <path d="M 301.2372 112.6089 
L 310.6116 112.6089 
L 310.6116 109.0053 
L 301.2372 109.0053 
z
" clip-path="url(#p7a54478328)" style="fill: #7f8c8d; stroke: #d4d4d4; stroke-width: 0.55; stroke-linejoin: miter"/>
   </g>
   <g id="patch_108">
    <path d="M 310.6116 112.6089 
L 319.986 112.6089 
L 319.986 109.0053 
L 310.6116 109.0053 
z
" clip-path="url(#p7a54478328)" style="fill: #ffffff; stroke: #d4d4d4; stroke-width: 0.55; stroke-linejoin: miter"/>
   </g>
   <g id="patch_109">
    <path d="M 319.986 112.6089 
L 329.3604 112.6089 
L 329.3604 109.0053 
L 319.986 109.0053 
z
" clip-path="url(#p7a54478328)" style="fill: #ffffff; stroke: #d4d4d4; stroke-width: 0.55; stroke-linejoin: miter"/>
   </g>
   <g id="patch_110">
    <path d="M 254.3652 116.2125 
L 263.7396 116.2125 
L 263.7396 112.6089 
L 254.3652 112.6089 
z
" clip-path="url(#p7a54478328)" style="fill: #ffffff; stroke: #d4d4d4; stroke-width: 0.55; stroke-linejoin: miter"/>
   </g>
   <g id="patch_111">
    <path d="M 263.7396 116.2125 
L 273.114 116.2125 
L 273.114 112.6089 
L 263.7396 112.6089 
z
" clip-path="url(#p7a54478328)" style="fill: #7f8c8d; stroke: #d4d4d4; stroke-width: 0.55; stroke-linejoin: miter"/>
   </g>
   <g id="patch_112">
    <path d="M 273.114 116.2125 
L 282.4884 116.2125 
L 282.4884 112.6089 
L 273.114 112.6089 
z
" clip-path="url(#p7a54478328)" style="fill: #ffffff; stroke: #d4d4d4; stroke-width: 0.55; stroke-linejoin: miter"/>
   </g>
   <g id="patch_113">
    <path d="M 282.4884 116.2125 
L 291.8628 116.2125 
L 291.8628 112.6089 
L 282.4884 112.6089 
z
" clip-path="url(#p7a54478328)" style="fill: #ffffff; stroke: #d4d4d4; stroke-width: 0.55; stroke-linejoin: miter"/>
   </g>
   <g id="patch_114">
    <path d="M 291.8628 116.2125 
L 301.2372 116.2125 
L 301.2372 112.6089 
L 291.8628 112.6089 
z
" clip-path="url(#p7a54478328)" style="fill: #b23b35; stroke: #d4d4d4; stroke-width: 0.55; stroke-linejoin: miter"/>
   </g>
   <g id="patch_115">
    <path d="M 301.2372 116.2125 
L 310.6116 116.2125 
L 310.6116 112.6089 
L 301.2372 112.6089 
z
" clip-path="url(#p7a54478328)" style="fill: #ffffff; stroke: #d4d4d4; stroke-width: 0.55; stroke-linejoin: miter"/>
   </g>
   <g id="patch_116">
    <path d="M 310.6116 116.2125 
L 319.986 116.2125 
L 319.986 112.6089 
L 310.6116 112.6089 
z
" clip-path="url(#p7a54478328)" style="fill: #ffffff; stroke: #d4d4d4; stroke-width: 0.55; stroke-linejoin: miter"/>
   </g>
   <g id="patch_117">
    <path d="M 319.986 116.2125 
L 329.3604 116.2125 
L 329.3604 112.6089 
L 319.986 112.6089 
z
" clip-path="url(#p7a54478328)" style="fill: #7f8c8d; stroke: #d4d4d4; stroke-width: 0.55; stroke-linejoin: miter"/>
   </g>
   <g id="patch_118">
    <path d="M 254.3652 119.8161 
L 263.7396 119.8161 
L 263.7396 116.2125 
L 254.3652 116.2125 
z
" clip-path="url(#p7a54478328)" style="fill: #7f8c8d; stroke: #d4d4d4; stroke-width: 0.55; stroke-linejoin: miter"/>
   </g>
   <g id="patch_119">
    <path d="M 263.7396 119.8161 
L 273.114 119.8161 
L 273.114 116.2125 
L 263.7396 116.2125 
z
" clip-path="url(#p7a54478328)" style="fill: #ffffff; stroke: #d4d4d4; stroke-width: 0.55; stroke-linejoin: miter"/>
   </g>
   <g id="patch_120">
    <path d="M 273.114 119.8161 
L 282.4884 119.8161 
L 282.4884 116.2125 
L 273.114 116.2125 
z
" clip-path="url(#p7a54478328)" style="fill: #ffffff; stroke: #d4d4d4; stroke-width: 0.55; stroke-linejoin: miter"/>
   </g>
   <g id="patch_121">
    <path d="M 282.4884 119.8161 
L 291.8628 119.8161 
L 291.8628 116.2125 
L 282.4884 116.2125 
z
" clip-path="url(#p7a54478328)" style="fill: #7f8c8d; stroke: #d4d4d4; stroke-width: 0.55; stroke-linejoin: miter"/>
   </g>
   <g id="patch_122">
    <path d="M 291.8628 119.8161 
L 301.2372 119.8161 
L 301.2372 116.2125 
L 291.8628 116.2125 
z
" clip-path="url(#p7a54478328)" style="fill: #ffffff; stroke: #d4d4d4; stroke-width: 0.55; stroke-linejoin: miter"/>
   </g>
   <g id="patch_123">
    <path d="M 301.2372 119.8161 
L 310.6116 119.8161 
L 310.6116 116.2125 
L 301.2372 116.2125 
z
" clip-path="url(#p7a54478328)" style="fill: #ffffff; stroke: #d4d4d4; stroke-width: 0.55; stroke-linejoin: miter"/>
   </g>
   <g id="patch_124">
    <path d="M 310.6116 119.8161 
L 319.986 119.8161 
L 319.986 116.2125 
L 310.6116 116.2125 
z
" clip-path="url(#p7a54478328)" style="fill: #7f8c8d; stroke: #d4d4d4; stroke-width: 0.55; stroke-linejoin: miter"/>
   </g>
   <g id="patch_125">
    <path d="M 319.986 119.8161 
L 329.3604 119.8161 
L 329.3604 116.2125 
L 319.986 116.2125 
z
" clip-path="url(#p7a54478328)" style="fill: #ffffff; stroke: #d4d4d4; stroke-width: 0.55; stroke-linejoin: miter"/>
   </g>
   <g id="patch_126">
    <path d="M 254.3652 123.4197 
L 263.7396 123.4197 
L 263.7396 119.8161 
L 254.3652 119.8161 
z
" clip-path="url(#p7a54478328)" style="fill: #ffffff; stroke: #d4d4d4; stroke-width: 0.55; stroke-linejoin: miter"/>
   </g>
   <g id="patch_127">
    <path d="M 263.7396 123.4197 
L 273.114 123.4197 
L 273.114 119.8161 
L 263.7396 119.8161 
z
" clip-path="url(#p7a54478328)" style="fill: #ffffff; stroke: #d4d4d4; stroke-width: 0.55; stroke-linejoin: miter"/>
   </g>
   <g id="patch_128">
    <path d="M 273.114 123.4197 
L 282.4884 123.4197 
L 282.4884 119.8161 
L 273.114 119.8161 
z
" clip-path="url(#p7a54478328)" style="fill: #b23b35; stroke: #d4d4d4; stroke-width: 0.55; stroke-linejoin: miter"/>
   </g>
   <g id="patch_129">
    <path d="M 282.4884 123.4197 
L 291.8628 123.4197 
L 291.8628 119.8161 
L 282.4884 119.8161 
z
" clip-path="url(#p7a54478328)" style="fill: #ffffff; stroke: #d4d4d4; stroke-width: 0.55; stroke-linejoin: miter"/>
   </g>
   <g id="patch_130">
    <path d="M 291.8628 123.4197 
L 301.2372 123.4197 
L 301.2372 119.8161 
L 291.8628 119.8161 
z
" clip-path="url(#p7a54478328)" style="fill: #ffffff; stroke: #d4d4d4; stroke-width: 0.55; stroke-linejoin: miter"/>
   </g>
   <g id="patch_131">
    <path d="M 301.2372 123.4197 
L 310.6116 123.4197 
L 310.6116 119.8161 
L 301.2372 119.8161 
z
" clip-path="url(#p7a54478328)" style="fill: #7f8c8d; stroke: #d4d4d4; stroke-width: 0.55; stroke-linejoin: miter"/>
   </g>
   <g id="patch_132">
    <path d="M 310.6116 123.4197 
L 319.986 123.4197 
L 319.986 119.8161 
L 310.6116 119.8161 
z
" clip-path="url(#p7a54478328)" style="fill: #ffffff; stroke: #d4d4d4; stroke-width: 0.55; stroke-linejoin: miter"/>
   </g>
   <g id="patch_133">
    <path d="M 319.986 123.4197 
L 329.3604 123.4197 
L 329.3604 119.8161 
L 319.986 119.8161 
z
" clip-path="url(#p7a54478328)" style="fill: #ffffff; stroke: #d4d4d4; stroke-width: 0.55; stroke-linejoin: miter"/>
   </g>
   <g id="patch_134">
    <path d="M 254.3652 127.0233 
L 263.7396 127.0233 
L 263.7396 123.4197 
L 254.3652 123.4197 
z
" clip-path="url(#p7a54478328)" style="fill: #ffffff; stroke: #d4d4d4; stroke-width: 0.55; stroke-linejoin: miter"/>
   </g>
   <g id="patch_135">
    <path d="M 263.7396 127.0233 
L 273.114 127.0233 
L 273.114 123.4197 
L 263.7396 123.4197 
z
" clip-path="url(#p7a54478328)" style="fill: #7f8c8d; stroke: #d4d4d4; stroke-width: 0.55; stroke-linejoin: miter"/>
   </g>
   <g id="patch_136">
    <path d="M 273.114 127.0233 
L 282.4884 127.0233 
L 282.4884 123.4197 
L 273.114 123.4197 
z
" clip-path="url(#p7a54478328)" style="fill: #ffffff; stroke: #d4d4d4; stroke-width: 0.55; stroke-linejoin: miter"/>
   </g>
   <g id="patch_137">
    <path d="M 282.4884 127.0233 
L 291.8628 127.0233 
L 291.8628 123.4197 
L 282.4884 123.4197 
z
" clip-path="url(#p7a54478328)" style="fill: #ffffff; stroke: #d4d4d4; stroke-width: 0.55; stroke-linejoin: miter"/>
   </g>
   <g id="patch_138">
    <path d="M 291.8628 127.0233 
L 301.2372 127.0233 
L 301.2372 123.4197 
L 291.8628 123.4197 
z
" clip-path="url(#p7a54478328)" style="fill: #7f8c8d; stroke: #d4d4d4; stroke-width: 0.55; stroke-linejoin: miter"/>
   </g>
   <g id="patch_139">
    <path d="M 301.2372 127.0233 
L 310.6116 127.0233 
L 310.6116 123.4197 
L 301.2372 123.4197 
z
" clip-path="url(#p7a54478328)" style="fill: #ffffff; stroke: #d4d4d4; stroke-width: 0.55; stroke-linejoin: miter"/>
   </g>
   <g id="patch_140">
    <path d="M 310.6116 127.0233 
L 319.986 127.0233 
L 319.986 123.4197 
L 310.6116 123.4197 
z
" clip-path="url(#p7a54478328)" style="fill: #ffffff; stroke: #d4d4d4; stroke-width: 0.55; stroke-linejoin: miter"/>
   </g>
   <g id="patch_141">
    <path d="M 319.986 127.0233 
L 329.3604 127.0233 
L 329.3604 123.4197 
L 319.986 123.4197 
z
" clip-path="url(#p7a54478328)" style="fill: #7f8c8d; stroke: #d4d4d4; stroke-width: 0.55; stroke-linejoin: miter"/>
   </g>
   <g id="patch_142">
    <path d="M 254.3652 127.0233 
L 329.3604 127.0233 
L 329.3604 105.4017 
L 254.3652 105.4017 
L 254.3652 127.0233 
z
" clip-path="url(#p7a54478328)" style="fill: none; stroke: #333333; stroke-linejoin: miter"/>
   </g>
   <g id="patch_143">
    <path d="M 394.637899 95.4918 
Q 402.012392 95.4918 407.374423 95.4918 
" clip-path="url(#p7a54478328)" style="fill: none; stroke: #555555; stroke-width: 1.8; stroke-linecap: round"/>
    <path d="M 401.374423 92.4918 
L 407.374423 95.4918 
L 401.374423 98.4918 
z
" clip-path="url(#p7a54478328)" style="fill: #555555; stroke: #555555; stroke-width: 1.8; stroke-linecap: round"/>
   </g>
   <g id="patch_144">
    <path d="M 413.73 134.2305 
L 451.2276 134.2305 
L 451.2276 58.5549 
L 413.73 58.5549 
z
" clip-path="url(#p7a54478328)" style="fill: #f5f6f7; stroke: #333333; stroke-linejoin: miter"/>
   </g>
   <g id="patch_145">
    <path d="M 425.448 75.85218 
C 426.815366 75.85218 428.126912 75.643346 429.093786 75.271671 
C 430.06066 74.899997 430.60392 74.395827 430.60392 73.8702 
C 430.60392 73.344573 430.06066 72.840403 429.093786 72.468729 
C 428.126912 72.097054 426.815366 71.88822 425.448 71.88822 
C 424.080634 71.88822 422.769088 72.097054 421.802214 72.468729 
C 420.83534 72.840403 420.29208 73.344573 420.29208 73.8702 
C 420.29208 74.395827 420.83534 74.899997 421.802214 75.271671 
C 422.769088 75.643346 424.080634 75.85218 425.448 75.85218 
z
" clip-path="url(#p7a54478328)" style="fill: #b23b35; stroke: #ffffff; stroke-width: 0.35; stroke-linejoin: miter"/>
   </g>
   <g id="patch_146">
    <path d="M 437.166 82.15848 
C 438.533366 82.15848 439.844912 81.949646 440.811786 81.577971 
C 441.77866 81.206297 442.32192 80.702127 442.32192 80.1765 
C 442.32192 79.650873 441.77866 79.146703 440.811786 78.775029 
C 439.844912 78.403354 438.533366 78.19452 437.166 78.19452 
C 435.798634 78.19452 434.487088 78.403354 433.520214 78.775029 
C 432.55334 79.146703 432.01008 79.650873 432.01008 80.1765 
C 432.01008 80.702127 432.55334 81.206297 433.520214 81.577971 
C 434.487088 81.949646 435.798634 82.15848 437.166 82.15848 
z
" clip-path="url(#p7a54478328)" style="fill: #b23b35; stroke: #ffffff; stroke-width: 0.35; stroke-linejoin: miter"/>
   </g>
   <g id="patch_147">
    <path d="M 431.54136 89.36568 
C 432.908726 89.36568 434.220272 89.156846 435.187146 88.785171 
C 436.15402 88.413497 436.69728 87.909327 436.69728 87.3837 
C 436.69728 86.858073 436.15402 86.353903 435.187146 85.982229 
C 434.220272 85.610554 432.908726 85.40172 431.54136 85.40172 
C 430.173994 85.40172 428.862448 85.610554 427.895574 85.982229 
C 426.9287 86.353903 426.38544 86.858073 426.38544 87.3837 
C 426.38544 87.909327 426.9287 88.413497 427.895574 88.785171 
C 428.862448 89.156846 430.173994 89.36568 431.54136 89.36568 
z
" clip-path="url(#p7a54478328)" style="fill: #b23b35; stroke: #ffffff; stroke-width: 0.35; stroke-linejoin: miter"/>
   </g>
   <g id="line2d_1">
    <path d="M 45.7848 113.5098 
L 71.5644 100.8972 
L 99.6876 104.5008 
L 125.4672 88.2846 
L 155.934 79.2756 
L 184.0572 68.4648 
" clip-path="url(#p7a54478328)" style="fill: none; stroke: #b23b35; stroke-opacity: 0.85; stroke-width: 1.25; stroke-linecap: square"/>
   </g>
   <g id="line2d_2">
    <path d="M 348.1092 110.8071 
L 362.1708 96.3927 
" clip-path="url(#p7a54478328)" style="fill: none; stroke: #2b6f8a; stroke-linecap: square"/>
   </g>
   <g id="line2d_3">
    <path d="M 362.1708 96.3927 
L 378.576 111.708 
" clip-path="url(#p7a54478328)" style="fill: none; stroke: #2b6f8a; stroke-linecap: square"/>
   </g>
   <g id="line2d_4">
    <path d="M 362.1708 96.3927 
L 390.294 98.1945 
" clip-path="url(#p7a54478328)" style="fill: none; stroke: #2b6f8a; stroke-linecap: square"/>
   </g>
   <g id="line2d_5">
    <path d="M 348.1092 110.8071 
L 357.4836 123.4197 
" clip-path="url(#p7a54478328)" style="fill: none; stroke: #2b6f8a; stroke-linecap: square"/>
   </g>
   <g id="line2d_6">
    <path d="M 378.576 111.708 
L 357.4836 123.4197 
" clip-path="url(#p7a54478328)" style="fill: none; stroke: #2b6f8a; stroke-linecap: square"/>
   </g>
   <g id="line2d_7">
    <path d="M 420.7608 103.5999 
L 444.1968 103.5999 
" clip-path="url(#p7a54478328)" style="fill: none; stroke: #1b7837; stroke-width: 1.8; stroke-linecap: square"/>
   </g>
   <g id="line2d_8">
    <path d="M 420.7608 109.0053 
L 444.1968 109.0053 
" clip-path="url(#p7a54478328)" style="fill: none; stroke: #1b7837; stroke-width: 1.8; stroke-linecap: square"/>
   </g>
   <g id="line2d_9">
    <path d="M 420.7608 114.4107 
L 444.1968 114.4107 
" clip-path="url(#p7a54478328)" style="fill: none; stroke: #1b7837; stroke-width: 1.8; stroke-linecap: square"/>
   </g>
   <g id="text_1">
    <text style="font: 700 9px 'Arial', 'Helvetica', 'DejaVu Sans', sans-serif; text-anchor: start" x="29.3796" y="42.3387" transform="rotate(-0 29.3796 42.3387)">Gas-purged packed bed</text>
   </g>
   <g id="text_2">
    <text style="fill: #2c6fb7; font: 7.6px 'Arial', 'Helvetica', 'DejaVu Sans', sans-serif; text-anchor: start" x="11.09952" y="107.2035" transform="rotate(-0 11.09952 107.2035)">gas</text>
   </g>
   <g id="text_3">
    <text style="fill: #333333; font: 7.6px 'Arial', 'Helvetica', 'DejaVu Sans', sans-serif; text-anchor: middle" x="113.7492" y="149.5458" transform="rotate(-0 113.7492 149.5458)">fine-particle migration</text>
   </g>
   <g id="PathCollection_1">
    <defs>
     <path id="meaf78f5877" d="M 0 2.915476 
C 0.773193 2.915476 1.514823 2.608283 2.061553 2.061553 
C 2.608283 1.514823 2.915476 0.773193 2.915476 0 
C 2.915476 -0.773193 2.608283 -1.514823 2.061553 -2.061553 
C 1.514823 -2.608283 0.773193 -2.915476 0 -2.915476 
C -0.773193 -2.915476 -1.514823 -2.608283 -2.061553 -2.061553 
C -2.608283 -1.514823 -2.915476 -0.773193 -2.915476 0 
C -2.915476 0.773193 -2.608283 1.514823 -2.061553 2.061553 
C -1.514823 2.608283 -0.773193 2.915476 0 2.915476 
z
" style="stroke: #333333; stroke-width: 0.45"/>
    </defs>
    <g clip-path="url(#p7a54478328)">
     <use xlink:href="#meaf78f5877" x="348.1092" y="110.8071" style="fill: #8cc4d8; stroke: #333333; stroke-width: 0.45"/>
     <use xlink:href="#meaf78f5877" x="362.1708" y="96.3927" style="fill: #8cc4d8; stroke: #333333; stroke-width: 0.45"/>
     <use xlink:href="#meaf78f5877" x="378.576" y="111.708" style="fill: #8cc4d8; stroke: #333333; stroke-width: 0.45"/>
     <use xlink:href="#meaf78f5877" x="357.4836" y="123.4197" style="fill: #8cc4d8; stroke: #333333; stroke-width: 0.45"/>
     <use xlink:href="#meaf78f5877" x="390.294" y="98.1945" style="fill: #8cc4d8; stroke: #333333; stroke-width: 0.45"/>
    </g>
   </g>
   <g id="text_4">
    <text style="font: 700 9px 'Arial', 'Helvetica', 'DejaVu Sans', sans-serif; text-anchor: start" x="254.3652" y="42.3387" transform="rotate(-0 254.3652 42.3387)">DEM-derived pore diagnostics</text>
   </g>
   <g id="text_5">
    <text style="fill: #333333; font: 7.4px 'Arial', 'Helvetica', 'DejaVu Sans', sans-serif; text-anchor: middle" x="291.8628" y="149.5458" transform="rotate(-0 291.8628 149.5458)">porosity</text>
   </g>
   <g id="text_6">
    <text style="fill: #333333; font: 7.4px 'Arial', 'Helvetica', 'DejaVu Sans', sans-serif; text-anchor: middle" x="369.2016" y="149.5458" transform="rotate(-0 369.2016 149.5458)">connectivity</text>
   </g>
   <g id="text_7">
    <text style="fill: #b23b35; font: 700 8.7px 'Arial', 'Helvetica', 'DejaVu Sans', sans-serif; text-anchor: middle" x="432.4788" y="51.3477" transform="rotate(-0 432.4788 51.3477)">pre-clogging</text>
   </g>
   <g id="text_8">
    <text style="fill: #333333; font: 7.2px 'Arial', 'Helvetica', 'DejaVu Sans', sans-serif" transform="translate(407.867738 139.916419)">transport signal</text>
    <text style="fill: #333333; font: 7.2px 'Arial', 'Helvetica', 'DejaVu Sans', sans-serif" transform="translate(413.065238 146.8431)">not clogging</text>
   </g>
   <g id="text_9">
    <text style="font: 700 10.6px 'Arial', 'Helvetica', 'DejaVu Sans', sans-serif; text-anchor: middle" x="237.96" y="17.1135" transform="rotate(-0 237.96 17.1135)">Fine-particle breakthrough is not necessarily pore-network clogging</text>
   </g>
   <g id="text_10">
    <text style="fill: #333333; font: 7.6px 'Arial', 'Helvetica', 'DejaVu Sans', sans-serif; text-anchor: middle" x="237.96" y="170.2665" transform="rotate(-0 237.96 170.2665)">DEM trajectories and pore topology separate outlet arrival, deposition and connectivity loss in Li4SiO4 pebble beds</text>
   </g>
  </g>
 </g>
 <defs>
  <clipPath id="p7a54478328">
   <rect x="3.6" y="3.6" width="468.72" height="180.18"/>
  </clipPath>
 </defs>
</svg>
