<?xml version="1.0" encoding="utf-8" standalone="no"?>
<!DOCTYPE svg PUBLIC "-//W3C//DTD SVG 1.1//EN"
  "http://www.w3.org/Graphics/SVG/1.1/DTD/svg11.dtd">
<svg xmlns:xlink="http://www.w3.org/1999/xlink" width="526.79952pt" height="353.999961pt" viewBox="0 0 526.79952 353.999961" xmlns="http://www.w3.org/2000/svg" version="1.1">
 <metadata>
  <rdf:RDF xmlns:dc="http://purl.org/dc/elements/1.1/" xmlns:cc="http://creativecommons.org/ns#" xmlns:rdf="http://www.w3.org/1999/02/22-rdf-syntax-ns#">
   <cc:Work>
    <dc:type rdf:resource="http://purl.org/dc/dcmitype/StillImage"/>
    <dc:date>2026-06-09T18:52:49.461614</dc:date>
    <dc:format>image/svg+xml</dc:format>
    <dc:creator>
     <cc:Agent>
      <dc:title>Matplotlib v3.9.4, https://matplotlib.org/</dc:title>
     </cc:Agent>
    </dc:creator>
   </cc:Work>
  </rdf:RDF>
 </metadata>
 <defs>
  <style type="text/css">*{stroke-linejoin: round; stroke-linecap: butt}</style>
 </defs>
 <g id="figure_1">
  <g id="patch_1">
   <path d="M 0 353.999961 
L 526.79952 353.999961 
L 526.79952 0 
L 0 0 
z
" style="fill: #ffffff"/>
  </g>
  <g id="axes_1">
   <g id="patch_2">
    <path d="M 39.528125 154.650899 
L 260.303895 154.650899 
L 260.303895 14.221471 
L 39.528125 14.221471 
z
" style="fill: #ffffff"/>
   </g>
   <g id="matplotlib.axis_1">
    <g id="xtick_1">
     <g id="line2d_1">
      <path d="M 49.563387 154.650899 
L 49.563387 14.221471 
" clip-path="url(#paaa75af0dd)" style="fill: none; stroke: #b0b0b0; stroke-opacity: 0.35; stroke-width: 0.35; stroke-linecap: square"/>
     </g>
     <g id="line2d_2">
      <defs>
       <path id="mc3abd252cc" d="M 0 0 
L 0 3.5 
" style="stroke: #000000; stroke-width: 0.8"/>
      </defs>
      <g>
       <use xlink:href="#mc3abd252cc" x="49.563387" y="154.650899" style="stroke: #000000; stroke-width: 0.8"/>
      </g>
     </g>
     <g id="text_1">
      <text style="font: 7.2px 'Arial', 'Helvetica', 'DejaVu Sans', sans-serif; text-anchor: middle" x="49.563387" y="166.804524" transform="rotate(-0 49.563387 166.804524)">0</text>
     </g>
    </g>
    <g id="xtick_2">
     <g id="line2d_3">
      <path d="M 89.50473 154.650899 
L 89.50473 14.221471 
" clip-path="url(#paaa75af0dd)" style="fill: none; stroke: #b0b0b0; stroke-opacity: 0.35; stroke-width: 0.35; stroke-linecap: square"/>
     </g>
     <g id="line2d_4">
      <g>
       <use xlink:href="#mc3abd252cc" x="89.50473" y="154.650899" style="stroke: #000000; stroke-width: 0.8"/>
      </g>
     </g>
     <g id="text_2">
      <text style="font: 7.2px 'Arial', 'Helvetica', 'DejaVu Sans', sans-serif; text-anchor: middle" x="89.50473" y="166.804524" transform="rotate(-0 89.50473 166.804524)">2</text>
     </g>
    </g>
    <g id="xtick_3">
     <g id="line2d_5">
      <path d="M 129.446072 154.650899 
L 129.446072 14.221471 
" clip-path="url(#paaa75af0dd)" style="fill: none; stroke: #b0b0b0; stroke-opacity: 0.35; stroke-width: 0.35; stroke-linecap: square"/>
     </g>
     <g id="line2d_6">
      <g>
       <use xlink:href="#mc3abd252cc" x="129.446072" y="154.650899" style="stroke: #000000; stroke-width: 0.8"/>
      </g>
     </g>
     <g id="text_3">
      <text style="font: 7.2px 'Arial', 'Helvetica', 'DejaVu Sans', sans-serif; text-anchor: middle" x="129.446072" y="166.804524" transform="rotate(-0 129.446072 166.804524)">4</text>
     </g>
    </g>
    <g id="xtick_4">
     <g id="line2d_7">
      <path d="M 169.387414 154.650899 
L 169.387414 14.221471 
" clip-path="url(#paaa75af0dd)" style="fill: none; stroke: #b0b0b0; stroke-opacity: 0.35; stroke-width: 0.35; stroke-linecap: square"/>
     </g>
     <g id="line2d_8">
      <g>
       <use xlink:href="#mc3abd252cc" x="169.387414" y="154.650899" style="stroke: #000000; stroke-width: 0.8"/>
      </g>
     </g>
     <g id="text_4">
      <text style="font: 7.2px 'Arial', 'Helvetica', 'DejaVu Sans', sans-serif; text-anchor: middle" x="169.387414" y="166.804524" transform="rotate(-0 169.387414 166.804524)">6</text>
     </g>
    </g>
    <g id="xtick_5">
     <g id="line2d_9">
      <path d="M 209.328757 154.650899 
L 209.328757 14.221471 
" clip-path="url(#paaa75af0dd)" style="fill: none; stroke: #b0b0b0; stroke-opacity: 0.35; stroke-width: 0.35; stroke-linecap: square"/>
     </g>
     <g id="line2d_10">
      <g>
       <use xlink:href="#mc3abd252cc" x="209.328757" y="154.650899" style="stroke: #000000; stroke-width: 0.8"/>
      </g>
     </g>
     <g id="text_5">
      <text style="font: 7.2px 'Arial', 'Helvetica', 'DejaVu Sans', sans-serif; text-anchor: middle" x="209.328757" y="166.804524" transform="rotate(-0 209.328757 166.804524)">8</text>
     </g>
    </g>
    <g id="xtick_6">
     <g id="line2d_11">
      <path d="M 249.270099 154.650899 
L 249.270099 14.221471 
" clip-path="url(#paaa75af0dd)" style="fill: none; stroke: #b0b0b0; stroke-opacity: 0.35; stroke-width: 0.35; stroke-linecap: square"/>
     </g>
     <g id="line2d_12">
      <g>
       <use xlink:href="#mc3abd252cc" x="249.270099" y="154.650899" style="stroke: #000000; stroke-width: 0.8"/>
      </g>
     </g>
     <g id="text_6">
      <text style="font: 7.2px 'Arial', 'Helvetica', 'DejaVu Sans', sans-serif; text-anchor: middle" x="249.270099" y="166.804524" transform="rotate(-0 249.270099 166.804524)">10</text>
     </g>
    </g>
    <g id="text_7">
     <text style="font: 8px 'Arial', 'Helvetica', 'DejaVu Sans', sans-serif; text-anchor: middle" x="149.91601" y="178.059274" transform="rotate(-0 149.91601 178.059274)">time (ms)</text>
    </g>
   </g>
   <g id="matplotlib.axis_2">
    <g id="ytick_1">
     <g id="line2d_13">
      <path d="M 39.528125 148.267743 
L 260.303895 148.267743 
" clip-path="url(#paaa75af0dd)" style="fill: none; stroke: #b0b0b0; stroke-opacity: 0.35; stroke-width: 0.35; stroke-linecap: square"/>
     </g>
     <g id="line2d_14">
      <defs>
       <path id="m8b41a99338" d="M 0 0 
L -3.5 0 
" style="stroke: #000000; stroke-width: 0.8"/>
      </defs>
      <g>
       <use xlink:href="#m8b41a99338" x="39.528125" y="148.267743" style="stroke: #000000; stroke-width: 0.8"/>
      </g>
     </g>
     <g id="text_8">
      <text style="font: 7.2px 'Arial', 'Helvetica', 'DejaVu Sans', sans-serif; text-anchor: end" x="32.528125" y="150.844555" transform="rotate(-0 32.528125 150.844555)">0.00</text>
     </g>
    </g>
    <g id="ytick_2">
     <g id="line2d_15">
      <path d="M 39.528125 122.971221 
L 260.303895 122.971221 
" clip-path="url(#paaa75af0dd)" style="fill: none; stroke: #b0b0b0; stroke-opacity: 0.35; stroke-width: 0.35; stroke-linecap: square"/>
     </g>
     <g id="line2d_16">
      <g>
       <use xlink:href="#m8b41a99338" x="39.528125" y="122.971221" style="stroke: #000000; stroke-width: 0.8"/>
      </g>
     </g>
     <g id="text_9">
      <text style="font: 7.2px 'Arial', 'Helvetica', 'DejaVu Sans', sans-serif; text-anchor: end" x="32.528125" y="125.548033" transform="rotate(-0 32.528125 125.548033)">0.02</text>
     </g>
    </g>
    <g id="ytick_3">
     <g id="line2d_17">
      <path d="M 39.528125 97.674698 
L 260.303895 97.674698 
" clip-path="url(#paaa75af0dd)" style="fill: none; stroke: #b0b0b0; stroke-opacity: 0.35; stroke-width: 0.35; stroke-linecap: square"/>
     </g>
     <g id="line2d_18">
      <g>
       <use xlink:href="#m8b41a99338" x="39.528125" y="97.674698" style="stroke: #000000; stroke-width: 0.8"/>
      </g>
     </g>
     <g id="text_10">
      <text style="font: 7.2px 'Arial', 'Helvetica', 'DejaVu Sans', sans-serif; text-anchor: end" x="32.528125" y="100.251511" transform="rotate(-0 32.528125 100.251511)">0.04</text>
     </g>
    </g>
    <g id="ytick_4">
     <g id="line2d_19">
      <path d="M 39.528125 72.378176 
L 260.303895 72.378176 
" clip-path="url(#paaa75af0dd)" style="fill: none; stroke: #b0b0b0; stroke-opacity: 0.35; stroke-width: 0.35; stroke-linecap: square"/>
     </g>
     <g id="line2d_20">
      <g>
       <use xlink:href="#m8b41a99338" x="39.528125" y="72.378176" style="stroke: #000000; stroke-width: 0.8"/>
      </g>
     </g>
     <g id="text_11">
      <text style="font: 7.2px 'Arial', 'Helvetica', 'DejaVu Sans', sans-serif; text-anchor: end" x="32.528125" y="74.954989" transform="rotate(-0 32.528125 74.954989)">0.06</text>
     </g>
    </g>
    <g id="ytick_5">
     <g id="line2d_21">
      <path d="M 39.528125 47.081654 
L 260.303895 47.081654 
" clip-path="url(#paaa75af0dd)" style="fill: none; stroke: #b0b0b0; stroke-opacity: 0.35; stroke-width: 0.35; stroke-linecap: square"/>
     </g>
     <g id="line2d_22">
      <g>
       <use xlink:href="#m8b41a99338" x="39.528125" y="47.081654" style="stroke: #000000; stroke-width: 0.8"/>
      </g>
     </g>
     <g id="text_12">
      <text style="font: 7.2px 'Arial', 'Helvetica', 'DejaVu Sans', sans-serif; text-anchor: end" x="32.528125" y="49.658466" transform="rotate(-0 32.528125 49.658466)">0.08</text>
     </g>
    </g>
    <g id="ytick_6">
     <g id="line2d_23">
      <path d="M 39.528125 21.785132 
L 260.303895 21.785132 
" clip-path="url(#paaa75af0dd)" style="fill: none; stroke: #b0b0b0; stroke-opacity: 0.35; stroke-width: 0.35; stroke-linecap: square"/>
     </g>
     <g id="line2d_24">
      <g>
       <use xlink:href="#m8b41a99338" x="39.528125" y="21.785132" style="stroke: #000000; stroke-width: 0.8"/>
      </g>
     </g>
     <g id="text_13">
      <text style="font: 7.2px 'Arial', 'Helvetica', 'DejaVu Sans', sans-serif; text-anchor: end" x="32.528125" y="24.361944" transform="rotate(-0 32.528125 24.361944)">0.10</text>
     </g>
    </g>
    <g id="text_14">
     <text style="font: 8px 'Arial', 'Helvetica', 'DejaVu Sans', sans-serif; text-anchor: middle" x="12.92625" y="84.436185" transform="rotate(-90 12.92625 84.436185)">downstream fraction</text>
    </g>
   </g>
   <g id="line2d_25">
    <path d="M 49.563387 148.267743 
L 49.763094 148.099099 
L 49.962801 147.930456 
L 50.162507 147.930456 
L 50.362214 147.930456 
L 50.561921 148.014778 
L 50.761628 147.761812 
L 50.961334 147.761812 
L 51.161041 147.593169 
L 51.360748 147.593169 
L 51.560454 147.593169 
L 53.557522 147.340204 
L 55.554589 146.918595 
L 57.551656 146.075378 
L 59.548723 145.653769 
L 69.534058 143.967334 
L 79.519394 140.763108 
L 89.50473 136.209734 
L 99.490065 130.391534 
L 109.475401 124.826299 
L 119.460736 119.261064 
L 129.446072 112.936933 
L 139.431408 104.926368 
L 149.416743 97.590377 
L 169.387414 83.087037 
L 189.358086 68.499376 
L 209.328757 54.333324 
L 229.299428 40.335915 
L 249.270099 25.916897 
" clip-path="url(#paaa75af0dd)" style="fill: none; stroke: #4d4d4d; stroke-width: 1.25; stroke-linecap: square"/>
   </g>
   <g id="line2d_26">
    <path d="M 60.547256 144.388943 
L 62.544324 143.714369 
L 64.541391 142.871151 
L 66.538458 142.449543 
L 68.535525 142.027934 
L 70.532592 141.184717 
L 72.529659 140.510143 
L 74.526726 139.751247 
L 76.523793 138.486421 
L 78.52086 137.558882 
L 80.517928 136.209734 
L 82.514995 135.197873 
L 84.512062 133.933047 
L 86.509129 133.08983 
L 88.506196 131.65636 
L 90.503263 130.728821 
L 92.50033 129.463995 
L 94.497397 128.452134 
L 96.494465 127.018664 
L 98.491532 125.500873 
L 100.488599 123.89876 
L 102.485666 122.46529 
L 104.482733 121.706394 
L 106.4798 120.52589 
L 108.476867 119.345386 
L 110.473934 117.658951 
L 112.471002 116.225481 
L 114.468069 114.960655 
L 116.465136 113.780151 
L 118.462203 112.76829 
L 120.45927 111.33482 
L 122.456337 110.154316 
L 124.453404 108.552203 
L 126.450471 107.034412 
L 128.447538 105.769585 
L 130.444606 104.926368 
L 132.441673 103.155611 
L 134.43874 101.63782 
L 136.435807 100.288672 
L 138.432874 99.19249 
L 140.429941 97.75902 
L 142.427008 96.831481 
L 144.424075 95.735298 
L 146.421143 94.470472 
L 148.41821 92.868359 
L 150.415277 91.94082 
L 152.412344 90.675994 
L 154.409411 90.00142 
L 156.406478 88.989559 
L 158.403545 87.556089 
L 160.400612 86.459907 
L 162.397679 84.68915 
L 164.394747 83.508646 
L 166.391814 82.159498 
L 168.388881 80.30442 
L 170.385948 78.533663 
L 172.383015 76.762907 
L 174.380082 75.751046 
L 176.377149 73.55868 
L 178.374216 71.872246 
L 180.371284 70.523098 
L 182.368351 69.17395 
L 184.365418 67.656159 
L 186.362485 66.307011 
L 188.359552 65.042185 
L 190.356619 63.187106 
L 192.353686 62.428211 
L 194.350753 61.079063 
L 196.347821 59.223984 
L 198.344888 58.212124 
L 200.341955 57.200263 
L 202.339022 55.766793 
L 204.336089 54.249002 
L 206.333156 53.152819 
L 208.330223 51.466384 
L 210.32729 50.623167 
L 212.324357 48.936732 
L 214.321425 47.165976 
L 216.318492 45.310897 
L 218.315559 43.540141 
L 220.312626 42.022349 
L 222.309693 40.757523 
L 224.30676 39.239732 
L 226.303827 37.047367 
L 228.300894 35.613897 
L 230.297962 34.349071 
L 232.295029 33.252888 
L 234.292096 31.735097 
L 236.289163 30.470271 
L 238.28623 28.95248 
L 240.283297 27.013079 
L 242.280364 25.916897 
L 244.277431 24.567749 
L 246.274498 23.387245 
L 248.271566 21.616488 
L 249.270099 21.110558 
L 250.268633 20.604627 
" clip-path="url(#paaa75af0dd)" style="fill: none; stroke: #2166ac; stroke-width: 1.25; stroke-linecap: square"/>
   </g>
   <g id="patch_3">
    <path d="M 39.528125 154.650899 
L 39.528125 14.221471 
" style="fill: none; stroke: #000000; stroke-width: 0.8; stroke-linejoin: miter; stroke-linecap: square"/>
   </g>
   <g id="patch_4">
    <path d="M 39.528125 154.650899 
L 260.303895 154.650899 
" style="fill: none; stroke: #000000; stroke-width: 0.8; stroke-linejoin: miter; stroke-linecap: square"/>
   </g>
   <g id="text_15">
    <text style="font: 700 9px 'Arial', 'Helvetica', 'DejaVu Sans', sans-serif; text-anchor: start" x="13.035033" y="13.642031" transform="rotate(-0 13.035033 13.642031)">a</text>
   </g>
   <g id="legend_1">
    <g id="line2d_27">
     <path d="M 45.828125 23.102721 
L 52.828125 23.102721 
L 59.828125 23.102721 
" style="fill: none; stroke: #4d4d4d; stroke-width: 1.25; stroke-linecap: square"/>
    </g>
    <g id="text_16">
     <text style="font: 7px 'Arial', 'Helvetica', 'DejaVu Sans', sans-serif; text-anchor: start" x="65.428125" y="25.552721" transform="rotate(-0 65.428125 25.552721)">906 upstream</text>
    </g>
    <g id="line2d_28">
     <path d="M 45.828125 33.00444 
L 52.828125 33.00444 
L 59.828125 33.00444 
" style="fill: none; stroke: #2166ac; stroke-width: 1.25; stroke-linecap: square"/>
    </g>
    <g id="text_17">
     <text style="font: 7px 'Arial', 'Helvetica', 'DejaVu Sans', sans-serif; text-anchor: start" x="65.428125" y="35.45444" transform="rotate(-0 65.428125 35.45444)">907 downstream</text>
    </g>
   </g>
  </g>
  <g id="axes_2">
   <g id="patch_5">
    <path d="M 298.82375 154.650899 
L 519.59952 154.650899 
L 519.59952 14.221471 
L 298.82375 14.221471 
z
" style="fill: #ffffff"/>
   </g>
   <g id="matplotlib.axis_3">
    <g id="xtick_7">
     <g id="line2d_29">
      <path d="M 308.859012 154.650899 
L 308.859012 14.221471 
" clip-path="url(#p4d31d07a0c)" style="fill: none; stroke: #b0b0b0; stroke-opacity: 0.35; stroke-width: 0.35; stroke-linecap: square"/>
     </g>
     <g id="line2d_30">
      <g>
       <use xlink:href="#mc3abd252cc" x="308.859012" y="154.650899" style="stroke: #000000; stroke-width: 0.8"/>
      </g>
     </g>
     <g id="text_18">
      <text style="font: 7.2px 'Arial', 'Helvetica', 'DejaVu Sans', sans-serif; text-anchor: middle" x="308.859012" y="166.804524" transform="rotate(-0 308.859012 166.804524)">0</text>
     </g>
    </g>
    <g id="xtick_8">
     <g id="line2d_31">
      <path d="M 348.800355 154.650899 
L 348.800355 14.221471 
" clip-path="url(#p4d31d07a0c)" style="fill: none; stroke: #b0b0b0; stroke-opacity: 0.35; stroke-width: 0.35; stroke-linecap: square"/>
     </g>
     <g id="line2d_32">
      <g>
       <use xlink:href="#mc3abd252cc" x="348.800355" y="154.650899" style="stroke: #000000; stroke-width: 0.8"/>
      </g>
     </g>
     <g id="text_19">
      <text style="font: 7.2px 'Arial', 'Helvetica', 'DejaVu Sans', sans-serif; text-anchor: middle" x="348.800355" y="166.804524" transform="rotate(-0 348.800355 166.804524)">2</text>
     </g>
    </g>
    <g id="xtick_9">
     <g id="line2d_33">
      <path d="M 388.741697 154.650899 
L 388.741697 14.221471 
" clip-path="url(#p4d31d07a0c)" style="fill: none; stroke: #b0b0b0; stroke-opacity: 0.35; stroke-width: 0.35; stroke-linecap: square"/>
     </g>
     <g id="line2d_34">
      <g>
       <use xlink:href="#mc3abd252cc" x="388.741697" y="154.650899" style="stroke: #000000; stroke-width: 0.8"/>
      </g>
     </g>
     <g id="text_20">
      <text style="font: 7.2px 'Arial', 'Helvetica', 'DejaVu Sans', sans-serif; text-anchor: middle" x="388.741697" y="166.804524" transform="rotate(-0 388.741697 166.804524)">4</text>
     </g>
    </g>
    <g id="xtick_10">
     <g id="line2d_35">
      <path d="M 428.683039 154.650899 
L 428.683039 14.221471 
" clip-path="url(#p4d31d07a0c)" style="fill: none; stroke: #b0b0b0; stroke-opacity: 0.35; stroke-width: 0.35; stroke-linecap: square"/>
     </g>
     <g id="line2d_36">
      <g>
       <use xlink:href="#mc3abd252cc" x="428.683039" y="154.650899" style="stroke: #000000; stroke-width: 0.8"/>
      </g>
     </g>
     <g id="text_21">
      <text style="font: 7.2px 'Arial', 'Helvetica', 'DejaVu Sans', sans-serif; text-anchor: middle" x="428.683039" y="166.804524" transform="rotate(-0 428.683039 166.804524)">6</text>
     </g>
    </g>
    <g id="xtick_11">
     <g id="line2d_37">
      <path d="M 468.624382 154.650899 
L 468.624382 14.221471 
" clip-path="url(#p4d31d07a0c)" style="fill: none; stroke: #b0b0b0; stroke-opacity: 0.35; stroke-width: 0.35; stroke-linecap: square"/>
     </g>
     <g id="line2d_38">
      <g>
       <use xlink:href="#mc3abd252cc" x="468.624382" y="154.650899" style="stroke: #000000; stroke-width: 0.8"/>
      </g>
     </g>
     <g id="text_22">
      <text style="font: 7.2px 'Arial', 'Helvetica', 'DejaVu Sans', sans-serif; text-anchor: middle" x="468.624382" y="166.804524" transform="rotate(-0 468.624382 166.804524)">8</text>
     </g>
    </g>
    <g id="xtick_12">
     <g id="line2d_39">
      <path d="M 508.565724 154.650899 
L 508.565724 14.221471 
" clip-path="url(#p4d31d07a0c)" style="fill: none; stroke: #b0b0b0; stroke-opacity: 0.35; stroke-width: 0.35; stroke-linecap: square"/>
     </g>
     <g id="line2d_40">
      <g>
       <use xlink:href="#mc3abd252cc" x="508.565724" y="154.650899" style="stroke: #000000; stroke-width: 0.8"/>
      </g>
     </g>
     <g id="text_23">
      <text style="font: 7.2px 'Arial', 'Helvetica', 'DejaVu Sans', sans-serif; text-anchor: middle" x="508.565724" y="166.804524" transform="rotate(-0 508.565724 166.804524)">10</text>
     </g>
    </g>
    <g id="text_24">
     <text style="font: 8px 'Arial', 'Helvetica', 'DejaVu Sans', sans-serif; text-anchor: middle" x="409.211635" y="178.059274" transform="rotate(-0 409.211635 178.059274)">time (ms)</text>
    </g>
   </g>
   <g id="matplotlib.axis_4">
    <g id="ytick_7">
     <g id="line2d_41">
      <path d="M 298.82375 154.650899 
L 519.59952 154.650899 
" clip-path="url(#p4d31d07a0c)" style="fill: none; stroke: #b0b0b0; stroke-opacity: 0.35; stroke-width: 0.35; stroke-linecap: square"/>
     </g>
     <g id="line2d_42">
      <g>
       <use xlink:href="#m8b41a99338" x="298.82375" y="154.650899" style="stroke: #000000; stroke-width: 0.8"/>
      </g>
     </g>
     <g id="text_25">
      <text style="font: 7.2px 'Arial', 'Helvetica', 'DejaVu Sans', sans-serif; text-anchor: end" x="291.82375" y="157.227711" transform="rotate(-0 291.82375 157.227711)">0.2</text>
     </g>
    </g>
    <g id="ytick_8">
     <g id="line2d_43">
      <path d="M 298.82375 137.93311 
L 519.59952 137.93311 
" clip-path="url(#p4d31d07a0c)" style="fill: none; stroke: #b0b0b0; stroke-opacity: 0.35; stroke-width: 0.35; stroke-linecap: square"/>
     </g>
     <g id="line2d_44">
      <g>
       <use xlink:href="#m8b41a99338" x="298.82375" y="137.93311" style="stroke: #000000; stroke-width: 0.8"/>
      </g>
     </g>
     <g id="text_26">
      <text style="font: 7.2px 'Arial', 'Helvetica', 'DejaVu Sans', sans-serif; text-anchor: end" x="291.82375" y="140.509922" transform="rotate(-0 291.82375 140.509922)">0.3</text>
     </g>
    </g>
    <g id="ytick_9">
     <g id="line2d_45">
      <path d="M 298.82375 121.215321 
L 519.59952 121.215321 
" clip-path="url(#p4d31d07a0c)" style="fill: none; stroke: #b0b0b0; stroke-opacity: 0.35; stroke-width: 0.35; stroke-linecap: square"/>
     </g>
     <g id="line2d_46">
      <g>
       <use xlink:href="#m8b41a99338" x="298.82375" y="121.215321" style="stroke: #000000; stroke-width: 0.8"/>
      </g>
     </g>
     <g id="text_27">
      <text style="font: 7.2px 'Arial', 'Helvetica', 'DejaVu Sans', sans-serif; text-anchor: end" x="291.82375" y="123.792133" transform="rotate(-0 291.82375 123.792133)">0.4</text>
     </g>
    </g>
    <g id="ytick_10">
     <g id="line2d_47">
      <path d="M 298.82375 104.497532 
L 519.59952 104.497532 
" clip-path="url(#p4d31d07a0c)" style="fill: none; stroke: #b0b0b0; stroke-opacity: 0.35; stroke-width: 0.35; stroke-linecap: square"/>
     </g>
     <g id="line2d_48">
      <g>
       <use xlink:href="#m8b41a99338" x="298.82375" y="104.497532" style="stroke: #000000; stroke-width: 0.8"/>
      </g>
     </g>
     <g id="text_28">
      <text style="font: 7.2px 'Arial', 'Helvetica', 'DejaVu Sans', sans-serif; text-anchor: end" x="291.82375" y="107.074344" transform="rotate(-0 291.82375 107.074344)">0.5</text>
     </g>
    </g>
    <g id="ytick_11">
     <g id="line2d_49">
      <path d="M 298.82375 87.779743 
L 519.59952 87.779743 
" clip-path="url(#p4d31d07a0c)" style="fill: none; stroke: #b0b0b0; stroke-opacity: 0.35; stroke-width: 0.35; stroke-linecap: square"/>
     </g>
     <g id="line2d_50">
      <g>
       <use xlink:href="#m8b41a99338" x="298.82375" y="87.779743" style="stroke: #000000; stroke-width: 0.8"/>
      </g>
     </g>
     <g id="text_29">
      <text style="font: 7.2px 'Arial', 'Helvetica', 'DejaVu Sans', sans-serif; text-anchor: end" x="291.82375" y="90.356555" transform="rotate(-0 291.82375 90.356555)">0.6</text>
     </g>
    </g>
    <g id="ytick_12">
     <g id="line2d_51">
      <path d="M 298.82375 71.061954 
L 519.59952 71.061954 
" clip-path="url(#p4d31d07a0c)" style="fill: none; stroke: #b0b0b0; stroke-opacity: 0.35; stroke-width: 0.35; stroke-linecap: square"/>
     </g>
     <g id="line2d_52">
      <g>
       <use xlink:href="#m8b41a99338" x="298.82375" y="71.061954" style="stroke: #000000; stroke-width: 0.8"/>
      </g>
     </g>
     <g id="text_30">
      <text style="font: 7.2px 'Arial', 'Helvetica', 'DejaVu Sans', sans-serif; text-anchor: end" x="291.82375" y="73.638766" transform="rotate(-0 291.82375 73.638766)">0.7</text>
     </g>
    </g>
    <g id="ytick_13">
     <g id="line2d_53">
      <path d="M 298.82375 54.344165 
L 519.59952 54.344165 
" clip-path="url(#p4d31d07a0c)" style="fill: none; stroke: #b0b0b0; stroke-opacity: 0.35; stroke-width: 0.35; stroke-linecap: square"/>
     </g>
     <g id="line2d_54">
      <g>
       <use xlink:href="#m8b41a99338" x="298.82375" y="54.344165" style="stroke: #000000; stroke-width: 0.8"/>
      </g>
     </g>
     <g id="text_31">
      <text style="font: 7.2px 'Arial', 'Helvetica', 'DejaVu Sans', sans-serif; text-anchor: end" x="291.82375" y="56.920977" transform="rotate(-0 291.82375 56.920977)">0.8</text>
     </g>
    </g>
    <g id="ytick_14">
     <g id="line2d_55">
      <path d="M 298.82375 37.626376 
L 519.59952 37.626376 
" clip-path="url(#p4d31d07a0c)" style="fill: none; stroke: #b0b0b0; stroke-opacity: 0.35; stroke-width: 0.35; stroke-linecap: square"/>
     </g>
     <g id="line2d_56">
      <g>
       <use xlink:href="#m8b41a99338" x="298.82375" y="37.626376" style="stroke: #000000; stroke-width: 0.8"/>
      </g>
     </g>
     <g id="text_32">
      <text style="font: 7.2px 'Arial', 'Helvetica', 'DejaVu Sans', sans-serif; text-anchor: end" x="291.82375" y="40.203188" transform="rotate(-0 291.82375 40.203188)">0.9</text>
     </g>
    </g>
    <g id="ytick_15">
     <g id="line2d_57">
      <path d="M 298.82375 20.908587 
L 519.59952 20.908587 
" clip-path="url(#p4d31d07a0c)" style="fill: none; stroke: #b0b0b0; stroke-opacity: 0.35; stroke-width: 0.35; stroke-linecap: square"/>
     </g>
     <g id="line2d_58">
      <g>
       <use xlink:href="#m8b41a99338" x="298.82375" y="20.908587" style="stroke: #000000; stroke-width: 0.8"/>
      </g>
     </g>
     <g id="text_33">
      <text style="font: 7.2px 'Arial', 'Helvetica', 'DejaVu Sans', sans-serif; text-anchor: end" x="291.82375" y="23.485399" transform="rotate(-0 291.82375 23.485399)">1.0</text>
     </g>
    </g>
    <g id="text_34">
     <text style="font: 8px 'Arial', 'Helvetica', 'DejaVu Sans', sans-serif; text-anchor: middle" x="276.132" y="84.436185" transform="rotate(-90 276.132 84.436185)">leading x / L</text>
    </g>
   </g>
   <g id="line2d_59">
    <path d="M 308.859012 121.215692 
L 309.058719 120.012754 
L 309.258426 120.529148 
L 309.458132 119.849663 
L 309.657839 119.885699 
L 309.857546 119.887185 
L 310.057253 119.8883 
L 310.256959 119.889786 
L 310.456666 119.891272 
L 310.656373 119.892386 
L 310.856079 119.893872 
L 312.853147 118.182342 
L 314.850214 116.156889 
L 316.847281 114.133294 
L 318.844348 112.111927 
L 328.829683 113.350158 
L 338.815019 103.255957 
L 348.800355 98.295232 
L 358.78569 98.340927 
L 368.771026 98.359131 
L 378.756361 98.349472 
L 388.741697 98.313064 
L 398.727033 98.249165 
L 408.712368 93.817837 
L 428.683039 82.726884 
L 448.653711 71.6898 
L 468.624382 60.705469 
L 488.595053 52.16045 
L 508.565724 45.560639 
" clip-path="url(#p4d31d07a0c)" style="fill: none; stroke: #4d4d4d; stroke-width: 1.25; stroke-linecap: square"/>
   </g>
   <g id="line2d_60">
    <path d="M 319.842881 27.222339 
L 321.839949 25.641207 
L 323.837016 23.543682 
L 325.834083 22.482288 
L 327.83115 21.187217 
L 329.828217 21.975182 
L 331.825284 24.206449 
L 333.822351 27.178129 
L 335.819418 25.108839 
L 337.816485 22.671756 
L 339.813553 22.295049 
L 341.81062 21.91797 
L 343.807687 21.540519 
L 345.804754 21.162326 
L 347.801821 21.248144 
L 349.798888 21.435012 
L 351.795955 21.620393 
L 353.793022 21.80466 
L 355.79009 21.987442 
L 357.787157 22.621232 
L 359.784224 23.301088 
L 361.781291 23.978716 
L 363.778358 24.654486 
L 365.775425 25.328027 
L 367.772492 25.999339 
L 369.769559 26.797707 
L 371.766627 27.600904 
L 373.763694 28.401871 
L 375.760761 29.200239 
L 377.757828 29.996749 
L 379.754895 30.790658 
L 381.751962 31.582709 
L 383.749029 32.372161 
L 385.746096 33.159383 
L 387.743163 33.944376 
L 389.740231 34.727511 
L 391.737298 35.508046 
L 393.734365 36.285981 
L 395.731432 37.062058 
L 397.728499 37.835906 
L 399.725566 37.202859 
L 401.722633 36.18233 
L 403.7197 35.688227 
L 405.716768 35.194123 
L 407.713835 34.699277 
L 409.710902 34.20443 
L 411.707969 33.708841 
L 413.705036 33.213251 
L 415.702103 32.902672 
L 417.69917 32.922362 
L 419.696237 32.941308 
L 421.693304 32.959141 
L 423.690372 32.975487 
L 425.687439 32.99109 
L 427.684506 33.005579 
L 429.681573 32.607696 
L 431.67864 29.878609 
L 433.675707 27.152867 
L 435.672774 24.429725 
L 437.669841 24.390345 
L 439.666909 24.816091 
L 441.663976 25.239609 
L 443.661043 25.66164 
L 445.65811 26.082185 
L 447.655177 26.500502 
L 449.652244 26.917332 
L 451.649311 26.402052 
L 453.646378 25.566163 
L 455.643446 24.730645 
L 457.640513 23.895127 
L 459.63758 23.062581 
L 461.634647 22.481917 
L 463.631714 21.900881 
L 465.628781 21.319845 
L 467.625848 21.270434 
L 469.622915 21.55798 
L 471.619982 21.84404 
L 473.61705 22.128986 
L 475.614117 22.371208 
L 477.611184 21.375942 
L 479.608251 21.446157 
L 481.605318 21.936917 
L 483.602385 22.425819 
L 485.599452 22.913236 
L 487.596519 22.775035 
L 489.593587 22.115611 
L 491.590654 21.455816 
L 493.587721 21.241828 
L 495.584788 21.569125 
L 497.581855 21.894936 
L 499.578922 22.219262 
L 501.575989 22.541729 
L 503.573056 22.862711 
L 505.570123 23.182206 
L 507.567191 23.500216 
L 508.565724 23.658477 
L 509.564258 23.816368 
" clip-path="url(#p4d31d07a0c)" style="fill: none; stroke: #2166ac; stroke-width: 1.25; stroke-linecap: square"/>
   </g>
   <g id="line2d_61">
    <path d="M 298.82375 20.908587 
L 519.59952 20.908587 
" clip-path="url(#p4d31d07a0c)" style="fill: none; stroke-dasharray: 0.9,1.485; stroke-dashoffset: 0; stroke: #777777; stroke-width: 0.9"/>
   </g>
   <g id="patch_6">
    <path d="M 298.82375 154.650899 
L 298.82375 14.221471 
" style="fill: none; stroke: #000000; stroke-width: 0.8; stroke-linejoin: miter; stroke-linecap: square"/>
   </g>
   <g id="patch_7">
    <path d="M 298.82375 154.650899 
L 519.59952 154.650899 
" style="fill: none; stroke: #000000; stroke-width: 0.8; stroke-linejoin: miter; stroke-linecap: square"/>
   </g>
   <g id="text_35">
    <text style="font: 700 9px 'Arial', 'Helvetica', 'DejaVu Sans', sans-serif; text-anchor: start" x="272.330658" y="13.642031" transform="rotate(-0 272.330658 13.642031)">b</text>
   </g>
   <g id="legend_2">
    <g id="line2d_62">
     <path d="M 441.95202 134.60793 
L 448.95202 134.60793 
L 455.95202 134.60793 
" style="fill: none; stroke: #4d4d4d; stroke-width: 1.25; stroke-linecap: square"/>
    </g>
    <g id="text_36">
     <text style="font: 7px 'Arial', 'Helvetica', 'DejaVu Sans', sans-serif; text-anchor: start" x="461.55202" y="137.05793" transform="rotate(-0 461.55202 137.05793)">906 upstream</text>
    </g>
    <g id="line2d_63">
     <path d="M 441.95202 144.509649 
L 448.95202 144.509649 
L 455.95202 144.509649 
" style="fill: none; stroke: #2166ac; stroke-width: 1.25; stroke-linecap: square"/>
    </g>
    <g id="text_37">
     <text style="font: 7px 'Arial', 'Helvetica', 'DejaVu Sans', sans-serif; text-anchor: start" x="461.55202" y="146.959649" transform="rotate(-0 461.55202 146.959649)">907 downstream</text>
    </g>
   </g>
  </g>
  <g id="axes_3">
   <g id="patch_8">
    <path d="M 39.528125 333.193961 
L 260.303895 333.193961 
L 260.303895 192.764534 
L 39.528125 192.764534 
z
" style="fill: #ffffff"/>
   </g>
   <g id="patch_9">
    <path d="M 49.563387 333.193961 
L 90.182306 333.193961 
L 90.182306 236.163914 
L 49.563387 236.163914 
z
" clip-path="url(#p5df81f91f8)" style="fill: #2166ac; stroke: #222222; stroke-width: 0.4; stroke-linejoin: miter"/>
   </g>
   <g id="patch_10">
    <path d="M 169.030795 333.193961 
L 209.649714 333.193961 
L 209.649714 231.951031 
L 169.030795 231.951031 
z
" clip-path="url(#p5df81f91f8)" style="fill: #2166ac; stroke: #222222; stroke-width: 0.4; stroke-linejoin: miter"/>
   </g>
   <g id="patch_11">
    <path d="M 90.182306 333.193961 
L 130.801225 333.193961 
L 130.801225 333.193961 
L 90.182306 333.193961 
z
" clip-path="url(#p5df81f91f8)" style="fill: #b2182b; stroke: #222222; stroke-width: 0.4; stroke-linejoin: miter"/>
   </g>
   <g id="patch_12">
    <path d="M 209.649714 333.193961 
L 250.268633 333.193961 
L 250.268633 333.193961 
L 209.649714 333.193961 
z
" clip-path="url(#p5df81f91f8)" style="fill: #b2182b; stroke: #222222; stroke-width: 0.4; stroke-linejoin: miter"/>
   </g>
   <g id="matplotlib.axis_5">
    <g id="xtick_13">
     <g id="line2d_64">
      <g>
       <use xlink:href="#mc3abd252cc" x="90.182306" y="333.193961" style="stroke: #000000; stroke-width: 0.8"/>
      </g>
     </g>
     <g id="text_38">
      <text style="font: 7.2px 'Arial', 'Helvetica', 'DejaVu Sans', sans-serif; text-anchor: middle" x="90.182306" y="345.368961" transform="rotate(-0 90.182306 345.368961)">906 upstream</text>
     </g>
    </g>
    <g id="xtick_14">
     <g id="line2d_65">
      <g>
       <use xlink:href="#mc3abd252cc" x="209.649714" y="333.193961" style="stroke: #000000; stroke-width: 0.8"/>
      </g>
     </g>
     <g id="text_39">
      <text style="font: 7.2px 'Arial', 'Helvetica', 'DejaVu Sans', sans-serif; text-anchor: middle" x="209.649714" y="345.347586" transform="rotate(-0 209.649714 345.347586)">907 downstream</text>
     </g>
    </g>
   </g>
   <g id="matplotlib.axis_6">
    <g id="ytick_16">
     <g id="line2d_66">
      <path d="M 39.528125 333.193961 
L 260.303895 333.193961 
" clip-path="url(#p5df81f91f8)" style="fill: none; stroke: #b0b0b0; stroke-opacity: 0.35; stroke-width: 0.35; stroke-linecap: square"/>
     </g>
     <g id="line2d_67">
      <g>
       <use xlink:href="#m8b41a99338" x="39.528125" y="333.193961" style="stroke: #000000; stroke-width: 0.8"/>
      </g>
     </g>
     <g id="text_40">
      <text style="font: 7.2px 'Arial', 'Helvetica', 'DejaVu Sans', sans-serif; text-anchor: end" x="32.528125" y="335.770774" transform="rotate(-0 32.528125 335.770774)">0.00</text>
     </g>
    </g>
    <g id="ytick_17">
     <g id="line2d_68">
      <path d="M 39.528125 313.132614 
L 260.303895 313.132614 
" clip-path="url(#p5df81f91f8)" style="fill: none; stroke: #b0b0b0; stroke-opacity: 0.35; stroke-width: 0.35; stroke-linecap: square"/>
     </g>
     <g id="line2d_69">
      <g>
       <use xlink:href="#m8b41a99338" x="39.528125" y="313.132614" style="stroke: #000000; stroke-width: 0.8"/>
      </g>
     </g>
     <g id="text_41">
      <text style="font: 7.2px 'Arial', 'Helvetica', 'DejaVu Sans', sans-serif; text-anchor: end" x="32.528125" y="315.709427" transform="rotate(-0 32.528125 315.709427)">0.02</text>
     </g>
    </g>
    <g id="ytick_18">
     <g id="line2d_70">
      <path d="M 39.528125 293.071268 
L 260.303895 293.071268 
" clip-path="url(#p5df81f91f8)" style="fill: none; stroke: #b0b0b0; stroke-opacity: 0.35; stroke-width: 0.35; stroke-linecap: square"/>
     </g>
     <g id="line2d_71">
      <g>
       <use xlink:href="#m8b41a99338" x="39.528125" y="293.071268" style="stroke: #000000; stroke-width: 0.8"/>
      </g>
     </g>
     <g id="text_42">
      <text style="font: 7.2px 'Arial', 'Helvetica', 'DejaVu Sans', sans-serif; text-anchor: end" x="32.528125" y="295.64808" transform="rotate(-0 32.528125 295.64808)">0.04</text>
     </g>
    </g>
    <g id="ytick_19">
     <g id="line2d_72">
      <path d="M 39.528125 273.009921 
L 260.303895 273.009921 
" clip-path="url(#p5df81f91f8)" style="fill: none; stroke: #b0b0b0; stroke-opacity: 0.35; stroke-width: 0.35; stroke-linecap: square"/>
     </g>
     <g id="line2d_73">
      <g>
       <use xlink:href="#m8b41a99338" x="39.528125" y="273.009921" style="stroke: #000000; stroke-width: 0.8"/>
      </g>
     </g>
     <g id="text_43">
      <text style="font: 7.2px 'Arial', 'Helvetica', 'DejaVu Sans', sans-serif; text-anchor: end" x="32.528125" y="275.586733" transform="rotate(-0 32.528125 275.586733)">0.06</text>
     </g>
    </g>
    <g id="ytick_20">
     <g id="line2d_74">
      <path d="M 39.528125 252.948574 
L 260.303895 252.948574 
" clip-path="url(#p5df81f91f8)" style="fill: none; stroke: #b0b0b0; stroke-opacity: 0.35; stroke-width: 0.35; stroke-linecap: square"/>
     </g>
     <g id="line2d_75">
      <g>
       <use xlink:href="#m8b41a99338" x="39.528125" y="252.948574" style="stroke: #000000; stroke-width: 0.8"/>
      </g>
     </g>
     <g id="text_44">
      <text style="font: 7.2px 'Arial', 'Helvetica', 'DejaVu Sans', sans-serif; text-anchor: end" x="32.528125" y="255.525387" transform="rotate(-0 32.528125 255.525387)">0.08</text>
     </g>
    </g>
    <g id="ytick_21">
     <g id="line2d_76">
      <path d="M 39.528125 232.887227 
L 260.303895 232.887227 
" clip-path="url(#p5df81f91f8)" style="fill: none; stroke: #b0b0b0; stroke-opacity: 0.35; stroke-width: 0.35; stroke-linecap: square"/>
     </g>
     <g id="line2d_77">
      <g>
       <use xlink:href="#m8b41a99338" x="39.528125" y="232.887227" style="stroke: #000000; stroke-width: 0.8"/>
      </g>
     </g>
     <g id="text_45">
      <text style="font: 7.2px 'Arial', 'Helvetica', 'DejaVu Sans', sans-serif; text-anchor: end" x="32.528125" y="235.46404" transform="rotate(-0 32.528125 235.46404)">0.10</text>
     </g>
    </g>
    <g id="ytick_22">
     <g id="line2d_78">
      <path d="M 39.528125 212.825881 
L 260.303895 212.825881 
" clip-path="url(#p5df81f91f8)" style="fill: none; stroke: #b0b0b0; stroke-opacity: 0.35; stroke-width: 0.35; stroke-linecap: square"/>
     </g>
     <g id="line2d_79">
      <g>
       <use xlink:href="#m8b41a99338" x="39.528125" y="212.825881" style="stroke: #000000; stroke-width: 0.8"/>
      </g>
     </g>
     <g id="text_46">
      <text style="font: 7.2px 'Arial', 'Helvetica', 'DejaVu Sans', sans-serif; text-anchor: end" x="32.528125" y="215.402693" transform="rotate(-0 32.528125 215.402693)">0.12</text>
     </g>
    </g>
    <g id="ytick_23">
     <g id="line2d_80">
      <path d="M 39.528125 192.764534 
L 260.303895 192.764534 
" clip-path="url(#p5df81f91f8)" style="fill: none; stroke: #b0b0b0; stroke-opacity: 0.35; stroke-width: 0.35; stroke-linecap: square"/>
     </g>
     <g id="line2d_81">
      <g>
       <use xlink:href="#m8b41a99338" x="39.528125" y="192.764534" style="stroke: #000000; stroke-width: 0.8"/>
      </g>
     </g>
     <g id="text_47">
      <text style="font: 7.2px 'Arial', 'Helvetica', 'DejaVu Sans', sans-serif; text-anchor: end" x="32.528125" y="195.341346" transform="rotate(-0 32.528125 195.341346)">0.14</text>
     </g>
    </g>
    <g id="text_48">
     <text style="font: 8px 'Arial', 'Helvetica', 'DejaVu Sans', sans-serif; text-anchor: middle" x="12.92625" y="262.979248" transform="rotate(-90 12.92625 262.979248)">final fraction</text>
    </g>
   </g>
   <g id="patch_13">
    <path d="M 39.528125 333.193961 
L 39.528125 192.764534 
" style="fill: none; stroke: #000000; stroke-width: 0.8; stroke-linejoin: miter; stroke-linecap: square"/>
   </g>
   <g id="patch_14">
    <path d="M 39.528125 333.193961 
L 260.303895 333.193961 
" style="fill: none; stroke: #000000; stroke-width: 0.8; stroke-linejoin: miter; stroke-linecap: square"/>
   </g>
   <g id="text_49">
    <text style="font: 700 9px 'Arial', 'Helvetica', 'DejaVu Sans', sans-serif; text-anchor: start" x="13.035033" y="192.185094" transform="rotate(-0 13.035033 192.185094)">c</text>
   </g>
   <g id="legend_3">
    <g id="patch_15">
     <path d="M 45.828125 204.075003 
L 59.828125 204.075003 
L 59.828125 199.175003 
L 45.828125 199.175003 
z
" style="fill: #2166ac; stroke: #222222; stroke-width: 0.4; stroke-linejoin: miter"/>
    </g>
    <g id="text_50">
     <text style="font: 7px 'Arial', 'Helvetica', 'DejaVu Sans', sans-serif; text-anchor: start" x="65.428125" y="204.075003" transform="rotate(-0 65.428125 204.075003)">downstream</text>
    </g>
    <g id="patch_16">
     <path d="M 45.828125 213.976721 
L 59.828125 213.976721 
L 59.828125 209.076721 
L 45.828125 209.076721 
z
" style="fill: #b2182b; stroke: #222222; stroke-width: 0.4; stroke-linejoin: miter"/>
    </g>
    <g id="text_51">
     <text style="font: 7px 'Arial', 'Helvetica', 'DejaVu Sans', sans-serif; text-anchor: start" x="65.428125" y="213.976721" transform="rotate(-0 65.428125 213.976721)">outlet</text>
    </g>
   </g>
  </g>
  <g id="axes_4">
   <g id="patch_17">
    <path d="M 298.82375 333.193961 
L 519.59952 333.193961 
L 519.59952 192.764534 
L 298.82375 192.764534 
z
" style="fill: #ffffff"/>
   </g>
   <g id="patch_18">
    <path d="M 308.859012 333.193961 
L 398.061344 333.193961 
L 398.061344 218.151054 
L 308.859012 218.151054 
z
" clip-path="url(#pd21443738d)" style="fill: #4d4d4d; stroke: #222222; stroke-width: 0.4; stroke-linejoin: miter"/>
   </g>
   <g id="patch_19">
    <path d="M 420.361926 333.193961 
L 509.564258 333.193961 
L 509.564258 319.624318 
L 420.361926 319.624318 
z
" clip-path="url(#pd21443738d)" style="fill: #2166ac; stroke: #222222; stroke-width: 0.4; stroke-linejoin: miter"/>
   </g>
   <g id="matplotlib.axis_7">
    <g id="xtick_15">
     <g id="line2d_82">
      <g>
       <use xlink:href="#mc3abd252cc" x="353.460178" y="333.193961" style="stroke: #000000; stroke-width: 0.8"/>
      </g>
     </g>
     <g id="text_52">
      <text style="font: 7.2px 'Arial', 'Helvetica', 'DejaVu Sans', sans-serif; text-anchor: middle" x="353.460178" y="345.368961" transform="rotate(-0 353.460178 345.368961)">906 upstream</text>
     </g>
    </g>
    <g id="xtick_16">
     <g id="line2d_83">
      <g>
       <use xlink:href="#mc3abd252cc" x="464.963092" y="333.193961" style="stroke: #000000; stroke-width: 0.8"/>
      </g>
     </g>
     <g id="text_53">
      <text style="font: 7.2px 'Arial', 'Helvetica', 'DejaVu Sans', sans-serif; text-anchor: middle" x="464.963092" y="345.347586" transform="rotate(-0 464.963092 345.347586)">907 downstream</text>
     </g>
    </g>
   </g>
   <g id="matplotlib.axis_8">
    <g id="ytick_24">
     <g id="line2d_84">
      <path d="M 298.82375 333.193961 
L 519.59952 333.193961 
" clip-path="url(#pd21443738d)" style="fill: none; stroke: #b0b0b0; stroke-opacity: 0.35; stroke-width: 0.35; stroke-linecap: square"/>
     </g>
     <g id="line2d_85">
      <g>
       <use xlink:href="#m8b41a99338" x="298.82375" y="333.193961" style="stroke: #000000; stroke-width: 0.8"/>
      </g>
     </g>
     <g id="text_54">
      <text style="font: 7.2px 'Arial', 'Helvetica', 'DejaVu Sans', sans-serif; text-anchor: end" x="291.82375" y="335.770774" transform="rotate(-0 291.82375 335.770774)">0.00</text>
     </g>
    </g>
    <g id="ytick_25">
     <g id="line2d_86">
      <path d="M 298.82375 317.590691 
L 519.59952 317.590691 
" clip-path="url(#pd21443738d)" style="fill: none; stroke: #b0b0b0; stroke-opacity: 0.35; stroke-width: 0.35; stroke-linecap: square"/>
     </g>
     <g id="line2d_87">
      <g>
       <use xlink:href="#m8b41a99338" x="298.82375" y="317.590691" style="stroke: #000000; stroke-width: 0.8"/>
      </g>
     </g>
     <g id="text_55">
      <text style="font: 7.2px 'Arial', 'Helvetica', 'DejaVu Sans', sans-serif; text-anchor: end" x="291.82375" y="320.167504" transform="rotate(-0 291.82375 320.167504)">0.02</text>
     </g>
    </g>
    <g id="ytick_26">
     <g id="line2d_88">
      <path d="M 298.82375 301.987422 
L 519.59952 301.987422 
" clip-path="url(#pd21443738d)" style="fill: none; stroke: #b0b0b0; stroke-opacity: 0.35; stroke-width: 0.35; stroke-linecap: square"/>
     </g>
     <g id="line2d_89">
      <g>
       <use xlink:href="#m8b41a99338" x="298.82375" y="301.987422" style="stroke: #000000; stroke-width: 0.8"/>
      </g>
     </g>
     <g id="text_56">
      <text style="font: 7.2px 'Arial', 'Helvetica', 'DejaVu Sans', sans-serif; text-anchor: end" x="291.82375" y="304.564234" transform="rotate(-0 291.82375 304.564234)">0.04</text>
     </g>
    </g>
    <g id="ytick_27">
     <g id="line2d_90">
      <path d="M 298.82375 286.384152 
L 519.59952 286.384152 
" clip-path="url(#pd21443738d)" style="fill: none; stroke: #b0b0b0; stroke-opacity: 0.35; stroke-width: 0.35; stroke-linecap: square"/>
     </g>
     <g id="line2d_91">
      <g>
       <use xlink:href="#m8b41a99338" x="298.82375" y="286.384152" style="stroke: #000000; stroke-width: 0.8"/>
      </g>
     </g>
     <g id="text_57">
      <text style="font: 7.2px 'Arial', 'Helvetica', 'DejaVu Sans', sans-serif; text-anchor: end" x="291.82375" y="288.960965" transform="rotate(-0 291.82375 288.960965)">0.06</text>
     </g>
    </g>
    <g id="ytick_28">
     <g id="line2d_92">
      <path d="M 298.82375 270.780882 
L 519.59952 270.780882 
" clip-path="url(#pd21443738d)" style="fill: none; stroke: #b0b0b0; stroke-opacity: 0.35; stroke-width: 0.35; stroke-linecap: square"/>
     </g>
     <g id="line2d_93">
      <g>
       <use xlink:href="#m8b41a99338" x="298.82375" y="270.780882" style="stroke: #000000; stroke-width: 0.8"/>
      </g>
     </g>
     <g id="text_58">
      <text style="font: 7.2px 'Arial', 'Helvetica', 'DejaVu Sans', sans-serif; text-anchor: end" x="291.82375" y="273.357695" transform="rotate(-0 291.82375 273.357695)">0.08</text>
     </g>
    </g>
    <g id="ytick_29">
     <g id="line2d_94">
      <path d="M 298.82375 255.177613 
L 519.59952 255.177613 
" clip-path="url(#pd21443738d)" style="fill: none; stroke: #b0b0b0; stroke-opacity: 0.35; stroke-width: 0.35; stroke-linecap: square"/>
     </g>
     <g id="line2d_95">
      <g>
       <use xlink:href="#m8b41a99338" x="298.82375" y="255.177613" style="stroke: #000000; stroke-width: 0.8"/>
      </g>
     </g>
     <g id="text_59">
      <text style="font: 7.2px 'Arial', 'Helvetica', 'DejaVu Sans', sans-serif; text-anchor: end" x="291.82375" y="257.754425" transform="rotate(-0 291.82375 257.754425)">0.10</text>
     </g>
    </g>
    <g id="ytick_30">
     <g id="line2d_96">
      <path d="M 298.82375 239.574343 
L 519.59952 239.574343 
" clip-path="url(#pd21443738d)" style="fill: none; stroke: #b0b0b0; stroke-opacity: 0.35; stroke-width: 0.35; stroke-linecap: square"/>
     </g>
     <g id="line2d_97">
      <g>
       <use xlink:href="#m8b41a99338" x="298.82375" y="239.574343" style="stroke: #000000; stroke-width: 0.8"/>
      </g>
     </g>
     <g id="text_60">
      <text style="font: 7.2px 'Arial', 'Helvetica', 'DejaVu Sans', sans-serif; text-anchor: end" x="291.82375" y="242.151155" transform="rotate(-0 291.82375 242.151155)">0.12</text>
     </g>
    </g>
    <g id="ytick_31">
     <g id="line2d_98">
      <path d="M 298.82375 223.971073 
L 519.59952 223.971073 
" clip-path="url(#pd21443738d)" style="fill: none; stroke: #b0b0b0; stroke-opacity: 0.35; stroke-width: 0.35; stroke-linecap: square"/>
     </g>
     <g id="line2d_99">
      <g>
       <use xlink:href="#m8b41a99338" x="298.82375" y="223.971073" style="stroke: #000000; stroke-width: 0.8"/>
      </g>
     </g>
     <g id="text_61">
      <text style="font: 7.2px 'Arial', 'Helvetica', 'DejaVu Sans', sans-serif; text-anchor: end" x="291.82375" y="226.547886" transform="rotate(-0 291.82375 226.547886)">0.14</text>
     </g>
    </g>
    <g id="ytick_32">
     <g id="line2d_100">
      <path d="M 298.82375 208.367804 
L 519.59952 208.367804 
" clip-path="url(#pd21443738d)" style="fill: none; stroke: #b0b0b0; stroke-opacity: 0.35; stroke-width: 0.35; stroke-linecap: square"/>
     </g>
     <g id="line2d_101">
      <g>
       <use xlink:href="#m8b41a99338" x="298.82375" y="208.367804" style="stroke: #000000; stroke-width: 0.8"/>
      </g>
     </g>
     <g id="text_62">
      <text style="font: 7.2px 'Arial', 'Helvetica', 'DejaVu Sans', sans-serif; text-anchor: end" x="291.82375" y="210.944616" transform="rotate(-0 291.82375 210.944616)">0.16</text>
     </g>
    </g>
    <g id="ytick_33">
     <g id="line2d_102">
      <path d="M 298.82375 192.764534 
L 519.59952 192.764534 
" clip-path="url(#pd21443738d)" style="fill: none; stroke: #b0b0b0; stroke-opacity: 0.35; stroke-width: 0.35; stroke-linecap: square"/>
     </g>
     <g id="line2d_103">
      <g>
       <use xlink:href="#m8b41a99338" x="298.82375" y="192.764534" style="stroke: #000000; stroke-width: 0.8"/>
      </g>
     </g>
     <g id="text_63">
      <text style="font: 7.2px 'Arial', 'Helvetica', 'DejaVu Sans', sans-serif; text-anchor: end" x="291.82375" y="195.341346" transform="rotate(-0 291.82375 195.341346)">0.18</text>
     </g>
    </g>
    <g id="text_64">
     <text style="font: 8px 'Arial', 'Helvetica', 'DejaVu Sans', sans-serif; text-anchor: middle" x="272.128125" y="262.979248" transform="rotate(-90 272.128125 262.979248)">1 - leading x/L</text>
    </g>
   </g>
   <g id="patch_20">
    <path d="M 298.82375 333.193961 
L 298.82375 192.764534 
" style="fill: none; stroke: #000000; stroke-width: 0.8; stroke-linejoin: miter; stroke-linecap: square"/>
   </g>
   <g id="patch_21">
    <path d="M 298.82375 333.193961 
L 519.59952 333.193961 
" style="fill: none; stroke: #000000; stroke-width: 0.8; stroke-linejoin: miter; stroke-linecap: square"/>
   </g>
   <g id="text_65">
    <text style="font: 700 9px 'Arial', 'Helvetica', 'DejaVu Sans', sans-serif; text-anchor: start" x="272.330658" y="192.185094" transform="rotate(-0 272.330658 192.185094)">d</text>
   </g>
  </g>
 </g>
 <defs>
  <clipPath id="paaa75af0dd">
   <rect x="39.528125" y="14.221471" width="220.77577" height="140.429427"/>
  </clipPath>
  <clipPath id="p4d31d07a0c">
   <rect x="298.82375" y="14.221471" width="220.77577" height="140.429427"/>
  </clipPath>
  <clipPath id="p5df81f91f8">
   <rect x="39.528125" y="192.764534" width="220.77577" height="140.429427"/>
  </clipPath>
  <clipPath id="pd21443738d">
   <rect x="298.82375" y="192.764534" width="220.77577" height="140.429427"/>
  </clipPath>
 </defs>
</svg>
